<?xml version="1.0" encoding="UTF-8" standalone="no"?>
<!-- Created with Inkscape (http://www.inkscape.org/) -->

<svg
   xmlns:dc="http://purl.org/dc/elements/1.1/"
   xmlns:cc="http://creativecommons.org/ns#"
   xmlns:rdf="http://www.w3.org/1999/02/22-rdf-syntax-ns#"
   xmlns:svg="http://www.w3.org/2000/svg"
   xmlns="http://www.w3.org/2000/svg"
   xmlns:sodipodi="http://sodipodi.sourceforge.net/DTD/sodipodi-0.dtd"
   xmlns:inkscape="http://www.inkscape.org/namespaces/inkscape"
   sodipodi:docname="gear.svg"
   viewBox="0 0 48 48"
   inkscape:version="0.91pre2 r13638"
   version="1.1"
   id="svg5148"
   height="48"
   width="48">
  <sodipodi:namedview
     inkscape:document-units="px"
     inkscape:grid-bbox="true"
     showgrid="true"
     inkscape:current-layer="svg5148"
     inkscape:cy="18.314218"
     inkscape:cx="21.287304"
     inkscape:zoom="11.498406"
     inkscape:pageshadow="2"
     inkscape:pageopacity="0.0"
     borderopacity="1.0"
     bordercolor="#666666"
     pagecolor="#ffffff"
     id="base">
    <inkscape:grid
       id="grid4156"
       type="xygrid" />
  </sodipodi:namedview>
  <defs
     id="defs5150">
    <inkscape:path-effect
       effect="spiro"
       id="path-effect4830"
       is_visible="true" />
    <inkscape:path-effect
       effect="spiro"
       id="path-effect4826"
       is_visible="true" />
    <inkscape:path-effect
       effect="spiro"
       id="path-effect4822"
       is_visible="true" />
    <inkscape:path-effect
       effect="spiro"
       id="path-effect4818"
       is_visible="true" />
    <inkscape:path-effect
       effect="spiro"
       id="path-effect4814"
       is_visible="true" />
    <inkscape:path-effect
       effect="spiro"
       id="path-effect4810"
       is_visible="true" />
    <inkscape:path-effect
       effect="spiro"
       id="path-effect4806"
       is_visible="true" />
    <inkscape:path-effect
       effect="spiro"
       id="path-effect4802"
       is_visible="true" />
    <inkscape:path-effect
       is_visible="true"
       id="path-effect4192"
       effect="spiro" />
    <inkscape:path-effect
       is_visible="true"
       id="path-effect4188"
       effect="spiro" />
    <inkscape:path-effect
       effect="spiro"
       id="path-effect4184"
       is_visible="true" />
    <inkscape:path-effect
       effect="spiro"
       id="path-effect4180"
       is_visible="true" />
    <inkscape:path-effect
       is_visible="true"
       id="path-effect4176"
       effect="spiro" />
    <inkscape:path-effect
       fuse_tolerance="0"
       vertical_pattern="false"
       prop_units="false"
       tang_offset="0"
       normal_offset="0"
       spacing="0"
       scale_y_rel="false"
       prop_scale="0.1"
       copytype="single_stretched"
       pattern="M 0,5 C 0,2.24 2.24,0 5,0 7.76,0 10,2.24 10,5 10,7.76 7.76,10 5,10 2.24,10 0,7.76 0,5 Z"
       is_visible="true"
       id="path-effect4172"
       effect="skeletal" />
    <inkscape:path-effect
       is_visible="true"
       id="path-effect4170"
       effect="spiro" />
  </defs>
  <metadata
     id="metadata5153">
    <rdf:RDF>
      <cc:Work
         rdf:about="">
        <dc:format>image/svg+xml</dc:format>
        <dc:type
           rdf:resource="http://purl.org/dc/dcmitype/StillImage" />
        <dc:title />
      </cc:Work>
    </rdf:RDF>
  </metadata>
  <g
     inkscape:groupmode="layer"
     inkscape:label="Layer 1"
     id="layer1" />
  <path
     style="fill:#000000;stroke:none;stroke-width:1"
     d="m 22.793974,4.9999725 -0.923096,2.8203169 0.0023,0.2504893 0.0093,0.06958 a 16.021105,16.021105 0 0 0 -3.982336,1.0599375 l -0.02319,-0.060303 -0.122926,-0.2156979 -2.208011,-1.9830359 -2.092044,1.2060571 0.612306,2.9061315 0.127564,0.21338 0.03711,0.0487 a 16.021105,16.021105 0 0 0 -2.908452,2.922369 l -0.05567,-0.04407 -0.21338,-0.127563 -2.9061311,-0.612306 -1.2060571,2.092044 1.9830359,2.208011 0.2156979,0.122926 0.053345,0.02088 a 16.021105,16.021105 0 0 0 -1.0552695,3.984623 l -0.067261,-0.0093 -0.2504893,-0.0023 -2.8203169,0.923097 0,2.412114 2.8203169,0.923096 0.2504893,-0.0023 0.06958,-0.0093 a 16.021105,16.021105 0 0 0 1.059938,3.982306 l -0.060303,0.02319 -0.2156979,0.122926 -1.9830359,2.208011 1.2060571,2.092044 2.9061316,-0.612306 0.21338,-0.127564 0.0487,-0.03711 a 16.021105,16.021105 0 0 0 2.922369,2.908452 l -0.04407,0.05567 -0.127564,0.21338 -0.612306,2.906131 2.092044,1.206057 2.208011,-1.983036 0.122926,-0.215698 0.02088,-0.05334 a 16.021105,16.021105 0 0 0 3.984626,1.0553 l -0.0093,0.06726 -0.0023,0.25049 0.923097,2.820316 2.412114,0 0.923097,-2.820316 -0.0023,-0.25049 -0.0093,-0.06958 a 16.021105,16.021105 0 0 0 3.98225,-1.059991 l 0.02319,0.0603 0.122926,0.215698 2.208011,1.983036 2.092044,-1.206057 -0.612306,-2.906131 -0.127563,-0.21338 -0.03712,-0.0487 a 16.021105,16.021105 0 0 0 2.908453,-2.922369 l 0.05567,0.04407 0.21338,0.127564 2.906131,0.612306 1.206057,-2.092044 -1.983035,-2.208011 -0.215699,-0.122926 -0.05334,-0.02088 a 16.021105,16.021105 0 0 0 1.0553,-3.984626 l 0.06726,0.0093 0.250489,0.0023 2.820316,-0.923096 0,-2.412114 -2.820316,-0.923097 -0.250489,0.0023 -0.06958,0.0093 a 16.021105,16.021105 0 0 0 -1.059929,-3.982255 l 0.0603,-0.02319 0.215699,-0.122926 1.983035,-2.208011 -1.206057,-2.092044 -2.906131,0.612306 -0.21338,0.127563 -0.0487,0.03712 a 16.021105,16.021105 0 0 0 -2.922368,-2.908453 l 0.04407,-0.05567 0.127563,-0.21338 0.612306,-2.9061312 -2.092044,-1.2060571 -2.208011,1.9830359 -0.122926,0.2156979 -0.02088,0.053345 a 16.021105,16.021105 0 0 0 -3.98457,-1.0553056 l 0.0093,-0.067261 0.0023,-0.2504893 -0.923097,-2.8203169 -2.412113,0 z m 1.206057,5.9375095 a 13.06252,13.06252 0 0 1 13.06252,13.06252 13.06252,13.06252 0 0 1 -13.06252,13.06252 13.06252,13.06252 0 0 1 -13.06252,-13.06252 13.06252,13.06252 0 0 1 13.06252,-13.06252 z m 0,10.687517 a 2.3753743,2.3753743 0 0 0 -2.375003,2.375003 2.3753743,2.3753743 0 0 0 2.375003,2.375003 2.3753743,2.3753743 0 0 0 2.375003,-2.375003 2.3753743,2.3753743 0 0 0 -2.375003,-2.375003 z"
     id="path4796"
     inkscape:connector-curvature="0" />
  <path
     style="color:#000000;font-style:normal;font-variant:normal;font-weight:normal;font-stretch:normal;font-size:medium;line-height:normal;font-family:sans-serif;text-indent:0;text-align:start;text-decoration:none;text-decoration-line:none;text-decoration-style:solid;text-decoration-color:#000000;letter-spacing:normal;word-spacing:normal;text-transform:none;direction:ltr;block-progression:tb;writing-mode:lr-tb;baseline-shift:baseline;text-anchor:start;white-space:normal;clip-rule:nonzero;display:inline;overflow:visible;visibility:visible;opacity:1;isolation:auto;mix-blend-mode:normal;color-interpolation:sRGB;color-interpolation-filters:linearRGB;solid-color:#000000;solid-opacity:1;fill:#000000;fill-opacity:1;fill-rule:evenodd;stroke:none;stroke-width:2;stroke-linecap:round;stroke-linejoin:miter;stroke-miterlimit:4;stroke-dasharray:none;stroke-dashoffset:0;stroke-opacity:1;color-rendering:auto;image-rendering:auto;shape-rendering:auto;text-rendering:auto;enable-background:accumulate"
     d="m 21.755019,13.357561 a 1.2189224,1.2189224 0 0 0 -1.4426,1.520937 l 1.262178,4.707657 a 1.2189224,1.2189224 0 1 0 2.352677,-0.631398 l -1.262177,-4.707656 a 1.2189224,1.2189224 0 0 0 -0.910078,-0.88954 z m 12.045274,6.929116 a 1.2189224,1.2189224 0 0 0 -0.68588,-0.0063 l -4.707656,1.262178 a 1.2189224,1.2189224 0 1 0 0.631396,2.352677 l 4.707657,-1.262177 a 1.2189224,1.2189224 0 0 0 0.05448,-2.346338 z m -14.127572,3.785299 a 1.2189224,1.2189224 0 0 0 -0.685879,-0.0063 l -4.707658,1.262179 a 1.2189224,1.2189224 0 1 0 0.631397,2.352677 l 4.707657,-1.262176 a 1.2189224,1.2189224 0 0 0 0.05448,-2.346339 z m 5.867596,3.413158 a 1.2189224,1.2189224 0 0 0 -1.442599,1.520936 l 1.262178,4.707656 a 1.2189224,1.2189224 0 1 0 2.352679,-0.631396 l -1.262178,-4.707658 a 1.2189224,1.2189224 0 0 0 -0.91008,-0.889538 z"
     id="path4816"
     inkscape:connector-curvature="0" />
</svg>
