<?xml version="1.0" encoding="UTF-8" standalone="no"?>
<!-- Created with Inkscape (http://www.inkscape.org/) -->

<svg
   xmlns:dc="http://purl.org/dc/elements/1.1/"
   xmlns:cc="http://creativecommons.org/ns#"
   xmlns:rdf="http://www.w3.org/1999/02/22-rdf-syntax-ns#"
   xmlns:svg="http://www.w3.org/2000/svg"
   xmlns="http://www.w3.org/2000/svg"
   xmlns:sodipodi="http://sodipodi.sourceforge.net/DTD/sodipodi-0.dtd"
   xmlns:inkscape="http://www.inkscape.org/namespaces/inkscape"
   width="48"
   height="48"
   id="svg5148"
   version="1.1"
   inkscape:version="0.91pre2 r13638"
   viewBox="0 0 48 48"
   sodipodi:docname="info.svg">
  <defs
     id="defs5150">
    <inkscape:path-effect
       effect="spiro"
       id="path-effect4192"
       is_visible="true" />
    <inkscape:path-effect
       effect="spiro"
       id="path-effect4188"
       is_visible="true" />
    <inkscape:path-effect
       is_visible="true"
       id="path-effect4184"
       effect="spiro" />
    <inkscape:path-effect
       is_visible="true"
       id="path-effect4180"
       effect="spiro" />
    <inkscape:path-effect
       effect="spiro"
       id="path-effect4176"
       is_visible="true" />
    <inkscape:path-effect
       effect="skeletal"
       id="path-effect4172"
       is_visible="true"
       pattern="M 0,5 C 0,2.24 2.24,0 5,0 7.76,0 10,2.24 10,5 10,7.76 7.76,10 5,10 2.24,10 0,7.76 0,5 Z"
       copytype="single_stretched"
       prop_scale="0.1"
       scale_y_rel="false"
       spacing="0"
       normal_offset="0"
       tang_offset="0"
       prop_units="false"
       vertical_pattern="false"
       fuse_tolerance="0" />
    <inkscape:path-effect
       effect="spiro"
       id="path-effect4170"
       is_visible="true" />
  </defs>
  <sodipodi:namedview
     id="base"
     pagecolor="#ffffff"
     bordercolor="#666666"
     borderopacity="1.0"
     inkscape:pageopacity="0.0"
     inkscape:pageshadow="2"
     inkscape:zoom="13.982804"
     inkscape:cx="35.637073"
     inkscape:cy="24.740257"
     inkscape:current-layer="layer1"
     showgrid="true"
     inkscape:grid-bbox="true"
     inkscape:document-units="px">
    <inkscape:grid
       type="xygrid"
       id="grid4156" />
  </sodipodi:namedview>
  <metadata
     id="metadata5153">
    <rdf:RDF>
      <cc:Work
         rdf:about="">
        <dc:format>image/svg+xml</dc:format>
        <dc:type
           rdf:resource="http://purl.org/dc/dcmitype/StillImage" />
        <dc:title></dc:title>
      </cc:Work>
    </rdf:RDF>
  </metadata>
  <g
     id="layer1"
     inkscape:label="Layer 1"
     inkscape:groupmode="layer">
    <path
       inkscape:connector-curvature="0"
       id="path5102"
       d="m 24.000005,6.0004813 c -9.917759,0 -17.9995185,8.0817597 -17.9995185,17.9995177 0,9.917758 8.0817595,17.999518 17.9995185,17.999518 9.917758,0 17.999518,-8.08176 17.999518,-17.999518 0,-9.917758 -8.08176,-17.9995177 -17.999518,-17.9995177 z m 0,3.9442422 c 7.785613,0 14.055276,6.2696675 14.055276,14.0552755 0,7.785609 -6.269663,14.055276 -14.055276,14.055276 -7.785614,0 -14.0552762,-6.269667 -14.0552762,-14.055276 0,-7.785608 6.2696622,-14.0552755 14.0552762,-14.0552755 z"
       style="color:#000000;font-style:normal;font-variant:normal;font-weight:normal;font-stretch:normal;font-size:medium;line-height:normal;font-family:sans-serif;text-indent:0;text-align:start;text-decoration:none;text-decoration-line:none;text-decoration-style:solid;text-decoration-color:#000000;letter-spacing:normal;word-spacing:normal;text-transform:none;direction:ltr;block-progression:tb;writing-mode:lr-tb;baseline-shift:baseline;text-anchor:start;white-space:normal;clip-rule:nonzero;display:inline;overflow:visible;visibility:visible;opacity:1;isolation:auto;mix-blend-mode:normal;color-interpolation:sRGB;color-interpolation-filters:linearRGB;solid-color:#000000;solid-opacity:1;fill:#000000;fill-opacity:1;fill-rule:nonzero;stroke:none;stroke-width:7.87692308;stroke-linecap:round;stroke-linejoin:round;stroke-miterlimit:4;stroke-dasharray:none;stroke-dashoffset:0;stroke-opacity:1;color-rendering:auto;image-rendering:auto;shape-rendering:auto;text-rendering:auto;enable-background:accumulate" />
    <path
       style="color:#000000;display:inline;overflow:visible;visibility:visible;opacity:1;fill:#000000;fill-opacity:1;fill-rule:nonzero;stroke:none;stroke-width:4;stroke-linecap:round;stroke-linejoin:round;stroke-miterlimit:4;stroke-dasharray:none;stroke-dashoffset:0;stroke-opacity:1;marker:none;enable-background:accumulate"
       d="m 26,15 a 2,2 0 0 1 -2,2 2,2 0 0 1 -2,-2 2,2 0 0 1 2,-2 2,2 0 0 1 2,2 z"
       id="path4166" />
    <path
       style="fill:#000000;fill-rule:evenodd;stroke:none;stroke-width:1px;stroke-linecap:butt;stroke-linejoin:miter;stroke-opacity:1"
       d="m 19,33 0,1 10,0 0,-1 C 28.537295,32.607104 28.025213,32.272418 27.479635,32.006321 27.276791,31.907387 27.069193,31.817289 26.874492,31.703162 26.67979,31.589035 26.498077,31.449139 26.355038,31.274573 26.211999,31.100007 26.110718,30.892164 26.057557,30.67283 26.004397,30.453495 26,30.225685 26,30 l 0,-7 c 0,-0.352651 0.0096,-0.708476 0.09409,-1.050851 C 26.1786,21.606775 26.33338,21.282194 26.544872,21 26.904144,20.520624 27.4237,20.163572 28,20 l -8,0 c 0.549312,0.193283 1.042164,0.544178 1.404558,1 0.221481,0.278581 0.392801,0.598509 0.487982,0.941441 C 21.987721,22.284372 22,22.644105 22,23 l 0,7 c 0,0.225177 -0.0044,0.452515 -0.058,0.671232 -0.05355,0.218717 -0.155541,0.425727 -0.299284,0.599055 -0.143742,0.173328 -0.326091,0.311583 -0.52113,0.42412 -0.195038,0.112536 -0.402726,0.201134 -0.605392,0.299272 C 19.968589,32.258852 19.457042,32.598372 19,33 Z"
       id="path4190" />
  </g>
</svg>
