<?xml version="1.0" encoding="UTF-8" standalone="no"?>
<!-- Created with Inkscape (http://www.inkscape.org/) -->

<svg
   xmlns:dc="http://purl.org/dc/elements/1.1/"
   xmlns:cc="http://creativecommons.org/ns#"
   xmlns:rdf="http://www.w3.org/1999/02/22-rdf-syntax-ns#"
   xmlns:svg="http://www.w3.org/2000/svg"
   xmlns="http://www.w3.org/2000/svg"
   xmlns:sodipodi="http://sodipodi.sourceforge.net/DTD/sodipodi-0.dtd"
   xmlns:inkscape="http://www.inkscape.org/namespaces/inkscape"
   width="48"
   height="48"
   id="svg9376"
   version="1.1"
   inkscape:version="0.91pre2 r13638"
   viewBox="0 0 48 48"
   sodipodi:docname="location.svg">
  <defs
     id="defs9378" />
  <sodipodi:namedview
     id="base"
     pagecolor="#ffffff"
     bordercolor="#666666"
     borderopacity="1.0"
     inkscape:pageopacity="0.0"
     inkscape:pageshadow="2"
     inkscape:zoom="16.618235"
     inkscape:cx="27.233578"
     inkscape:cy="13.385565"
     inkscape:current-layer="layer1"
     showgrid="true"
     inkscape:grid-bbox="true"
     inkscape:document-units="px" />
  <metadata
     id="metadata9381">
    <rdf:RDF>
      <cc:Work
         rdf:about="">
        <dc:format>image/svg+xml</dc:format>
        <dc:type
           rdf:resource="http://purl.org/dc/dcmitype/StillImage" />
        <dc:title />
      </cc:Work>
    </rdf:RDF>
  </metadata>
  <g
     id="layer1"
     inkscape:label="Layer 1"
     inkscape:groupmode="layer">
    <path
       style="color:#000000;font-style:normal;font-variant:normal;font-weight:normal;font-stretch:normal;font-size:medium;line-height:normal;font-family:sans-serif;text-indent:0;text-align:start;text-decoration:none;text-decoration-line:none;text-decoration-style:solid;text-decoration-color:#000000;letter-spacing:normal;word-spacing:normal;text-transform:none;direction:ltr;block-progression:tb;writing-mode:lr-tb;baseline-shift:baseline;text-anchor:start;white-space:normal;clip-rule:nonzero;display:inline;overflow:visible;visibility:visible;opacity:1;isolation:auto;mix-blend-mode:normal;color-interpolation:sRGB;color-interpolation-filters:linearRGB;solid-color:#000000;solid-opacity:1;fill:#000000;fill-opacity:1;fill-rule:evenodd;stroke:none;stroke-width:4;stroke-linecap:butt;stroke-linejoin:round;stroke-miterlimit:4;stroke-dasharray:none;stroke-dashoffset:0;stroke-opacity:1;color-rendering:auto;image-rendering:auto;shape-rendering:auto;text-rendering:auto;enable-background:accumulate"
       d="m 5.9882812,2.0039062 a 2.0002,2.0002 0 0 0 -2,2 l 0,23.9804688 a 2.0002,2.0002 0 0 0 2,2 l 11.1796878,0 5.417969,5.417969 a 2.0002,2.0002 0 0 0 2.828124,0 l 5.417969,-5.417969 11.179688,0 a 2.0002,2.0002 0 0 0 2,-2 l 0,-23.9804688 a 2.0002,2.0002 0 0 0 -2,-2 l -36.0234378,0 z m 2,4 32.0234378,0 0,19.9804688 -10.007813,0 a 2.0002,2.0002 0 0 0 -1.414062,0.585937 L 24,31.160156 19.410156,26.570312 a 2.0002,2.0002 0 0 0 -1.414062,-0.585937 l -10.0078128,0 0,-19.9804688 z"
       id="path4424-7"
       inkscape:connector-curvature="0" />
    <circle
       style="color:#000000;display:inline;overflow:visible;visibility:visible;opacity:1;fill:#000000;fill-opacity:1;fill-rule:nonzero;stroke:none;stroke-width:4;stroke-linecap:round;stroke-linejoin:round;stroke-miterlimit:4;stroke-dasharray:none;stroke-dashoffset:0;stroke-opacity:1;marker:none;enable-background:accumulate"
       id="path4426-0"
       cx="23.99999"
       cy="15.977206"
       r="4.1465564" />
    <path
       style="color:#000000;display:inline;overflow:visible;visibility:visible;opacity:1;fill:#000000;fill-opacity:1;fill-rule:nonzero;stroke:none;stroke-width:4;stroke-linecap:round;stroke-linejoin:round;stroke-miterlimit:4;stroke-dasharray:none;stroke-dashoffset:0;stroke-opacity:1;marker:none;enable-background:accumulate"
       d="M 19.894531 34.154297 A 18.011779 6.0039262 0 0 0 5.9882812 39.992188 A 18.011779 6.0039262 0 0 0 24 45.996094 A 18.011779 6.0039262 0 0 0 42.011719 39.992188 A 18.011779 6.0039262 0 0 0 28.101562 34.158203 L 28.064453 34.195312 A 13.633692 4.544564 0 0 1 37.632812 38.533203 A 13.633692 4.544564 0 0 1 24 43.078125 A 13.633692 4.544564 0 0 1 10.367188 38.533203 A 13.633692 4.544564 0 0 1 19.939453 34.199219 L 19.894531 34.154297 z "
       id="path4428-5" />
  </g>
</svg>
