<?xml version="1.0" encoding="UTF-8" standalone="no"?>
<!-- Created with Inkscape (http://www.inkscape.org/) -->

<svg
   xmlns:dc="http://purl.org/dc/elements/1.1/"
   xmlns:cc="http://creativecommons.org/ns#"
   xmlns:rdf="http://www.w3.org/1999/02/22-rdf-syntax-ns#"
   xmlns:svg="http://www.w3.org/2000/svg"
   xmlns="http://www.w3.org/2000/svg"
   xmlns:sodipodi="http://sodipodi.sourceforge.net/DTD/sodipodi-0.dtd"
   xmlns:inkscape="http://www.inkscape.org/namespaces/inkscape"
   width="48"
   height="48"
   id="svg9376"
   version="1.1"
   inkscape:version="0.91pre2 r13638"
   viewBox="0 0 48 48"
   sodipodi:docname="location.svg">
  <defs
     id="defs9378">
    <inkscape:path-effect
       effect="skeletal"
       id="path-effect4207"
       is_visible="true"
       pattern="m 0,2.0034462 c 8.2545882,-1.38781203 16.629761,-2.05782503 25,-2.00000003 7.703585,0.05322 15.40285,0.722721 22.999995,1.99999903 2e-6,1e-6 3e-6,1e-6 5e-6,1e-6 -7.616432,1.255648 -15.33155,1.912337 -23.050632,1.962007 C 16.597386,4.0191952 8.2409162,3.3620462 0,2.0034462 Z"
       copytype="single_stretched"
       prop_scale="1"
       scale_y_rel="false"
       spacing="0"
       normal_offset="0"
       tang_offset="0"
       prop_units="false"
       vertical_pattern="false"
       fuse_tolerance="0" />
    <inkscape:path-effect
       effect="spiro"
       id="path-effect4205"
       is_visible="true" />
    <inkscape:path-effect
       effect="skeletal"
       id="path-effect4191"
       is_visible="true"
       pattern="M 0,0 1,0"
       copytype="single_stretched"
       prop_scale="1"
       scale_y_rel="false"
       spacing="0"
       normal_offset="0"
       tang_offset="0"
       prop_units="false"
       vertical_pattern="false"
       fuse_tolerance="0" />
    <inkscape:path-effect
       effect="spiro"
       id="path-effect4189"
       is_visible="true" />
    <inkscape:path-effect
       effect="skeletal"
       id="path-effect4143"
       is_visible="true"
       pattern="M 0,0 1,0"
       copytype="single_stretched"
       prop_scale="1"
       scale_y_rel="false"
       spacing="0"
       normal_offset="0"
       tang_offset="0"
       prop_units="false"
       vertical_pattern="false"
       fuse_tolerance="0" />
    <inkscape:path-effect
       effect="spiro"
       id="path-effect4141"
       is_visible="true" />
  </defs>
  <sodipodi:namedview
     id="base"
     pagecolor="#ffffff"
     bordercolor="#666666"
     borderopacity="1.0"
     inkscape:pageopacity="0.0"
     inkscape:pageshadow="2"
     inkscape:zoom="16"
     inkscape:cx="24.954843"
     inkscape:cy="21.694408"
     inkscape:current-layer="layer1"
     showgrid="true"
     inkscape:grid-bbox="true"
     inkscape:document-units="px">
    <inkscape:grid
       type="xygrid"
       id="grid4137" />
  </sodipodi:namedview>
  <metadata
     id="metadata9381">
    <rdf:RDF>
      <cc:Work
         rdf:about="">
        <dc:format>image/svg+xml</dc:format>
        <dc:type
           rdf:resource="http://purl.org/dc/dcmitype/StillImage" />
        <dc:title />
      </cc:Work>
    </rdf:RDF>
  </metadata>
  <g
     id="layer1"
     inkscape:label="Layer 1"
     inkscape:groupmode="layer">
    <path
       style="color:#000000;font-style:normal;font-variant:normal;font-weight:normal;font-stretch:normal;font-size:medium;line-height:normal;font-family:sans-serif;text-indent:0;text-align:start;text-decoration:none;text-decoration-line:none;text-decoration-style:solid;text-decoration-color:#000000;letter-spacing:normal;word-spacing:normal;text-transform:none;direction:ltr;block-progression:tb;writing-mode:lr-tb;baseline-shift:baseline;text-anchor:start;white-space:normal;clip-rule:nonzero;display:inline;overflow:visible;visibility:visible;opacity:1;isolation:auto;mix-blend-mode:normal;color-interpolation:sRGB;color-interpolation-filters:linearRGB;solid-color:#000000;solid-opacity:1;fill:#000000;fill-opacity:1;fill-rule:evenodd;stroke:none;stroke-width:4;stroke-linecap:butt;stroke-linejoin:round;stroke-miterlimit:4;stroke-dasharray:none;stroke-dashoffset:0;stroke-opacity:1;color-rendering:auto;image-rendering:auto;shape-rendering:auto;text-rendering:auto;enable-background:accumulate"
       d="M 7.9882812 4.0039062 C 6.8837575 4.0040166 5.9883916 4.8993825 5.9882812 6.0039062 L 5.9882812 27.984375 C 5.9883916 29.088899 6.8837575 29.984265 7.9882812 29.984375 L 17.167969 29.984375 L 22.585938 35.402344 C 23.366998 36.18308 24.633003 36.18308 25.414062 35.402344 L 30.832031 29.984375 L 40.011719 29.984375 C 41.116243 29.984265 42.011609 29.088899 42.011719 27.984375 L 42.011719 6.0039062 C 42.011609 4.8993825 41.116243 4.0040166 40.011719 4.0039062 L 7.9882812 4.0039062 z M 11 8 L 37 8 A 1.0001 1.0001 0 0 1 37.998047 8.9824219 L 38.011719 8.9941406 L 38.011719 25.025391 L 37.998047 25.037109 A 1.0001 1.0001 0 0 1 37 26 L 29.847656 26 C 29.374933 26.037431 28.927549 26.232563 28.589844 26.570312 L 24 31.160156 L 19.410156 26.570312 C 19.072451 26.232563 18.625067 26.037431 18.152344 26 L 11 26 A 1.0001 1.0001 0 0 1 10.001953 25.025391 L 9.9882812 25.013672 L 9.9882812 9.0136719 L 10 9.0019531 L 10 9 A 1.0001 1.0001 0 0 1 11 8 z "
       id="path4424-7" />
    <circle
       style="color:#000000;display:inline;overflow:visible;visibility:visible;opacity:1;fill:#000000;fill-opacity:1;fill-rule:nonzero;stroke:none;stroke-width:4;stroke-linecap:round;stroke-linejoin:round;stroke-miterlimit:4;stroke-dasharray:none;stroke-dashoffset:0;stroke-opacity:1;marker:none;enable-background:accumulate"
       id="path4426-0"
       cx="23.99999"
       cy="17.977207"
       r="4.1465564" />
    <path
       style="fill:#000000;fill-rule:evenodd;stroke:none;stroke-width:1px;stroke-linecap:butt;stroke-linejoin:miter;stroke-opacity:1"
       d="M 28.75 34.25 L 17.414062 45.585938 A 18 5.9873228 0 0 0 19.216797 45.783203 L 30.550781 34.449219 A 18 5.9873228 0 0 0 28.75 34.25 z M 18.710938 34.289062 A 18 5.9873228 0 0 0 16.419922 34.580078 L 8.1328125 42.867188 A 18 5.9873228 0 0 0 9.4472656 43.552734 L 18.710938 34.289062 z M 32.287109 34.712891 L 21.082031 45.917969 A 18 5.9873228 0 0 0 23.015625 45.984375 L 33.958984 35.041016 A 18 5.9873228 0 0 0 32.287109 34.712891 z M 20.091797 34.908203 L 10.873047 44.126953 A 18 5.9873228 0 0 0 12.394531 44.605469 L 21.091797 35.908203 L 20.091797 34.908203 z M 13.966797 35.033203 A 18 5.9873228 0 0 0 11.220703 35.779297 L 6.1386719 40.861328 A 18 5.9873228 0 0 0 6.9882812 42.011719 L 13.966797 35.033203 z M 35.558594 35.441406 L 25.013672 45.986328 A 18 5.9873228 0 0 0 27.095703 45.904297 L 37.074219 35.925781 A 18 5.9873228 0 0 0 35.558594 35.441406 z M 38.496094 36.503906 L 29.275391 45.724609 A 18 5.9873228 0 0 0 31.572266 45.427734 L 39.804688 37.195312 A 18 5.9873228 0 0 0 38.496094 36.503906 z M 22.091797 36.908203 L 13.998047 45.001953 A 18 5.9873228 0 0 0 15.673828 45.326172 L 23.1875 37.8125 A 2.0002 2.0002 0 0 1 22.585938 37.402344 L 22.091797 36.908203 z M 40.935547 38.064453 L 34.039062 44.960938 A 18 5.9873228 0 0 0 36.810547 44.189453 L 41.763672 39.236328 A 18 5.9873228 0 0 0 40.935547 38.064453 z "
       id="path4139" />
  </g>
</svg>
