<?xml version="1.0" encoding="UTF-8" standalone="no"?>
<!-- Created with Inkscape (http://www.inkscape.org/) -->

<svg
   xmlns:dc="http://purl.org/dc/elements/1.1/"
   xmlns:cc="http://creativecommons.org/ns#"
   xmlns:rdf="http://www.w3.org/1999/02/22-rdf-syntax-ns#"
   xmlns:svg="http://www.w3.org/2000/svg"
   xmlns="http://www.w3.org/2000/svg"
   xmlns:sodipodi="http://sodipodi.sourceforge.net/DTD/sodipodi-0.dtd"
   xmlns:inkscape="http://www.inkscape.org/namespaces/inkscape"
   width="48"
   height="48"
   id="svg4353"
   version="1.1"
   inkscape:version="0.91pre2 r13638"
   viewBox="0 0 48 48"
   sodipodi:docname="logo-small.svg">
  <defs
     id="defs4355">
    <inkscape:path-effect
       effect="skeletal"
       id="path-effect4153"
       is_visible="true"
       pattern="M 2,1 A 1,1 0 0 1 1,2 1,1 0 0 1 0,1 1,1 0 0 1 1,0 1,1 0 0 1 2,1 Z"
       copytype="single_stretched"
       prop_scale="2"
       scale_y_rel="false"
       spacing="0"
       normal_offset="0"
       tang_offset="0"
       prop_units="false"
       vertical_pattern="false"
       fuse_tolerance="0" />
    <inkscape:path-effect
       effect="spiro"
       id="path-effect4139"
       is_visible="true" />
  </defs>
  <sodipodi:namedview
     id="base"
     pagecolor="#ffffff"
     bordercolor="#666666"
     borderopacity="1.0"
     inkscape:pageopacity="0.0"
     inkscape:pageshadow="2"
     inkscape:zoom="19.774672"
     inkscape:cx="7.1293176"
     inkscape:cy="20.655479"
     inkscape:current-layer="layer1"
     showgrid="true"
     inkscape:grid-bbox="true"
     inkscape:document-units="px">
    <inkscape:grid
       type="xygrid"
       id="grid4135" />
  </sodipodi:namedview>
  <metadata
     id="metadata4358">
    <rdf:RDF>
      <cc:Work
         rdf:about="">
        <dc:format>image/svg+xml</dc:format>
        <dc:type
           rdf:resource="http://purl.org/dc/dcmitype/StillImage" />
        <dc:title></dc:title>
      </cc:Work>
    </rdf:RDF>
  </metadata>
  <g
     id="layer1"
     inkscape:label="Layer 1"
     inkscape:groupmode="layer">
    <path
       style="display:inline;fill:#000000;fill-opacity:1;fill-rule:evenodd;stroke:none;stroke-width:1px;stroke-linecap:butt;stroke-linejoin:miter;stroke-opacity:1"
       d="m 25.628328,2.2537203 c -2.043095,-0.067726 -4.049883,1.5456584 -4.279863,3.6038271 -0.143839,1.1178178 0.25926,2.3905857 1.261243,2.9963364 0.388765,0.2366476 1.023729,0.024101 1.052195,-0.4706013 0.131189,-0.7235497 0.167213,-1.0510294 0.753635,-1.5794876 0.604452,-0.600285 1.695499,-0.6743329 2.304318,-0.039382 0.584519,0.536705 0.745441,0.8584357 0.775228,1.6177406 0.0605,0.4594288 0.634968,0.7598895 1.03348,0.5002565 C 29.399793,8.4848358 29.793645,7.4846672 29.874415,6.5847119 29.997334,4.9542369 28.976827,3.3476648 27.497264,2.6827163 26.915508,2.4059739 26.272898,2.25595 25.628328,2.2537203 Z"
       id="path4151"
       inkscape:connector-curvature="0"
       sodipodi:nodetypes="ccccccccccc" />
    <path
       style="display:inline;fill:#000000;fill-opacity:1;fill-rule:evenodd;stroke:none;stroke-width:1px;stroke-linecap:butt;stroke-linejoin:miter;stroke-opacity:1"
       d="m 33.595704,7.1228103 a 2.0898854,1.9072677 31.456122 0 0 -1.50755,0.77987 2.0898854,1.9072677 31.456122 0 0 0.632822,2.7422597 2.0898854,1.9072677 31.456122 0 0 2.817712,-0.38709 2.0898854,1.9072677 31.456122 0 0 -0.634764,-2.7421597 2.0898854,1.9072677 31.456122 0 0 -1.30822,-0.39288 z"
       id="path4149" />
    <path
       style="display:inline;fill:#000000;fill-opacity:1;fill-rule:evenodd;stroke:none;stroke-width:1px;stroke-linecap:butt;stroke-linejoin:miter;stroke-opacity:1"
       d="m 37.907415,11.88924 a 1.7368243,1.5937336 46.065829 0 0 -1.052771,0.35224 1.7368243,1.5937336 46.065829 0 0 -0.08709,2.34166 1.7368243,1.5937336 46.065829 0 0 2.351319,0.29024 1.7368243,1.5937336 46.065829 0 0 0.08709,-2.34354 1.7368243,1.5937336 46.065829 0 0 -1.298552,-0.6406 z"
       id="path4145" />
    <path
       style="display:inline;fill:#000000;fill-opacity:1;fill-rule:evenodd;stroke:none;stroke-width:1px;stroke-linecap:butt;stroke-linejoin:miter;stroke-opacity:1"
       d="m 39.923942,17.16284 a 1.3941141,1.2860894 61.653093 0 0 -0.501228,0.11412 1.3941141,1.2860894 61.653093 0 0 -0.561215,1.80363 1.3941141,1.2860894 61.653093 0 0 1.766868,0.71024 1.3941141,1.2860894 61.653093 0 0 0.56122,-1.80365 1.3941141,1.2860894 61.653093 0 0 -1.265645,-0.82434 z"
       id="path4143" />
    <path
       style="display:inline;fill:#000000;fill-opacity:1;fill-rule:evenodd;stroke:none;stroke-width:1px;stroke-linecap:butt;stroke-linejoin:miter;stroke-opacity:1"
       d="m 39.885192,21.87704 a 1.0599957,0.98139237 78.210238 0 0 -0.195452,0.0138 1.0599957,0.98139237 78.210238 0 0 -0.772166,1.21728 1.0599957,0.98139237 78.210238 0 0 1.159207,0.86695 1.0599957,0.98139237 78.210238 0 0 0.772166,-1.21722 1.0599957,0.98139237 78.210238 0 0 -0.963755,-0.88056 z"
       id="path5224-9-9" />
    <path
       style="fill:#000000;fill-rule:evenodd;stroke:none;stroke-width:4;stroke-linecap:round;stroke-linejoin:miter;stroke-miterlimit:4;stroke-dasharray:none;stroke-opacity:1"
       d="m 25.140314,22.902763 c -0.179348,-0.120006 0.311323,1.039739 -1.47928,1.287473 -0.626978,0.07715 -1.482291,-0.09824 -2.149326,-0.794066 0,-1e-6 -2e-6,-1e-6 -2e-6,-1e-6 -0.495878,-0.520883 -0.861464,-1.270962 -0.902371,-2.147282 -0.04809,-0.998117 0.286204,-2.127372 1.128638,-3.027642 2e-6,0 3e-6,-3e-6 3e-6,-3e-6 0.714012,-0.757742 1.725927,-1.31759 2.903332,-1.471024 1.591482,-0.199291 3.387511,0.315016 4.712979,1.669129 1.144911,1.18395 1.85091,2.869426 1.786052,4.701314 -0.07324,1.885262 -0.914481,3.789452 -2.469997,5.162135 -1.42852,1.250338 -3.328649,1.994554 -5.352731,1.992953 -2.348957,-0.0089 -4.716035,-0.976714 -6.450708,-2.796722 -1.619974,-1.71358 -2.596343,-4.033214 -2.648997,-6.498699 -0.05008,-2.908428 1.142389,-5.809927 3.346093,-7.888759 2.123431,-1.986182 4.991683,-3.1033564 7.956824,-3.074109 3.304393,0.04431 6.502455,1.454517 8.798615,3.861835 1.07178,1.131132 1.923877,2.440021 2.533607,3.851444 0.676288,1.565492 1.052612,3.252931 1.102504,4.957968 0.113333,3.940691 -1.496627,7.761054 -4.297749,10.405604 -2.920587,2.732951 -6.887427,3.970755 -10.649429,3.550515 -2.076363,-0.259916 -3.933553,-0.922725 -5.490711,-1.353429 -1.68344,-0.412118 -3.188708,-0.70748 -4.439379,-0.348895 -1.037896,0.250381 -1.993862,0.885539 -2.612056,1.69656 -0.6627117,0.858902 -1.0000499,1.973403 -0.9556002,2.998319 0.04587,0.994272 0.4197242,1.957262 1.0230442,2.614632 0.648137,0.717402 1.587779,1.160965 2.445605,1.177366 0.770394,0.02378 1.54119,-0.249084 2.058976,-0.703001 0.589083,-0.505297 0.93781,-1.268617 0.952375,-1.947757 0,0 0,-2e-6 0,-2e-6 0.0153,-0.593976 -0.177352,-1.16838 -0.501839,-1.555408 -0.380237,-0.46397 -0.95101,-0.728527 -1.442442,-0.74221 -0.255333,-0.0084 -0.49125,0.0284 -0.687066,0.112019 -0.22558,0.09565 -0.411608,0.240594 -0.52927,0.406214 -0.187498,0.250908 -0.238859,0.576451 -0.214417,0.824662 0,0 0,1e-6 0,1e-6 0.06584,0.720582 0.491848,0.833085 0.384409,1.028489 0.01754,-0.03189 -0.640644,0.231696 -1.109209,-0.804974 10e-7,-1e-6 0,-1e-6 0,-1e-6 -0.168077,-0.376178 -0.255461,-0.936844 -0.01282,-1.531575 0.159734,-0.380454 0.441646,-0.749629 0.849381,-1.018862 0.349464,-0.230657 0.768028,-0.391625 1.226307,-0.446165 0.90081,-0.10396 1.963346,0.159075 2.797508,0.950249 0.687949,0.658746 1.179847,1.607225 1.25821,2.701906 -1e-6,0 1e-6,3e-6 1e-6,3e-6 0.08721,1.256985 -0.339061,2.632564 -1.365904,3.686549 -0.906545,0.920868 -2.187745,1.536314 -3.622745,1.595729 -1.596048,0.05625 -3.2525983,-0.537536 -4.5030878,-1.772241 -1.131031,-1.125642 -1.8755397,-2.661757 -2.028263,-4.352057 -0.1599841,-1.737251 0.2792933,-3.568625 1.3557537,-5.116151 1.0162954,-1.45067 2.5365641,-2.573768 4.3458231,-3.091452 2.156164,-0.560575 4.292422,-0.342217 6.211905,0.163566 1.784249,0.420437 3.501201,1.0067 4.99333,1.120298 2.649222,0.250421 5.568561,-0.735653 7.571357,-2.676695 1.942667,-1.858929 3.098638,-4.69339 2.998557,-7.444572 -0.0426,-1.195144 -0.314425,-2.397097 -0.788129,-3.503352 -0.427111,-0.997444 -1.017676,-1.915535 -1.750552,-2.679963 -1.544495,-1.626791 -3.786073,-2.653432 -5.959634,-2.683008 -1.945696,-0.03699 -3.92981,0.682259 -5.297983,1.943607 -1.422784,1.294128 -2.293176,3.226048 -2.286569,5.043148 -0.0046,1.543577 0.571365,3.091864 1.541559,4.16635 1.018699,1.14383 2.524022,1.85424 3.942781,1.902836 1.224156,0.04807 2.453919,-0.34378 3.325062,-1.048775 0.947672,-0.75553 1.566434,-1.903804 1.661327,-2.993638 0.09839,-1.053372 -0.234072,-2.126143 -0.843488,-2.83442 -0.682053,-0.811794 -1.747703,-1.258229 -2.657481,-1.212898 -0.682489,0.0282 -1.325895,0.279191 -1.771658,0.666286 0,0 -1e-6,2e-6 -1e-6,2e-6 -0.525427,0.449476 -0.835379,1.089231 -0.881554,1.664857 -0.03961,0.505554 0.0768,0.974852 0.304494,1.30596 0,0 1e-6,0 1e-6,0 0.29455,0.437906 0.749905,0.677561 1.126714,0.722139 1.166932,0.170446 1.16834,-0.600468 1.509324,-0.372309 z"
       id="path4137" />
  </g>
</svg>
