<?xml version="1.0" encoding="UTF-8" standalone="no"?>
<!-- Created with Inkscape (http://www.inkscape.org/) -->

<svg
   xmlns:dc="http://purl.org/dc/elements/1.1/"
   xmlns:cc="http://creativecommons.org/ns#"
   xmlns:rdf="http://www.w3.org/1999/02/22-rdf-syntax-ns#"
   xmlns:svg="http://www.w3.org/2000/svg"
   xmlns="http://www.w3.org/2000/svg"
   xmlns:sodipodi="http://sodipodi.sourceforge.net/DTD/sodipodi-0.dtd"
   xmlns:inkscape="http://www.inkscape.org/namespaces/inkscape"
   width="48"
   height="48"
   id="svg4353"
   version="1.1"
   inkscape:version="0.91pre2 r13638"
   viewBox="0 0 48 48"
   sodipodi:docname="app.svg">
  <defs
     id="defs4355" />
  <sodipodi:namedview
     id="base"
     pagecolor="#ffffff"
     bordercolor="#666666"
     borderopacity="1.0"
     inkscape:pageopacity="0.0"
     inkscape:pageshadow="2"
     inkscape:zoom="11.765318"
     inkscape:cx="9.4975208"
     inkscape:cy="22.00145"
     inkscape:current-layer="layer1"
     showgrid="true"
     inkscape:grid-bbox="true"
     inkscape:document-units="px" />
  <metadata
     id="metadata4358">
    <rdf:RDF>
      <cc:Work
         rdf:about="">
        <dc:format>image/svg+xml</dc:format>
        <dc:type
           rdf:resource="http://purl.org/dc/dcmitype/StillImage" />
        <dc:title></dc:title>
      </cc:Work>
    </rdf:RDF>
  </metadata>
  <g
     id="layer1"
     inkscape:label="Layer 1"
     inkscape:groupmode="layer">
    <path
       inkscape:connector-curvature="0"
       id="path5224-9-9"
       d="m 25.628328,2.2537203 c -0.166524,0 -0.333959,0.01 -0.499297,0.0248 -0.905475,0.0981 -1.706927,0.46057 -2.339709,0.98696 -0.704279,0.58959 -1.135172,1.32976 -1.335312,2.06493 -0.242401,0.90052 -0.120144,1.71546 0.137402,2.31653 0.607469,1.40865 1.604019,1.41408 1.84815,1.19595 0.313129,-0.27986 0.24148,-0.99246 0.441234,-1.61599 0.09017,-0.28584 0.23683,-0.58479 0.431559,-0.80693 0.155156,-0.18004 0.361542,-0.34572 0.567029,-0.44321 0.181304,-0.0892 0.407366,-0.15232 0.609598,-0.1645 0.03708,0 0.0751,0 0.114182,0 0.188059,0 0.389549,0.0396 0.555404,0.10068 0.223852,0.0783 0.460869,0.23852 0.634765,0.4141 0.218489,0.21542 0.388848,0.52644 0.491548,0.82445 0.228325,0.64892 0.135416,1.42537 0.45672,1.71852 0.235827,0.21513 1.35797,0.22552 1.941043,-1.38181 0.245053,-0.68209 0.311232,-1.59426 -0.06381,-2.55648 -0.310874,-0.78853 -0.893542,-1.53988 -1.764941,-2.05905 -0.653239,-0.38564 -1.414743,-0.61037 -2.225518,-0.61541 z m 7.967376,4.86909 a 2.0898854,1.9072677 31.456122 0 0 -1.50755,0.77987 2.0898854,1.9072677 31.456122 0 0 0.632822,2.7422597 2.0898854,1.9072677 31.456122 0 0 2.817712,-0.38709 2.0898854,1.9072677 31.456122 0 0 -0.634764,-2.7421597 2.0898854,1.9072677 31.456122 0 0 -1.30822,-0.39288 z M 25.905057,10.88683 c -0.735314,-0.0287 -1.485979,0.0158 -2.239068,0.14515 -2.599247,0.46071 -5.082546,1.93809 -6.709482,4.22651 -1.534321,2.17137 -2.189971,4.94303 -1.712682,7.62684 0.390559,2.21196 1.571645,4.28838 3.380865,5.70895 1.831149,1.42976 4.234736,2.04687 6.506271,1.61594 1.960008,-0.38601 3.671995,-1.54641 4.735536,-3.12925 1.103227,-1.65345 1.436742,-3.66633 1.025681,-5.48451 -0.341057,-1.51969 -1.213374,-2.86049 -2.422931,-3.74273 -1.308543,-0.94911 -2.945545,-1.25658 -4.402666,-0.91155 -1.25649,0.30513 -2.29001,1.09237 -2.898989,2.08819 -0.677414,1.11686 -0.76413,2.41852 -0.398662,3.49114 0.287256,0.84112 0.852931,1.51469 1.53465,1.92557 0.799086,0.47889 1.705729,0.54297 2.442268,0.31925 0.299109,-0.0922 0.571262,-0.23521 0.801197,-0.41603 0.253817,-0.19959 0.444396,-0.44627 0.568954,-0.71024 0.141581,-0.30035 0.185309,-0.61532 0.150956,-0.89987 -0.04172,-0.34146 -0.199122,-0.62155 -0.390917,-0.81668 -0.220731,-0.22224 -0.480671,-0.32497 -0.690889,-0.35997 -0.536541,-0.0883 -0.711562,0.1642 -0.712169,0.16262 0.02904,0.0802 0.246859,-0.0357 0.636696,0.12184 0.151653,0.0615 0.324594,0.17161 0.448975,0.34641 0.109403,0.15142 0.18262,0.35807 0.181917,0.58448 -1.08e-4,0.18938 -0.05647,0.39633 -0.170308,0.58444 -0.100332,0.16612 -0.249988,0.31676 -0.435424,0.43735 -0.168662,0.10977 -0.368989,0.19094 -0.590244,0.23997 -0.537059,0.12134 -1.198842,0.01 -1.739781,-0.36768 -0.467095,-0.32028 -0.840739,-0.84861 -1.016002,-1.46888 -0.222652,-0.785 -0.08859,-1.75386 0.431549,-2.51767 0.461558,-0.68618 1.259174,-1.22144 2.153927,-1.39731 1.031299,-0.21185 2.239344,0.0903 3.152507,0.80119 0.855444,0.6606 1.46261,1.7098 1.685589,2.85454 0.262122,1.36138 -0.05489,2.90334 -0.905689,4.08523 -0.804979,1.12914 -2.127438,1.96373 -3.545352,2.19652 -1.622558,0.28326 -3.434054,-0.2496 -4.756821,-1.32752 -1.311365,-1.06011 -2.177071,-2.6952 -2.448085,-4.39502 -0.319252,-2.02392 0.228784,-4.19134 1.430144,-5.81148 1.222954,-1.66286 3.150879,-2.79526 5.11677,-3.1041 0.553058,-0.0911 1.116747,-0.11724 1.673987,-0.0852 1.280441,0.0733 3.233908,0.47749 5.000658,1.85782 1.737356,1.34703 3.121606,3.57437 3.467953,6.16184 0.321058,2.38239 -0.282124,4.81591 -1.476587,6.74426 -1.505298,2.43691 -3.730631,3.80344 -5.376098,4.43564 -0.03578,0.0138 -0.07045,0.0267 -0.106443,0.0405 -2.471289,0.93445 -5.295804,0.9509 -8.186053,0.51858 -1.142327,-0.17726 -2.328773,-0.43138 -3.599558,-0.55733 -1.284923,-0.13555 -2.650613,-0.0911 -3.998197,0.32707 -1.8576039,0.5976 -3.3844129,1.93245 -4.2072199,3.64602 -0.875263,1.84908 -0.816448,3.94375 0.01929,5.66254 0.474268,0.9636 1.180038,1.75746 2.006847,2.33195 0.435694,0.30273 0.9050129,0.54576 1.3972499,0.72761 1.594424,0.57994 3.284058,0.41781 4.64651,-0.27865 1.179822,-0.60844 2.033858,-1.6104 2.467433,-2.74415 0.484025,-1.2868 0.345575,-2.63602 -0.220623,-3.72349 -0.506566,-0.964 -1.350804,-1.63953 -2.293254,-1.96422 -1.105753,-0.3721 -2.227157,-0.17212 -3.078966,0.35809 -0.703073,0.44746 -1.150697,1.11132 -1.346932,1.80551 -0.232097,0.84302 -0.04449,1.64619 0.330934,2.24482 0.315461,0.52952 0.838598,0.86346 1.393373,1.00256 0.339301,0.0743 0.674199,0.0436 0.971478,-0.0565 0.361542,-0.12234 0.628195,-0.35652 0.80506,-0.61542 0.210983,-0.32023 0.255265,-0.64794 0.234168,-0.9018 -0.06004,-0.67366 -0.435008,-0.75443 -0.41801,-0.76828 -0.07609,0.0625 0.158062,0.25011 0.106442,0.77022 -0.02078,0.20101 -0.09591,0.43661 -0.2748,0.64252 -0.14894,0.16797 -0.356976,0.30331 -0.609603,0.35987 -0.209417,0.0465 -0.43808,0.0406 -0.659909,-0.0307 -0.368707,-0.12297 -0.690045,-0.39902 -0.888281,-0.78571 -0.232872,-0.44904 -0.304914,-1.03526 -0.106442,-1.59853 0.166251,-0.47077 0.519109,-0.91029 1.012122,-1.18624 0.124114,-0.0695 0.254738,-0.12791 0.392861,-0.17419 -0.13491,0.0565 -0.261017,0.12408 -0.377372,0.20122 -0.47187,0.31261 -0.764851,0.76753 -0.872792,1.20381 -0.136806,0.5503 0.0078,1.06437 0.236097,1.38943 0.221879,0.30975 0.499305,0.46553 0.723783,0.48572 0.157067,0.0178 0.284707,-0.0169 0.367692,-0.0633 0.161751,-0.0922 0.180622,-0.20463 0.168373,-0.24584 -0.01045,-0.0367 -0.03796,-0.0495 -0.07163,-0.0545 -0.01494,0 -0.136113,0 -0.191593,-0.01 -0.04241,-0.01 -0.09957,-0.0258 -0.160626,-0.0605 -0.09402,-0.0367 -0.190496,-0.16726 -0.296092,-0.3657 -0.09889,-0.21453 -0.122122,-0.549 -0.0019,-0.84568 0.09106,-0.23873 0.31036,-0.48661 0.596047,-0.63675 0.325613,-0.18182 0.841964,-0.21557 1.283062,-0.0368 0.384667,0.14781 0.759374,0.50987 0.97537,0.96366 0.245448,0.50527 0.266118,1.22075 0.0078,1.83656 -0.224584,0.55286 -0.725185,1.07426 -1.354671,1.37984 -0.719172,0.3551 -1.711737,0.40623 -2.569996,0.0714 C 11.37487,42.86588 11.111808,42.7217 10.86632,42.54029 10.380498,42.1813 9.9749631,41.6956 9.7090531,41.16827 9.1824771,40.14503 9.1671911,38.79784 9.6278131,37.71379 10.08113,36.62008 11.08439,35.66534 12.273285,35.20772 c 0.884783,-0.3555 1.946194,-0.43196 3.073156,-0.39485 1.118931,0.0456 2.219175,0.23002 3.500847,0.36775 2.748737,0.31012 5.985644,0.28167 9.04725,-0.84183 0.04142,-0.0158 0.08254,-0.0307 0.123852,-0.0464 2.272627,-0.87206 4.662234,-2.49111 6.359203,-5.00454 1.533564,-2.2767 2.342351,-5.11664 2.091994,-8.00028 -0.276918,-3.15992 -1.824104,-5.99571 -4.065872,-7.88214 -2.059411,-1.72259 -4.463929,-2.43876 -6.498545,-2.51973 z m 12.002358,1.00241 a 1.7368243,1.5937336 46.065829 0 0 -1.052771,0.35224 1.7368243,1.5937336 46.065829 0 0 -0.08709,2.34166 1.7368243,1.5937336 46.065829 0 0 2.351319,0.29024 1.7368243,1.5937336 46.065829 0 0 0.08709,-2.34354 1.7368243,1.5937336 46.065829 0 0 -1.298552,-0.6406 z m 2.016527,5.2736 a 1.3941141,1.2860894 61.653093 0 0 -0.501228,0.11412 1.3941141,1.2860894 61.653093 0 0 -0.561215,1.80363 1.3941141,1.2860894 61.653093 0 0 1.766868,0.71024 1.3941141,1.2860894 61.653093 0 0 0.56122,-1.80365 1.3941141,1.2860894 61.653093 0 0 -1.265645,-0.82434 z m -0.03875,4.7142 a 1.0599957,0.98139237 78.210238 0 0 -0.195452,0.0138 1.0599957,0.98139237 78.210238 0 0 -0.772166,1.21728 1.0599957,0.98139237 78.210238 0 0 1.159207,0.86695 1.0599957,0.98139237 78.210238 0 0 0.772166,-1.21722 1.0599957,0.98139237 78.210238 0 0 -0.963755,-0.88056 z"
       style="display:inline;fill:#000000;fill-opacity:1;fill-rule:evenodd;stroke:none;stroke-width:1px;stroke-linecap:butt;stroke-linejoin:miter;stroke-opacity:1" />
  </g>
</svg>
