<?xml version="1.0" encoding="UTF-8" standalone="no"?>
<!-- Created with Inkscape (http://www.inkscape.org/) -->

<svg
   xmlns:dc="http://purl.org/dc/elements/1.1/"
   xmlns:cc="http://creativecommons.org/ns#"
   xmlns:rdf="http://www.w3.org/1999/02/22-rdf-syntax-ns#"
   xmlns:svg="http://www.w3.org/2000/svg"
   xmlns="http://www.w3.org/2000/svg"
   xmlns:sodipodi="http://sodipodi.sourceforge.net/DTD/sodipodi-0.dtd"
   xmlns:inkscape="http://www.inkscape.org/namespaces/inkscape"
   width="48"
   height="48"
   id="svg5006"
   version="1.1"
   inkscape:version="0.91pre2 r13638"
   viewBox="0 0 48 48"
   sodipodi:docname="pocket-add.svg">
  <defs
     id="defs5008">
    <inkscape:path-effect
       effect="skeletal"
       id="path-effect4176"
       is_visible="true"
       pattern="M 0,0 1,0"
       copytype="single_stretched"
       prop_scale="1"
       scale_y_rel="false"
       spacing="0"
       normal_offset="0"
       tang_offset="0"
       prop_units="false"
       vertical_pattern="false"
       fuse_tolerance="0" />
    <inkscape:path-effect
       effect="spiro"
       id="path-effect4174"
       is_visible="true" />
    <inkscape:path-effect
       effect="skeletal"
       id="path-effect4170"
       is_visible="true"
       pattern="M 0,0 1,0"
       copytype="single_stretched"
       prop_scale="1"
       scale_y_rel="false"
       spacing="0"
       normal_offset="0"
       tang_offset="0"
       prop_units="false"
       vertical_pattern="false"
       fuse_tolerance="0" />
    <inkscape:path-effect
       effect="spiro"
       id="path-effect4168"
       is_visible="true" />
    <inkscape:path-effect
       fuse_tolerance="0"
       vertical_pattern="false"
       prop_units="false"
       tang_offset="0"
       normal_offset="0"
       spacing="0"
       scale_y_rel="false"
       prop_scale="1"
       copytype="single_stretched"
       pattern="m 0,-2 1,0"
       is_visible="true"
       id="path-effect4164"
       effect="skeletal" />
    <inkscape:path-effect
       is_visible="true"
       id="path-effect4162"
       effect="spiro" />
    <inkscape:path-effect
       effect="skeletal"
       id="path-effect4158"
       is_visible="true"
       pattern="M 0,0 1,0"
       copytype="single_stretched"
       prop_scale="1"
       scale_y_rel="false"
       spacing="0"
       normal_offset="0"
       tang_offset="0"
       prop_units="false"
       vertical_pattern="false"
       fuse_tolerance="0" />
    <inkscape:path-effect
       effect="spiro"
       id="path-effect4156"
       is_visible="true" />
    <inkscape:path-effect
       is_visible="true"
       id="path-effect6781"
       effect="spiro" />
    <inkscape:path-effect
       fuse_tolerance="0"
       vertical_pattern="false"
       prop_units="false"
       tang_offset="0"
       normal_offset="0"
       spacing="0"
       scale_y_rel="false"
       prop_scale="1"
       copytype="single_stretched"
       pattern="m -48,-2.7636719e-5 1,0"
       is_visible="true"
       id="path-effect6783"
       effect="skeletal" />
    <inkscape:path-effect
       effect="spiro"
       id="path-effect6775"
       is_visible="true" />
    <inkscape:path-effect
       effect="skeletal"
       id="path-effect6777"
       is_visible="true"
       pattern="m -48,-1.9116376 1,0"
       copytype="single_stretched"
       prop_scale="1"
       scale_y_rel="false"
       spacing="0"
       normal_offset="0"
       tang_offset="0"
       prop_units="false"
       vertical_pattern="false"
       fuse_tolerance="0" />
  </defs>
  <sodipodi:namedview
     id="base"
     pagecolor="#ffffff"
     bordercolor="#666666"
     borderopacity="1.0"
     inkscape:pageopacity="0.0"
     inkscape:pageshadow="2"
     inkscape:zoom="4.1202981"
     inkscape:cx="-61.049735"
     inkscape:cy="-61.460815"
     inkscape:current-layer="layer1"
     showgrid="true"
     inkscape:grid-bbox="true"
     inkscape:document-units="px"
     units="px">
    <inkscape:grid
       type="xygrid"
       id="grid4268" />
  </sodipodi:namedview>
  <metadata
     id="metadata5011">
    <rdf:RDF>
      <cc:Work
         rdf:about="">
        <dc:format>image/svg+xml</dc:format>
        <dc:type
           rdf:resource="http://purl.org/dc/dcmitype/StillImage" />
        <dc:title />
      </cc:Work>
    </rdf:RDF>
  </metadata>
  <g
     id="layer1"
     inkscape:label="Layer 1"
     inkscape:groupmode="layer"
     transform="translate(0,-2.6226045e-6)">
    <path
       style="color:#000000;font-style:normal;font-variant:normal;font-weight:normal;font-stretch:normal;font-size:medium;line-height:normal;font-family:sans-serif;text-indent:0;text-align:start;text-decoration:none;text-decoration-line:none;text-decoration-style:solid;text-decoration-color:#000000;letter-spacing:normal;word-spacing:normal;text-transform:none;direction:ltr;block-progression:tb;writing-mode:lr-tb;baseline-shift:baseline;text-anchor:start;clip-rule:nonzero;display:inline;overflow:visible;visibility:visible;opacity:1;isolation:auto;mix-blend-mode:normal;color-interpolation:sRGB;color-interpolation-filters:linearRGB;solid-color:#000000;solid-opacity:1;fill:#000000;fill-opacity:1;fill-rule:evenodd;stroke:none;stroke-width:3.37719297;stroke-linecap:butt;stroke-linejoin:round;stroke-miterlimit:4;stroke-dasharray:none;stroke-dashoffset:0;stroke-opacity:1;color-rendering:auto;image-rendering:auto;shape-rendering:auto;text-rendering:auto;enable-background:accumulate"
       d="M 7.0097656 13 C 6.0765457 12.99962 4.999616 14.086311 5 15.019531 L 5 37.988281 C 4.999886 38.716621 5.4433046 39.77118 6.1347656 40 L 23.458984 45.894531 C 23.804524 46.009281 24.177897 46.009281 24.523438 45.894531 L 41.927734 40 C 42.615922 39.76694 42.999828 38.744158 43 38.017578 L 43 20.972656 A 11.5 11.5 0 0 1 41 22.070312 L 41 38 L 24 44 L 7 38 L 7 17.982422 L 27.015625 17.982422 A 11.5 11.5 0 0 1 25.113281 13 L 7.0097656 13 z M 7 15.066406 L 9 15.066406 L 9 16.033203 L 7 16.033203 L 7 15.066406 z M 11 15.091797 L 13 15.091797 L 13 16.033203 L 11 16.033203 L 11 15.091797 z M 15 15.091797 L 17 15.091797 L 17 16.033203 L 15 16.033203 L 15 15.091797 z M 19 15.091797 L 21 15.091797 L 21 16.033203 L 19 16.033203 L 19 15.091797 z M 23 15.091797 L 25 15.091797 L 25 16.033203 L 23 16.033203 L 23 15.091797 z "
       transform="translate(0,2.6226045e-6)"
       id="path7304" />
    <path
       style="fill:#000000;fill-rule:evenodd;stroke:none;stroke-width:1px;stroke-linecap:butt;stroke-linejoin:miter;stroke-opacity:1"
       d="M 40 33 L 37.333984 33.666016 L 31.273438 39.726562 L 33.599609 39 L 34.181641 38.818359 L 40 33 z M 9.5996094 33.400391 L 8 35 L 8 37 L 11.199219 33.800781 L 9.5996094 33.400391 z M 12.800781 34.199219 L 9.5234375 37.476562 L 11.046875 37.953125 L 14.400391 34.599609 L 12.800781 34.199219 z M 34.666016 34.333984 L 32 35 L 25.455078 41.544922 L 27.199219 41 L 28.363281 40.636719 L 34.666016 34.333984 z M 16 35 L 12.572266 38.427734 L 14.095703 38.904297 L 17.599609 35.400391 L 16 35 z M 40 35 L 37.091797 37.908203 L 40 37 L 40 35 z M 29.333984 35.666016 L 26.666016 36.333984 L 21.714844 41.285156 L 23.238281 41.761719 L 29.333984 35.666016 z M 19.199219 35.800781 L 15.619141 39.380859 L 17.142578 39.857422 L 20.800781 36.199219 L 19.199219 35.800781 z M 22.400391 36.599609 L 18.666016 40.333984 L 20.191406 40.808594 L 24 37 L 22.400391 36.599609 z "
       transform="translate(0,2.6226045e-6)"
       id="path4172" />
    <path
       style="opacity:1;fill:#000000;fill-opacity:1;fill-rule:nonzero;stroke:none;stroke-width:4;stroke-linecap:round;stroke-linejoin:round;stroke-miterlimit:4;stroke-dasharray:none;stroke-opacity:1"
       d="m 24,21 a 3,3 0 0 0 -3,3 3,3 0 0 0 3,3 3,3 0 0 0 3,-3 3,3 0 0 0 -3,-3 z m 0.135827,0.930118 a 2.1314279,2.1314279 0 0 1 1.325787,0.463584 2.4989008,2.4989008 0 0 0 -0.555118,-0.06496 2.4989008,2.4989008 0 0 0 -2.500985,2.500984 2.4989008,2.4989008 0 0 0 0.06792,0.563976 2.1314279,2.1314279 0 0 1 -0.466535,-1.334646 2.1314279,2.1314279 0 0 1 2.128937,-2.128936 z"
       id="circle5650"
       inkscape:connector-curvature="0" />
    <path
       style="display:inline;opacity:1;fill:#000000;fill-opacity:1;fill-rule:nonzero;stroke:none;stroke-width:4;stroke-linecap:round;stroke-linejoin:round;stroke-miterlimit:4;stroke-dasharray:none;stroke-dashoffset:0;stroke-opacity:1"
       d="m 37,2.0000026 a 9,8.9999993 0 0 0 -9,9.0000004 9,8.9999993 0 0 0 9,9 9,8.9999993 0 0 0 9,-9 9,8.9999993 0 0 0 -9,-9.0000004 z m -2.109375,3.375 4.21875,0 0,3.515625 3.515625,0 0,4.2187504 -3.515625,0 0,3.515625 -4.21875,0 0,-3.515625 -3.515625,0 0,-4.2187504 3.515625,0 0,-3.515625 z"
       id="path5575"
       inkscape:connector-curvature="0" />
  </g>
</svg>
