<?xml version="1.0" encoding="UTF-8" standalone="no"?>
<!-- Created with Inkscape (http://www.inkscape.org/) -->

<svg
   xmlns:dc="http://purl.org/dc/elements/1.1/"
   xmlns:cc="http://creativecommons.org/ns#"
   xmlns:rdf="http://www.w3.org/1999/02/22-rdf-syntax-ns#"
   xmlns:svg="http://www.w3.org/2000/svg"
   xmlns="http://www.w3.org/2000/svg"
   xmlns:sodipodi="http://sodipodi.sourceforge.net/DTD/sodipodi-0.dtd"
   xmlns:inkscape="http://www.inkscape.org/namespaces/inkscape"
   width="48"
   height="48"
   id="svg5006"
   version="1.1"
   inkscape:version="0.91pre2 r13638"
   viewBox="0 0 48 48"
   sodipodi:docname="pocket.svg">
  <defs
     id="defs5008">
    <inkscape:path-effect
       effect="skeletal"
       id="path-effect4176"
       is_visible="true"
       pattern="M 0,0 1,0"
       copytype="single_stretched"
       prop_scale="1"
       scale_y_rel="false"
       spacing="0"
       normal_offset="0"
       tang_offset="0"
       prop_units="false"
       vertical_pattern="false"
       fuse_tolerance="0" />
    <inkscape:path-effect
       effect="spiro"
       id="path-effect4174"
       is_visible="true" />
    <inkscape:path-effect
       effect="skeletal"
       id="path-effect4170"
       is_visible="true"
       pattern="M 0,0 1,0"
       copytype="single_stretched"
       prop_scale="1"
       scale_y_rel="false"
       spacing="0"
       normal_offset="0"
       tang_offset="0"
       prop_units="false"
       vertical_pattern="false"
       fuse_tolerance="0" />
    <inkscape:path-effect
       effect="spiro"
       id="path-effect4168"
       is_visible="true" />
    <inkscape:path-effect
       fuse_tolerance="0"
       vertical_pattern="false"
       prop_units="false"
       tang_offset="0"
       normal_offset="0"
       spacing="0"
       scale_y_rel="false"
       prop_scale="1"
       copytype="single_stretched"
       pattern="m 0,-2 1,0"
       is_visible="true"
       id="path-effect4164"
       effect="skeletal" />
    <inkscape:path-effect
       is_visible="true"
       id="path-effect4162"
       effect="spiro" />
    <inkscape:path-effect
       effect="skeletal"
       id="path-effect4158"
       is_visible="true"
       pattern="M 0,0 1,0"
       copytype="single_stretched"
       prop_scale="1"
       scale_y_rel="false"
       spacing="0"
       normal_offset="0"
       tang_offset="0"
       prop_units="false"
       vertical_pattern="false"
       fuse_tolerance="0" />
    <inkscape:path-effect
       effect="spiro"
       id="path-effect4156"
       is_visible="true" />
    <inkscape:path-effect
       is_visible="true"
       id="path-effect6781"
       effect="spiro" />
    <inkscape:path-effect
       fuse_tolerance="0"
       vertical_pattern="false"
       prop_units="false"
       tang_offset="0"
       normal_offset="0"
       spacing="0"
       scale_y_rel="false"
       prop_scale="1"
       copytype="single_stretched"
       pattern="m -48,-2.7636719e-5 1,0"
       is_visible="true"
       id="path-effect6783"
       effect="skeletal" />
    <inkscape:path-effect
       effect="spiro"
       id="path-effect6775"
       is_visible="true" />
    <inkscape:path-effect
       effect="skeletal"
       id="path-effect6777"
       is_visible="true"
       pattern="m -48,-1.9116376 1,0"
       copytype="single_stretched"
       prop_scale="1"
       scale_y_rel="false"
       spacing="0"
       normal_offset="0"
       tang_offset="0"
       prop_units="false"
       vertical_pattern="false"
       fuse_tolerance="0" />
  </defs>
  <sodipodi:namedview
     id="base"
     pagecolor="#ffffff"
     bordercolor="#666666"
     borderopacity="1.0"
     inkscape:pageopacity="0.0"
     inkscape:pageshadow="2"
     inkscape:zoom="19.659864"
     inkscape:cx="20.786166"
     inkscape:cy="23.259891"
     inkscape:current-layer="layer1"
     showgrid="true"
     inkscape:grid-bbox="true"
     inkscape:document-units="px"
     units="px">
    <inkscape:grid
       type="xygrid"
       id="grid4268" />
  </sodipodi:namedview>
  <metadata
     id="metadata5011">
    <rdf:RDF>
      <cc:Work
         rdf:about="">
        <dc:format>image/svg+xml</dc:format>
        <dc:type
           rdf:resource="http://purl.org/dc/dcmitype/StillImage" />
        <dc:title></dc:title>
      </cc:Work>
    </rdf:RDF>
  </metadata>
  <g
     id="layer1"
     inkscape:label="Layer 1"
     inkscape:groupmode="layer"
     transform="translate(0,-2.6226045e-6)">
    <path
       style="color:#000000;font-style:normal;font-variant:normal;font-weight:normal;font-stretch:normal;font-size:medium;line-height:normal;font-family:sans-serif;text-indent:0;text-align:start;text-decoration:none;text-decoration-line:none;text-decoration-style:solid;text-decoration-color:#000000;letter-spacing:normal;word-spacing:normal;text-transform:none;direction:ltr;block-progression:tb;writing-mode:lr-tb;baseline-shift:baseline;text-anchor:start;clip-rule:nonzero;display:inline;overflow:visible;visibility:visible;opacity:1;isolation:auto;mix-blend-mode:normal;color-interpolation:sRGB;color-interpolation-filters:linearRGB;solid-color:#000000;solid-opacity:1;fill:#000000;fill-opacity:1;fill-rule:evenodd;stroke:none;stroke-width:3.37719297;stroke-linecap:butt;stroke-linejoin:round;stroke-miterlimit:4;stroke-dasharray:none;stroke-dashoffset:0;stroke-opacity:1;color-rendering:auto;image-rendering:auto;shape-rendering:auto;text-rendering:auto;enable-background:accumulate"
       d="M 7.0097656,13 C 6.0765457,12.99962 4.999616,14.086311 5,15.019531 l 0,22.96875 C 4.999886,38.716621 5.4433046,39.77118 6.1347656,40 l 17.3242184,5.894531 c 0.34554,0.11475 0.718913,0.11475 1.064454,0 L 41.927734,40 C 42.615922,39.76694 42.999828,38.744158 43,38.017578 L 43,15.003906 C 43.000384,14.071446 41.942222,13.0007 41.009766,13 Z M 7,15.066767 l 2,0 0,0.966797 -2,0 z m 32,0 2,0 0,0.966797 -2,0 z m -28,0.02539 2,0 0,0.941407 -2,0 z m 4,0 2,0 0,0.941407 -2,0 z m 4,0 2,0 0,0.941407 -2,0 z m 4,0 2,0 0,0.941407 -2,0 z m 4,0 2,0 0,0.941407 -2,0 z m 4,0 2,0 0,0.941407 -2,0 z m 4,0 2,0 0,0.941407 -2,0 z m -28,2.890542 34,0 L 41,38 24,44 7,38 Z"
       id="path7304"
       inkscape:connector-curvature="0"
       sodipodi:nodetypes="cccccccccccccccccccccccccccccccccccccccccccccccccccccccccccccc" />
    <path
       style="opacity:1;fill:#000000;fill-opacity:1;fill-rule:nonzero;stroke:none;stroke-width:3;stroke-linecap:round;stroke-linejoin:round;stroke-miterlimit:4;stroke-dasharray:3, 6;stroke-dashoffset:0;stroke-opacity:1"
       d="m 12,3 0,9 12,0 0,-9 -12,0 z"
       id="path4217"
       inkscape:connector-curvature="0" />
    <path
       style="opacity:1;fill:#000000;fill-opacity:1;fill-rule:nonzero;stroke:none;stroke-width:3;stroke-linecap:round;stroke-linejoin:round;stroke-miterlimit:4;stroke-dasharray:3, 6;stroke-dashoffset:0;stroke-opacity:1"
       d="m 25,8 0,4 11,0 0,-4 -11,0 z"
       id="rect7321"
       inkscape:connector-curvature="0" />
    <path
       style="fill:#000000;fill-rule:evenodd;stroke:none;stroke-width:1px;stroke-linecap:butt;stroke-linejoin:miter;stroke-opacity:1"
       d="m 8,20 0,1 1,-1 z m 3,0 -3,3 0,2 5,-5 z m 4,0 -7,7 0,2 9,-9 z m 4,0 -11,11 0,2 13,-13 z m 8,0 -0.71875,0.71875 c 0.390081,0.271294 0.728706,0.609919 1,1 L 29,20 Z m 4,0 -3.107422,3.107422 C 27.961813,23.399966 27.997848,23.699383 28,24 c 3.01e-4,0.398495 -0.05895,0.794798 -0.175781,1.175781 L 33,20 Z m 4,0 -19.380859,19.380859 1.523437,0.476563 L 37,20 Z m 4,0 -20.333984,20.333984 1.52539,0.47461 L 40,21 40,20 Z M 20.175781,22.824219 8,35 8,37 20.107422,24.892578 C 20.038187,24.600034 20.002152,24.300617 20,24 c -3.01e-4,-0.398495 0.05895,-0.794798 0.175781,-1.175781 z M 40,23 21.714844,41.285156 23.238281,41.761719 40,25 Z M 20.71875,26.28125 9.5234375,37.476562 11.046875,37.953125 21.71875,27.28125 c -0.390081,-0.271294 -0.728706,-0.609919 -1,-1 z M 40,27 25.455078,41.544922 28.363281,40.636719 40,29 Z M 25.183594,27.816406 C 24.800513,27.936661 24.40151,27.998552 24,28 23.698803,27.9986 23.398724,27.96325 23.105469,27.894531 l -10.533203,10.533203 1.523437,0.476563 z M 40,31 31.273438,39.726562 34.181641,38.818359 40,33 Z m 0,4 -2.908203,2.908203 L 40,37 Z"
       id="path4172"
       inkscape:connector-curvature="0"
       sodipodi:nodetypes="ccccccccccccccccccccccccccccccccccccccccccccccccccccccccccccccccccccccccccccc" />
    <path
       style="opacity:1;fill:#000000;fill-opacity:1;fill-rule:nonzero;stroke:none;stroke-width:4;stroke-linecap:round;stroke-linejoin:round;stroke-miterlimit:4;stroke-dasharray:none;stroke-opacity:1"
       d="m 24,21 a 3,3 0 0 0 -3,3 3,3 0 0 0 3,3 3,3 0 0 0 3,-3 3,3 0 0 0 -3,-3 z m 0.135827,0.930118 a 2.1314279,2.1314279 0 0 1 1.325787,0.463584 2.4989008,2.4989008 0 0 0 -0.555118,-0.06496 2.4989008,2.4989008 0 0 0 -2.500985,2.500984 2.4989008,2.4989008 0 0 0 0.06792,0.563976 2.1314279,2.1314279 0 0 1 -0.466535,-1.334646 2.1314279,2.1314279 0 0 1 2.128937,-2.128936 z"
       id="circle5650"
       inkscape:connector-curvature="0" />
  </g>
</svg>
