<?xml version="1.0" encoding="UTF-8" standalone="no"?>
<!-- Created with Inkscape (http://www.inkscape.org/) -->

<svg
   xmlns:dc="http://purl.org/dc/elements/1.1/"
   xmlns:cc="http://creativecommons.org/ns#"
   xmlns:rdf="http://www.w3.org/1999/02/22-rdf-syntax-ns#"
   xmlns:svg="http://www.w3.org/2000/svg"
   xmlns="http://www.w3.org/2000/svg"
   xmlns:sodipodi="http://sodipodi.sourceforge.net/DTD/sodipodi-0.dtd"
   xmlns:inkscape="http://www.inkscape.org/namespaces/inkscape"
   width="48"
   height="48"
   id="svg9376"
   version="1.1"
   inkscape:version="0.91pre2 r13638"
   viewBox="0 0 48 48"
   sodipodi:docname="post.svg">
  <defs
     id="defs9378">
    <inkscape:perspective
       sodipodi:type="inkscape:persp3d"
       inkscape:vp_x="0 : 24 : 1"
       inkscape:vp_y="0 : 1000 : 0"
       inkscape:vp_z="48 : 24 : 1"
       inkscape:persp3d-origin="24 : 16 : 1"
       id="perspective4457" />
    <inkscape:path-effect
       effect="skeletal"
       id="path-effect4207"
       is_visible="true"
       pattern="m 0,2.0034462 c 8.2545882,-1.38781203 16.629761,-2.05782503 25,-2.00000003 7.703585,0.05322 15.40285,0.722721 22.999995,1.99999903 2e-6,1e-6 3e-6,1e-6 5e-6,1e-6 -7.616432,1.255648 -15.33155,1.912337 -23.050632,1.962007 C 16.597386,4.0191952 8.2409162,3.3620462 0,2.0034462 Z"
       copytype="single_stretched"
       prop_scale="1"
       scale_y_rel="false"
       spacing="0"
       normal_offset="0"
       tang_offset="0"
       prop_units="false"
       vertical_pattern="false"
       fuse_tolerance="0" />
    <inkscape:path-effect
       effect="spiro"
       id="path-effect4205"
       is_visible="true" />
    <inkscape:path-effect
       effect="skeletal"
       id="path-effect4191"
       is_visible="true"
       pattern="M 0,0 1,0"
       copytype="single_stretched"
       prop_scale="1"
       scale_y_rel="false"
       spacing="0"
       normal_offset="0"
       tang_offset="0"
       prop_units="false"
       vertical_pattern="false"
       fuse_tolerance="0" />
    <inkscape:path-effect
       effect="spiro"
       id="path-effect4189"
       is_visible="true" />
    <inkscape:path-effect
       effect="skeletal"
       id="path-effect4143"
       is_visible="true"
       pattern="M 0,0 1,0"
       copytype="single_stretched"
       prop_scale="1"
       scale_y_rel="false"
       spacing="0"
       normal_offset="0"
       tang_offset="0"
       prop_units="false"
       vertical_pattern="false"
       fuse_tolerance="0" />
    <inkscape:path-effect
       effect="spiro"
       id="path-effect4141"
       is_visible="true" />
  </defs>
  <sodipodi:namedview
     id="base"
     pagecolor="#ffffff"
     bordercolor="#666666"
     borderopacity="1.0"
     inkscape:pageopacity="0.0"
     inkscape:pageshadow="2"
     inkscape:zoom="19.015625"
     inkscape:cx="10.959596"
     inkscape:cy="23.017252"
     inkscape:current-layer="layer1"
     showgrid="true"
     inkscape:grid-bbox="true"
     inkscape:document-units="px">
    <inkscape:grid
       type="xygrid"
       id="grid4137" />
  </sodipodi:namedview>
  <metadata
     id="metadata9381">
    <rdf:RDF>
      <cc:Work
         rdf:about="">
        <dc:format>image/svg+xml</dc:format>
        <dc:type
           rdf:resource="http://purl.org/dc/dcmitype/StillImage" />
        <dc:title></dc:title>
      </cc:Work>
    </rdf:RDF>
  </metadata>
  <g
     id="layer1"
     inkscape:label="Layer 1"
     inkscape:groupmode="layer">
    <path
       style="color:#000000;font-style:normal;font-variant:normal;font-weight:normal;font-stretch:normal;font-size:medium;line-height:normal;font-family:sans-serif;text-indent:0;text-align:start;text-decoration:none;text-decoration-line:none;text-decoration-style:solid;text-decoration-color:#000000;letter-spacing:normal;word-spacing:normal;text-transform:none;direction:ltr;block-progression:tb;writing-mode:lr-tb;baseline-shift:baseline;text-anchor:start;white-space:normal;clip-rule:nonzero;display:inline;overflow:visible;visibility:visible;opacity:1;isolation:auto;mix-blend-mode:normal;color-interpolation:sRGB;color-interpolation-filters:linearRGB;solid-color:#000000;solid-opacity:1;fill:#000000;fill-opacity:1;fill-rule:nonzero;stroke:none;stroke-width:2;stroke-linecap:round;stroke-linejoin:round;stroke-miterlimit:4;stroke-dasharray:none;stroke-dashoffset:0;stroke-opacity:1;marker:none;color-rendering:auto;image-rendering:auto;shape-rendering:auto;text-rendering:auto;enable-background:accumulate"
       d="M 9.5390625 7.9960938 A 1.0001 1.0001 0 0 0 8.5253906 9 L 8 9 C 7.4477381 9.0000552 7.0000552 9.4477381 7 10 L 7 28 C 7.0000552 28.552262 7.4477381 28.999945 8 29 L 9 29 L 9 38 A 1.0001 1.0001 0 0 0 10 39 L 11 39 L 16 39 L 17 39 A 1.0001 1.0001 0 0 0 18 38 L 18 28.5 A 1.0001 1.0001 0 1 0 16 28.5 L 16 35 L 11 35 L 11 28 A 1.0001 1.0001 0 0 0 10 27 L 9.9160156 27 L 9 27 L 9 11 L 12.001953 11 A 1 1 0 0 1 12 10.958984 A 1 1 0 0 1 13 9.9589844 A 1 1 0 0 1 14 10.958984 A 1 1 0 0 1 13.998047 11 L 17.001953 11 A 1 1 0 0 1 17 10.958984 A 1 1 0 0 1 18 9.9589844 A 1 1 0 0 1 19 10.958984 A 1 1 0 0 1 18.998047 11 L 22.523438 11 A 1 1 0 0 1 22.521484 10.958984 A 1 1 0 0 1 23.521484 9.9589844 A 1 1 0 0 1 24.521484 10.958984 A 1 1 0 0 1 24.519531 11 L 27.888672 11 A 1 1 0 0 1 27.886719 10.958984 A 1 1 0 0 1 28.886719 9.9589844 A 1 1 0 0 1 29.886719 10.958984 A 1 1 0 0 1 29.884766 11 L 33.09375 11 A 1 1 0 0 1 33.091797 10.958984 A 1 1 0 0 1 34.091797 9.9589844 A 1 1 0 0 1 35.091797 10.958984 A 1 1 0 0 1 35.089844 11 L 37.962891 11 L 37.962891 27 L 37.037109 27 L 37 27 A 1.0001 1.0001 0 0 0 36.611328 27.078125 A 1.0001 1.0001 0 0 0 36.609375 27.080078 C 36.595597 27.085683 36.583603 27.091498 36.570312 27.097656 A 1.0001 1.0001 0 0 0 36.285156 27.300781 A 1.0001 1.0001 0 0 0 36.283203 27.302734 C 36.279065 27.30727 36.275523 27.311796 36.271484 27.316406 A 1.0001 1.0001 0 0 0 36 28 L 36 35 L 31 35 L 31 28.5 A 1.0001 1.0001 0 1 0 29 28.5 L 29 38 A 1.0001 1.0001 0 0 0 30 39 L 37 39 A 1.0001 1.0001 0 0 0 38 38 L 38 29 L 38.962891 29 C 39.515153 28.999945 39.962836 28.552262 39.962891 28 L 39.962891 10 C 39.962836 9.4477381 39.515153 9.0000552 38.962891 9 L 38.511719 9 A 1.0001 1.0001 0 0 0 37.498047 7.9960938 L 36.013672 7.9960938 A 1.0001 1.0001 0 0 0 35 9 L 33.216797 9 A 1.0001 1.0001 0 0 0 32.203125 7.9960938 L 30.71875 7.9960938 A 1.0001 1.0001 0 0 0 29.705078 9 L 27.921875 9 A 1.0001 1.0001 0 0 0 26.908203 7.9960938 L 25.423828 7.9960938 A 1.0001 1.0001 0 0 0 24.410156 9 L 22.626953 9 A 1.0001 1.0001 0 0 0 21.613281 7.9960938 L 20.128906 7.9960938 A 1.0001 1.0001 0 0 0 19.115234 9 L 17.332031 9 A 1.0001 1.0001 0 0 0 16.318359 7.9960938 L 14.833984 7.9960938 A 1.0001 1.0001 0 0 0 13.820312 9 L 12.037109 9 A 1.0001 1.0001 0 0 0 11.023438 7.9960938 L 9.5390625 7.9960938 z M 19.984375 27.486328 A 1.0001 1.0001 0 0 0 19 28.5 L 19 38 A 1.0001 1.0001 0 0 0 20 39 L 27 39 A 1.0001 1.0001 0 0 0 28 38 L 28 28.5 A 1.0001 1.0001 0 1 0 26 28.5 L 26 35 L 21 35 L 21 28.5 A 1.0001 1.0001 0 0 0 19.984375 27.486328 z "
       id="rect4370" />
    <path
       style="color:#000000;display:inline;overflow:visible;visibility:visible;opacity:1;fill:#000000;fill-opacity:1;fill-rule:nonzero;stroke:none;stroke-width:2;stroke-linecap:round;stroke-linejoin:round;stroke-miterlimit:4;stroke-dasharray:none;stroke-dashoffset:0;stroke-opacity:1;marker:none;enable-background:accumulate"
       d="m 13,26 a 1,1 0 0 1 -1,1 1,1 0 0 1 -1,-1 1,1 0 0 1 1,-1 1,1 0 0 1 1,1 z"
       id="circle4411" />
    <path
       style="color:#000000;display:inline;overflow:visible;visibility:visible;opacity:1;fill:#000000;fill-opacity:1;fill-rule:nonzero;stroke:none;stroke-width:2;stroke-linecap:round;stroke-linejoin:round;stroke-miterlimit:4;stroke-dasharray:none;stroke-dashoffset:0;stroke-opacity:1;marker:none;enable-background:accumulate"
       d="m 17,26 a 1,1 0 0 1 -1,1 1,1 0 0 1 -1,-1 1,1 0 0 1 1,-1 1,1 0 0 1 1,1 z"
       id="circle4413" />
    <path
       style="color:#000000;display:inline;overflow:visible;visibility:visible;opacity:1;fill:#000000;fill-opacity:1;fill-rule:nonzero;stroke:none;stroke-width:2;stroke-linecap:round;stroke-linejoin:round;stroke-miterlimit:4;stroke-dasharray:none;stroke-dashoffset:0;stroke-opacity:1;marker:none;enable-background:accumulate"
       d="m 21,26 a 1,1 0 0 1 -1,1 1,1 0 0 1 -1,-1 1,1 0 0 1 1,-1 1,1 0 0 1 1,1 z"
       id="circle4415" />
    <path
       style="color:#000000;display:inline;overflow:visible;visibility:visible;opacity:1;fill:#000000;fill-opacity:1;fill-rule:nonzero;stroke:none;stroke-width:2;stroke-linecap:round;stroke-linejoin:round;stroke-miterlimit:4;stroke-dasharray:none;stroke-dashoffset:0;stroke-opacity:1;marker:none;enable-background:accumulate"
       d="m 25,26 a 1,1 0 0 1 -1,1 1,1 0 0 1 -1,-1 1,1 0 0 1 1,-1 1,1 0 0 1 1,1 z"
       id="circle4417" />
    <path
       style="color:#000000;display:inline;overflow:visible;visibility:visible;opacity:1;fill:#000000;fill-opacity:1;fill-rule:nonzero;stroke:none;stroke-width:2;stroke-linecap:round;stroke-linejoin:round;stroke-miterlimit:4;stroke-dasharray:none;stroke-dashoffset:0;stroke-opacity:1;marker:none;enable-background:accumulate"
       d="m 29,26 a 1,1 0 0 1 -1,1 1,1 0 0 1 -1,-1 1,1 0 0 1 1,-1 1,1 0 0 1 1,1 z"
       id="circle4419" />
    <path
       style="color:#000000;display:inline;overflow:visible;visibility:visible;opacity:1;fill:#000000;fill-opacity:1;fill-rule:nonzero;stroke:none;stroke-width:2;stroke-linecap:round;stroke-linejoin:round;stroke-miterlimit:4;stroke-dasharray:none;stroke-dashoffset:0;stroke-opacity:1;marker:none;enable-background:accumulate"
       d="m 33,26 a 1,1 0 0 1 -1,1 1,1 0 0 1 -1,-1 1,1 0 0 1 1,-1 1,1 0 0 1 1,1 z"
       id="circle4423" />
    <path
       style="color:#000000;display:inline;overflow:visible;visibility:visible;opacity:1;fill:#000000;fill-opacity:1;fill-rule:nonzero;stroke:none;stroke-width:2;stroke-linecap:round;stroke-linejoin:round;stroke-miterlimit:4;stroke-dasharray:none;stroke-dashoffset:0;stroke-opacity:1;marker:none;enable-background:accumulate"
       d="m 37,26 a 1,1 0 0 1 -1,1 1,1 0 0 1 -1,-1 1,1 0 0 1 1,-1 1,1 0 0 1 1,1 z"
       id="circle4425" />
    <path
       style="color:#000000;font-style:normal;font-variant:normal;font-weight:normal;font-stretch:normal;font-size:medium;line-height:normal;font-family:sans-serif;text-indent:0;text-align:start;text-decoration:none;text-decoration-line:none;text-decoration-style:solid;text-decoration-color:#000000;letter-spacing:normal;word-spacing:normal;text-transform:none;direction:ltr;block-progression:tb;writing-mode:lr-tb;baseline-shift:baseline;text-anchor:start;white-space:normal;clip-rule:nonzero;display:inline;overflow:visible;visibility:visible;opacity:1;isolation:auto;mix-blend-mode:normal;color-interpolation:sRGB;color-interpolation-filters:linearRGB;solid-color:#000000;solid-opacity:1;fill:#000000;fill-opacity:1;fill-rule:evenodd;stroke:none;stroke-width:2;stroke-linecap:round;stroke-linejoin:miter;stroke-miterlimit:4;stroke-dasharray:none;stroke-dashoffset:0;stroke-opacity:1;color-rendering:auto;image-rendering:auto;shape-rendering:auto;text-rendering:auto;enable-background:accumulate"
       d="M 14 14 A 1.0001 1.0001 0 1 0 14 16 L 20 16 A 1.0001 1.0001 0 1 0 20 14 L 14 14 z M 23 14 A 1.0001 1.0001 0 1 0 23 16 L 25 16 A 1.0001 1.0001 0 1 0 25 14 L 23 14 z M 28 14 A 1.0001 1.0001 0 1 0 28 16 L 33 16 A 1.0001 1.0001 0 1 0 33 14 L 28 14 z M 14 18 A 1.0001 1.0001 0 1 0 14 20 L 21 20 A 1.0001 1.0001 0 0 0 22 19.162109 A 1.0001 1.0001 0 0 0 23 20 L 27 20 A 1.0001 1.0001 0 1 0 27 18 L 23 18 A 1.0001 1.0001 0 0 0 22 18.837891 A 1.0001 1.0001 0 0 0 21 18 L 14 18 z "
       id="path4427" />
  </g>
</svg>
