<?xml version="1.0" encoding="UTF-8" standalone="no"?>
<!-- Created with Inkscape (http://www.inkscape.org/) -->

<svg
   xmlns:dc="http://purl.org/dc/elements/1.1/"
   xmlns:cc="http://creativecommons.org/ns#"
   xmlns:rdf="http://www.w3.org/1999/02/22-rdf-syntax-ns#"
   xmlns:svg="http://www.w3.org/2000/svg"
   xmlns="http://www.w3.org/2000/svg"
   xmlns:sodipodi="http://sodipodi.sourceforge.net/DTD/sodipodi-0.dtd"
   xmlns:inkscape="http://www.inkscape.org/namespaces/inkscape"
   width="48"
   height="48"
   id="svg7480"
   version="1.1"
   inkscape:version="0.91pre2 r13638"
   viewBox="0 0 48 48"
   sodipodi:docname="search.svg">
  <defs
     id="defs7482" />
  <sodipodi:namedview
     id="base"
     pagecolor="#ffffff"
     bordercolor="#666666"
     borderopacity="1.0"
     inkscape:pageopacity="0.0"
     inkscape:pageshadow="2"
     inkscape:zoom="2.9413294"
     inkscape:cx="98.412128"
     inkscape:cy="-35.928917"
     inkscape:current-layer="layer1"
     showgrid="true"
     inkscape:grid-bbox="true"
     inkscape:document-units="px" />
  <metadata
     id="metadata7485">
    <rdf:RDF>
      <cc:Work
         rdf:about="">
        <dc:format>image/svg+xml</dc:format>
        <dc:type
           rdf:resource="http://purl.org/dc/dcmitype/StillImage" />
        <dc:title></dc:title>
      </cc:Work>
    </rdf:RDF>
  </metadata>
  <g
     id="layer1"
     inkscape:label="Layer 1"
     inkscape:groupmode="layer">
    <g
       id="g6832"
       transform="matrix(0.8660254,0.5,-0.5,0.8660254,135.86054,-600.26627)">
      <path
         id="path6701"
         d="m 218.87603,582.53 a 6.5524272,6.5524272 0 0 1 1.56853,1.83006 6.5524272,6.5524272 0 0 1 -2.39677,8.95022 6.5524272,6.5524272 0 0 1 -1.15518,0.52261 5.9999999,5.9999999 0 0 0 2.269,-0.75747 5.9999999,5.9999999 0 0 0 2.19615,-8.19615 5.9999999,5.9999999 0 0 0 -2.48173,-2.34927 z"
         style="opacity:1;fill:#000000;fill-opacity:1;fill-rule:nonzero;stroke:none;stroke-width:4;stroke-linecap:round;stroke-linejoin:round;stroke-miterlimit:4;stroke-dasharray:none;stroke-dashoffset:0.40000001;stroke-opacity:1"
         inkscape:connector-curvature="0" />
      <path
         style="color:#000000;font-style:normal;font-variant:normal;font-weight:normal;font-stretch:normal;font-size:medium;line-height:normal;font-family:sans-serif;text-indent:0;text-align:start;text-decoration:none;text-decoration-line:none;text-decoration-style:solid;text-decoration-color:#000000;letter-spacing:normal;word-spacing:normal;text-transform:none;direction:ltr;block-progression:tb;writing-mode:lr-tb;baseline-shift:baseline;text-anchor:start;clip-rule:nonzero;display:inline;overflow:visible;visibility:visible;opacity:1;isolation:auto;mix-blend-mode:normal;color-interpolation:sRGB;color-interpolation-filters:linearRGB;solid-color:#000000;solid-opacity:1;fill:#000000;fill-opacity:1;fill-rule:nonzero;stroke:none;stroke-width:4;stroke-linecap:round;stroke-linejoin:round;stroke-miterlimit:4;stroke-dasharray:none;stroke-dashoffset:0;stroke-opacity:1;color-rendering:auto;image-rendering:auto;shape-rendering:auto;text-rendering:auto;enable-background:accumulate"
         d="m 215.99998,576.32584 c -6.41002,0 -11.64203,5.23202 -11.64203,11.64204 0,6.41002 5.23202,11.64203 11.64204,11.64203 6.41002,0 11.64203,-5.23201 11.64203,-11.64203 0,-6.41002 -5.23202,-11.64204 -11.64204,-11.64204 z m 0,3.3263 c 4.61236,0 8.31574,3.70338 8.31575,8.31574 0,4.61236 -3.70339,8.31574 -8.31574,8.31573 -4.61236,0 -8.31575,-3.70337 -8.31575,-8.31573 0,-4.61236 3.70338,-8.31574 8.31574,-8.31574 z"
         id="path7332"
         inkscape:connector-curvature="0" />
      <path
         sodipodi:nodetypes="czszcc"
         inkscape:connector-curvature="0"
         id="path7334"
         d="m 214.5,597.36219 c 0,9.94614 -1.47907,14.91921 -1.49974,17.52424 -0.0207,2.60503 1.12425,4.47576 3.04825,4.47576 1.924,0 2.95148,-1.87073 2.95148,-4.47576 0,-2.60503 -1.49999,-7.5781 -1.49999,-17.52424 z"
         style="opacity:1;fill:#000000;fill-opacity:1;fill-rule:nonzero;stroke:none;stroke-width:4;stroke-linecap:round;stroke-linejoin:round;stroke-miterlimit:4;stroke-dasharray:none;stroke-dashoffset:0;stroke-opacity:1" />
    </g>
  </g>
</svg>
