<?xml version="1.0" encoding="UTF-8" standalone="no"?>
<!-- Created with Inkscape (http://www.inkscape.org/) -->

<svg
   xmlns:dc="http://purl.org/dc/elements/1.1/"
   xmlns:cc="http://creativecommons.org/ns#"
   xmlns:rdf="http://www.w3.org/1999/02/22-rdf-syntax-ns#"
   xmlns:svg="http://www.w3.org/2000/svg"
   xmlns="http://www.w3.org/2000/svg"
   xmlns:sodipodi="http://sodipodi.sourceforge.net/DTD/sodipodi-0.dtd"
   xmlns:inkscape="http://www.inkscape.org/namespaces/inkscape"
   width="48"
   height="48"
   id="svg5148"
   version="1.1"
   inkscape:version="0.91pre2 r13638"
   viewBox="0 0 48 48"
   sodipodi:docname="share.svg">
  <defs
     id="defs5150" />
  <sodipodi:namedview
     id="base"
     pagecolor="#ffffff"
     bordercolor="#666666"
     borderopacity="1.0"
     inkscape:pageopacity="0.0"
     inkscape:pageshadow="2"
     inkscape:zoom="18.992268"
     inkscape:cx="44.365663"
     inkscape:cy="19.70523"
     inkscape:current-layer="layer1"
     showgrid="true"
     inkscape:grid-bbox="true"
     inkscape:document-units="px">
    <inkscape:grid
       type="xygrid"
       id="grid4137" />
  </sodipodi:namedview>
  <metadata
     id="metadata5153">
    <rdf:RDF>
      <cc:Work
         rdf:about="">
        <dc:format>image/svg+xml</dc:format>
        <dc:type
           rdf:resource="http://purl.org/dc/dcmitype/StillImage" />
        <dc:title />
      </cc:Work>
    </rdf:RDF>
  </metadata>
  <g
     id="layer1"
     inkscape:label="Layer 1"
     inkscape:groupmode="layer">
    <path
       style="color:#000000;font-style:normal;font-variant:normal;font-weight:normal;font-stretch:normal;font-size:medium;line-height:normal;font-family:sans-serif;text-indent:0;text-align:start;text-decoration:none;text-decoration-line:none;text-decoration-style:solid;text-decoration-color:#000000;letter-spacing:normal;word-spacing:normal;text-transform:none;direction:ltr;block-progression:tb;writing-mode:lr-tb;baseline-shift:baseline;text-anchor:start;white-space:normal;clip-rule:nonzero;display:inline;overflow:visible;visibility:visible;opacity:1;isolation:auto;mix-blend-mode:normal;color-interpolation:sRGB;color-interpolation-filters:linearRGB;solid-color:#000000;solid-opacity:1;fill:#000000;fill-opacity:1;fill-rule:evenodd;stroke:none;stroke-width:4;stroke-linecap:butt;stroke-linejoin:miter;stroke-miterlimit:4;stroke-dasharray:none;stroke-dashoffset:0;stroke-opacity:1;color-rendering:auto;image-rendering:auto;shape-rendering:auto;text-rendering:auto;enable-background:accumulate"
       d="M 36.019531 5.9394531 A 6.0199733 6.0199733 0 0 0 30 11.960938 A 6.0199733 6.0199733 0 0 0 30.130859 13.177734 L 19.722656 18.382812 C 18.265141 16.903372 16.244052 15.980469 14.019531 15.980469 C 9.6139118 15.980469 6 19.59438 6 24 C 6 28.40562 9.6139119 32.019531 14.019531 32.019531 C 16.244052 32.019531 18.26514 31.096628 19.722656 29.617188 L 30.125 34.818359 A 6.0199733 6.0199733 0 0 0 30 36.039062 A 6.0199733 6.0199733 0 0 0 36.019531 42.060547 A 6.0199733 6.0199733 0 0 0 42.039062 36.039062 A 6.0199733 6.0199733 0 0 0 36.019531 30.019531 A 6.0199733 6.0199733 0 0 0 32.205078 31.386719 L 21.734375 26.152344 C 21.927639 25.465895 22.039063 24.745454 22.039062 24 C 22.039062 23.254546 21.927639 22.534105 21.734375 21.847656 L 32.205078 16.613281 A 6.0199733 6.0199733 0 0 0 36.019531 17.980469 A 6.0199733 6.0199733 0 0 0 42.039062 11.960938 A 6.0199733 6.0199733 0 0 0 36.019531 5.9394531 z M 14.019531 19.980469 C 16.26339 19.980469 18.039062 21.756141 18.039062 24 C 18.039062 26.243859 16.26339 28.019531 14.019531 28.019531 C 11.775672 28.019531 10 26.243859 10 24 C 10 21.756141 11.775672 19.980469 14.019531 19.980469 z "
       id="path4712-6" />
  </g>
</svg>
