<?xml version="1.0" encoding="UTF-8" standalone="no"?>
<!-- Created with Inkscape (http://www.inkscape.org/) -->

<svg
   xmlns:dc="http://purl.org/dc/elements/1.1/"
   xmlns:cc="http://creativecommons.org/ns#"
   xmlns:rdf="http://www.w3.org/1999/02/22-rdf-syntax-ns#"
   xmlns:svg="http://www.w3.org/2000/svg"
   xmlns="http://www.w3.org/2000/svg"
   xmlns:sodipodi="http://sodipodi.sourceforge.net/DTD/sodipodi-0.dtd"
   xmlns:inkscape="http://www.inkscape.org/namespaces/inkscape"
   width="48"
   height="48"
   id="svg5148"
   version="1.1"
   inkscape:version="0.91pre2 r13638"
   viewBox="0 0 48 48"
   sodipodi:docname="undo.svg">
  <defs
     id="defs5150">
    <marker
       inkscape:stockid="TriangleOutS"
       orient="auto"
       refY="0.0"
       refX="0.0"
       id="marker4417"
       style="overflow:visible"
       inkscape:isstock="true">
      <path
         id="path4309"
         d="M 5.77,0.0 L -2.88,5.0 L -2.88,-5.0 L 5.77,0.0 z "
         style="fill-rule:evenodd;stroke:#000000;stroke-width:1pt;stroke-opacity:1;fill:#000000;fill-opacity:1"
         transform="scale(0.2)" />
    </marker>
    <inkscape:path-effect
       effect="spiro"
       id="path-effect4149"
       is_visible="true" />
    <marker
       inkscape:stockid="TriangleOutS"
       orient="auto"
       refY="0.0"
       refX="0.0"
       id="TriangleOutS"
       style="overflow:visible"
       inkscape:isstock="true">
      <path
         id="path4292"
         d="M 5.77,0.0 L -2.88,5.0 L -2.88,-5.0 L 5.77,0.0 z "
         style="fill-rule:evenodd;stroke:#000000;stroke-width:1pt;stroke-opacity:1;fill:#000000;fill-opacity:1"
         transform="scale(0.2)" />
    </marker>
    <inkscape:path-effect
       effect="spiro"
       id="path-effect4138"
       is_visible="true" />
  </defs>
  <sodipodi:namedview
     id="base"
     pagecolor="#ffffff"
     bordercolor="#666666"
     borderopacity="1.0"
     inkscape:pageopacity="0.0"
     inkscape:pageshadow="2"
     inkscape:zoom="16.748065"
     inkscape:cx="13.427603"
     inkscape:cy="23.351668"
     inkscape:current-layer="layer1"
     showgrid="true"
     inkscape:grid-bbox="true"
     inkscape:document-units="px">
    <inkscape:grid
       type="xygrid"
       id="grid4137" />
  </sodipodi:namedview>
  <metadata
     id="metadata5153">
    <rdf:RDF>
      <cc:Work
         rdf:about="">
        <dc:format>image/svg+xml</dc:format>
        <dc:type
           rdf:resource="http://purl.org/dc/dcmitype/StillImage" />
        <dc:title />
      </cc:Work>
    </rdf:RDF>
  </metadata>
  <g
     id="layer1"
     inkscape:label="Layer 1"
     inkscape:groupmode="layer">
    <path
       style="color:#000000;font-style:normal;font-variant:normal;font-weight:normal;font-stretch:normal;font-size:medium;line-height:normal;font-family:sans-serif;text-indent:0;text-align:start;text-decoration:none;text-decoration-line:none;text-decoration-style:solid;text-decoration-color:#000000;letter-spacing:normal;word-spacing:normal;text-transform:none;direction:ltr;block-progression:tb;writing-mode:lr-tb;baseline-shift:baseline;text-anchor:start;white-space:normal;clip-rule:nonzero;display:inline;overflow:visible;visibility:visible;opacity:1;isolation:auto;mix-blend-mode:normal;color-interpolation:sRGB;color-interpolation-filters:linearRGB;solid-color:#000000;solid-opacity:1;fill:#000000;fill-opacity:1;fill-rule:evenodd;stroke:none;stroke-width:4;stroke-linecap:round;stroke-linejoin:miter;stroke-miterlimit:4;stroke-dasharray:none;stroke-dashoffset:0;stroke-opacity:1;color-rendering:auto;image-rendering:auto;shape-rendering:auto;text-rendering:auto;enable-background:accumulate"
       d="M 14.724609 8.890625 C 14.547197 8.90136 14.388816 9.0054602 14.308594 9.1640625 L 10.683594 16.287109 C 10.508896 16.629723 10.770204 17.03307 11.154297 17.013672 L 19.136719 16.599609 C 19.580334 16.576439 19.775752 16.029514 19.447266 15.730469 C 19.041514 15.359382 18.665056 14.968241 18.306641 14.564453 C 19.447038 14.134129 20.654418 13.874934 21.865234 13.818359 C 23.901229 13.723229 25.983546 14.185113 27.789062 15.130859 C 29.59458 16.076606 31.159152 17.526021 32.240234 19.253906 C 33.321317 20.981791 33.939115 23.02324 34 25.060547 C 34.09333 28.183355 32.81852 31.400231 30.609375 33.609375 C 28.400231 35.81852 25.183355 37.093326 22.060547 37 A 2.0009163 2.0009163 0 1 0 21.939453 41 C 26.205069 41.127478 30.419908 39.455093 33.4375 36.4375 C 36.455093 33.419908 38.127478 29.205069 38 24.939453 C 37.917559 22.180854 37.094691 19.472443 35.630859 17.132812 C 34.167028 14.793184 32.089277 12.868472 29.644531 11.587891 C 27.199786 10.307311 24.434558 9.6954087 21.677734 9.8242188 C 19.726243 9.9154004 17.808124 10.383228 16.03125 11.177734 C 15.72624 10.5561 15.456851 9.9080225 15.226562 9.2304688 C 15.154802 9.017126 14.949344 8.8780229 14.724609 8.890625 z "
       id="path4147" />
  </g>
</svg>
