<?xml version="1.0" encoding="UTF-8" standalone="no"?>
<!-- Created with Inkscape (http://www.inkscape.org/) -->

<svg
   xmlns:dc="http://purl.org/dc/elements/1.1/"
   xmlns:cc="http://creativecommons.org/ns#"
   xmlns:rdf="http://www.w3.org/1999/02/22-rdf-syntax-ns#"
   xmlns:svg="http://www.w3.org/2000/svg"
   xmlns="http://www.w3.org/2000/svg"
   xmlns:sodipodi="http://sodipodi.sourceforge.net/DTD/sodipodi-0.dtd"
   xmlns:inkscape="http://www.inkscape.org/namespaces/inkscape"
   width="64"
   height="64"
   id="svg4284"
   version="1.1"
   inkscape:version="0.91pre2 r13562"
   viewBox="0 0 64 64"
   sodipodi:docname="icon6.svg">
  <sodipodi:namedview
     id="base"
     pagecolor="#ffffff"
     bordercolor="#666666"
     borderopacity="1.0"
     inkscape:pageopacity="0.0"
     inkscape:pageshadow="2"
     inkscape:zoom="8"
     inkscape:cx="38.635279"
     inkscape:cy="35.263088"
     inkscape:current-layer="layer2"
     showgrid="false"
     inkscape:document-units="px"
     inkscape:grid-bbox="true"
     showguides="false">
    <sodipodi:guide
       position="0,0"
       orientation="0,64"
       id="guide4953" />
    <sodipodi:guide
       position="64,0"
       orientation="-64,0"
       id="guide4955" />
    <sodipodi:guide
       position="64,64"
       orientation="0,-64"
       id="guide4957" />
    <sodipodi:guide
       position="0,64"
       orientation="64,0"
       id="guide4959" />
    <sodipodi:guide
       orientation="-0.8660254,-0.5"
       position="32,32"
       id="guide4968" />
    <sodipodi:guide
       orientation="-0.850903524534,0.850903524534"
       position="64.0,64.0"
       id="guide4970" />
    <sodipodi:guide
       id="guide5115"
       position="0,64.0"
       orientation="0,64.0" />
    <sodipodi:guide
       id="guide5117"
       position="64.0,0"
       orientation="0,64.0" />
    <sodipodi:guide
       id="guide5119"
       position="0,64.0"
       orientation="64.0,0" />
    <sodipodi:guide
       id="guide5121"
       position="64.0,0"
       orientation="64.0,0" />
    <sodipodi:guide
       id="guide5123"
       position="0,57.6"
       orientation="0,64.0" />
    <sodipodi:guide
       id="guide5125"
       position="0,6.4"
       orientation="0,64.0" />
    <sodipodi:guide
       id="guide5127"
       position="6.4,0"
       orientation="64.0,0" />
    <sodipodi:guide
       id="guide5129"
       position="57.6,0"
       orientation="64.0,0" />
    <sodipodi:guide
       id="guide5131"
       position="0,23.4667"
       orientation="0,51.2" />
    <sodipodi:guide
       id="guide5133"
       position="0,40.5333"
       orientation="0,51.2" />
    <sodipodi:guide
       id="guide5135"
       position="32.0,0"
       orientation="51.2,0" />
    <inkscape:grid
       type="xygrid"
       id="grid5164" />
    <sodipodi:guide
       orientation="-0.96592583,0.25881905"
       position="32,32"
       id="guide4340" />
    <sodipodi:guide
       id="guide4446"
       position="32,32"
       orientation="-0.8660254,0.5" />
    <sodipodi:guide
       orientation="-0.5,0.8660254"
       position="32,32"
       id="guide4554" />
    <sodipodi:guide
       id="guide4664"
       position="32,32"
       orientation="-0.96592583,-0.25881905" />
    <sodipodi:guide
       inkscape:color="rgb(0,0,255)"
       inkscape:label=""
       orientation="-0.92387953,0.38268343"
       position="32,32"
       id="guide4776" />
    <sodipodi:guide
       id="guide4890"
       position="32,32"
       orientation="-0.79335334,0.60876143"
       inkscape:label=""
       inkscape:color="rgb(0,0,255)" />
    <sodipodi:guide
       inkscape:color="rgb(0,0,255)"
       inkscape:label=""
       orientation="-0.60876143,0.79335334"
       position="32,32"
       id="guide5006" />
    <sodipodi:guide
       id="guide5124"
       position="64.0,0"
       orientation="0.525321988818,0.525321988818" />
  </sodipodi:namedview>
  <defs
     id="defs4286">
    <inkscape:path-effect
       effect="skeletal"
       id="path-effect5275"
       is_visible="true"
       pattern="M 0,5 C 0,2.24 2.24,0 5,0 7.76,0 10,2.24 10,5 10,7.76 7.76,10 5,10 2.24,10 0,7.76 0,5 Z"
       copytype="single_stretched"
       prop_scale="1"
       scale_y_rel="false"
       spacing="0"
       normal_offset="0"
       tang_offset="0"
       prop_units="false"
       vertical_pattern="false"
       fuse_tolerance="0" />
    <inkscape:path-effect
       effect="spiro"
       id="path-effect5273"
       is_visible="true" />
    <inkscape:path-effect
       fuse_tolerance="0"
       vertical_pattern="false"
       prop_units="false"
       tang_offset="0"
       normal_offset="0"
       spacing="0"
       scale_y_rel="false"
       prop_scale="0.5"
       copytype="single_stretched"
       pattern="m -3.0670614,7.1705964 c 0,-2.76 2.24000036,-5 5.0000004,-5 2.76,0 5,2.24 5,5 0,2.7599999 -2.24,4.9999986 -5,4.9999986 -2.76000004,0 -5.0000004,-2.2399987 -5.0000004,-4.9999986 z"
       is_visible="true"
       id="path-effect5242"
       effect="skeletal" />
    <inkscape:path-effect
       is_visible="true"
       id="path-effect5240"
       effect="spiro" />
    <inkscape:path-effect
       pattern-nodetypes="csssssssc"
       fuse_tolerance="0"
       vertical_pattern="false"
       prop_units="false"
       tang_offset="0"
       normal_offset="0"
       spacing="0"
       scale_y_rel="false"
       prop_scale="0.4"
       copytype="single_stretched"
       pattern="m 0.51631974,4.7297997 c -0.916959,-1.471535 -0.654737,-3.94081471 1.12658296,-4.70595751 0.604659,-0.2597232 1.439138,1.68816451 2.138582,1.68816451 0.511779,0 1.824035,-1.83123531 2.289089,-1.68816451 2.042962,0.6285034 4.7109103,2.43994351 4.7109103,4.68816451 0,2.103746 -2.8697723,3.802036 -4.7109103,4.539858 -0.574335,0.23016 -1.632835,-1.539858 -2.289089,-1.539858 -0.831955,0 -1.448231,1.89981 -2.138582,1.539858 -1.59987596,-0.834186 -1.97999696,-3.152509 -1.12658296,-4.522065 z"
       is_visible="true"
       id="path-effect5238"
       effect="skeletal" />
    <inkscape:path-effect
       is_visible="true"
       id="path-effect5236"
       effect="spiro" />
    <inkscape:path-effect
       effect="skeletal"
       id="path-effect4258"
       is_visible="true"
       pattern="m 0.38648555,0.79549515 c 0,0.43933985 -0.672738,2.12132045 -1.50260195,2.12132045 -0.8298637,0 -1.5026017,-1.6819806 -1.5026017,-2.12132045 0,-0.43933984 0.672738,-2.12132035 1.5026017,-2.12132035 0.82986395,0 1.50260195,1.68198053 1.50260195,2.12132035 z"
       copytype="single_stretched"
       prop_scale="1"
       scale_y_rel="false"
       spacing="0"
       normal_offset="0"
       tang_offset="0"
       prop_units="false"
       vertical_pattern="false"
       fuse_tolerance="0"
       pattern-nodetypes="sssss" />
    <inkscape:path-effect
       effect="spiro"
       id="path-effect4256"
       is_visible="true" />
    <inkscape:path-effect
       effect="spiro"
       id="path-effect4200"
       is_visible="true" />
    <inkscape:perspective
       sodipodi:type="inkscape:persp3d"
       inkscape:vp_x="0 : 32 : 1"
       inkscape:vp_y="0 : 1000 : 0"
       inkscape:vp_z="64 : 32 : 1"
       inkscape:persp3d-origin="32 : 21.333333 : 1"
       id="perspective4177" />
    <inkscape:path-effect
       effect="skeletal"
       id="path-effect5182"
       is_visible="true"
       pattern="m -1.0746973,5.2149394 c 0,-2.76 2.2399999,-4.99999993 5,-4.99999993 2.76,0 5,2.23999993 5,4.99999993 0,2.76 -2.24,4.9999996 -5,4.9999996 -2.7600001,0 -5,-2.2399996 -5,-4.9999996 z"
       copytype="single_stretched"
       prop_scale="0.8"
       scale_y_rel="false"
       spacing="0"
       normal_offset="0"
       tang_offset="0"
       prop_units="false"
       vertical_pattern="false"
       fuse_tolerance="0" />
    <inkscape:path-effect
       effect="spiro"
       id="path-effect5180"
       is_visible="true" />
    <inkscape:path-effect
       effect="skeletal"
       id="path-effect5176"
       is_visible="true"
       pattern="m -1.4497976,7.8856712 c 0,-2.76 2.24000042,-5 5.0000004,-5 2.76,0 5,2.24 5,5 0,2.7600008 -2.24,4.9999998 -5,4.9999998 -2.75999998,0 -5.0000004,-2.239999 -5.0000004,-4.9999998 z"
       copytype="single_stretched"
       prop_scale="0.5"
       scale_y_rel="false"
       spacing="0"
       normal_offset="0"
       tang_offset="0"
       prop_units="false"
       vertical_pattern="false"
       fuse_tolerance="0" />
    <inkscape:path-effect
       effect="spiro"
       id="path-effect5174"
       is_visible="true" />
    <inkscape:path-effect
       effect="skeletal"
       id="path-effect5170"
       is_visible="true"
       pattern="M 0,5 C 0,2.24 2.24,0 5,0 7.76,0 10,2.24 10,5 10,7.76 7.76,10 5,10 2.24,10 0,7.76 0,5 Z"
       copytype="single_stretched"
       prop_scale="0.5"
       scale_y_rel="false"
       spacing="0"
       normal_offset="0"
       tang_offset="0"
       prop_units="false"
       vertical_pattern="false"
       fuse_tolerance="0" />
    <inkscape:path-effect
       effect="spiro"
       id="path-effect5168"
       is_visible="true" />
  </defs>
  <metadata
     id="metadata4289">
    <rdf:RDF>
      <cc:Work
         rdf:about="">
        <dc:format>image/svg+xml</dc:format>
        <dc:type
           rdf:resource="http://purl.org/dc/dcmitype/StillImage" />
        <dc:title />
      </cc:Work>
    </rdf:RDF>
  </metadata>
  <g
     inkscape:groupmode="layer"
     id="layer2"
     inkscape:label="fon"
     style="display:inline">
    <rect
       style="color:#000000;display:inline;overflow:visible;visibility:visible;opacity:1;fill:#006975;fill-opacity:1;fill-rule:nonzero;stroke:none;stroke-width:1;stroke-linecap:round;stroke-linejoin:round;stroke-miterlimit:4;stroke-dasharray:none;stroke-dashoffset:0;stroke-opacity:1;marker:none;enable-background:accumulate"
       id="rect4205"
       width="64"
       height="64"
       x="0"
       y="-5.1070259e-15" />
  </g>
  <g
     id="layer1"
     inkscape:label="outline"
     inkscape:groupmode="layer"
     style="display:none"
     sodipodi:insensitive="true">
    <path
       id="path4249"
       style="display:inline;fill:#ffffff;fill-rule:evenodd;stroke:none;stroke-width:1px;stroke-linecap:butt;stroke-linejoin:miter;stroke-opacity:1"
       d="m 30.48757,28.872714 c 0.028,0.02142 0.03648,-0.391544 0.714189,-0.646859 0.259953,-0.09759 0.626275,-0.149151 1.022909,-0.02728 0,0 10e-7,0 10e-7,0 0.327418,0.102195 0.668304,0.322334 0.919911,0.676272 0.209492,0.295278 0.35454,0.670947 0.383656,1.091086 0.04203,0.703228 -0.216474,1.479917 -0.786833,2.110799 -0.663648,0.746207 -1.72126,1.320834 -2.972244,1.344785 -1.054548,0.0173 -2.194363,-0.351205 -3.120513,-1.153592 1e-6,-1e-6 -3e-6,-3e-6 -3e-6,-3e-6 -1.129473,-0.988103 -1.887329,-2.565447 -1.813846,-4.321623 0.06968,-1.539015 0.741226,-3.111513 1.96815,-4.306213 1.419574,-1.378919 3.494929,-2.21797 5.717636,-2.070878 2.012603,0.140015 4.029589,1.055861 5.531117,2.663415 1.711471,1.844151 2.676936,4.472295 2.43097,7.21348 -0.236361,2.533227 -1.460002,5.012943 -3.501057,6.809003 -2.300958,2.012762 -5.484785,3.077238 -8.738986,2.730362 -3.0585,-0.336843 -6.002654,-1.866063 -8.098072,-4.332544 -2.332386,-2.762142 -3.502122,-6.516777 -3.046298,-10.290642 0.447273,-3.597775 2.31273,-7.007467 5.231567,-9.375348 3.239555,-2.608794 7.550818,-3.819061 11.795732,-3.233562 1.97603,0.278692 3.885513,0.926266 5.633529,1.891281 1.903909,1.051077 3.584519,2.461145 4.936993,4.130224 3.239255,4.003268 4.44969,9.2648 3.485776,14.079167 -1.040879,5.086253 -4.426612,9.306578 -8.750953,11.488562 -3.311178,1.608449 -6.90863,2.117063 -9.719425,2.830175 -1.232405,0.325197 -2.370774,0.681453 -3.378452,1.189018 -1.029497,0.523286 -1.938463,1.160213 -2.585491,1.948931 -1.048179,1.240187 -1.547862,2.958159 -1.37267,4.501645 0.175153,1.649099 1.113335,3.213898 2.38437,4.138465 1.125838,0.821305 2.544199,1.214583 3.828243,1.069683 1.38395,-0.147978 2.684573,-0.899612 3.431746,-1.937928 0.663866,-0.910326 0.962598,-2.062257 0.832059,-3.091233 -0.136958,-1.133556 -0.776672,-2.175029 -1.624968,-2.767313 -0.734856,-0.515064 -1.631166,-0.743097 -2.422599,-0.630919 0,0 -2e-6,2e-6 -2e-6,2e-6 -0.895436,0.121267 -1.69081,0.654373 -2.094497,1.328827 -0.33601,0.551716 -0.448234,1.201937 -0.345671,1.76156 0.118312,0.663248 0.521375,1.219518 0.995078,1.52587 0.404288,0.254977 0.836948,0.357157 1.200479,0.276254 0.216909,-0.04479 0.407768,-0.142345 0.54899,-0.27158 0.1691,-0.154083 0.27275,-0.349273 0.309787,-0.534026 0,0 -1e-6,-1e-6 -1e-6,-1e-6 0.04649,-0.223779 0.0021,-0.437605 -0.06719,-0.593442 0,0 -1e-6,-1e-6 -1e-6,-1e-6 -0.183498,-0.414326 -0.443369,-0.444557 -0.41349,-0.5145 -0.0093,0.02174 0.296915,-0.05613 0.617411,0.395537 0,0 10e-7,1e-6 10e-7,1e-6 0.122379,0.172927 0.231575,0.433941 0.217621,0.751848 -1e-6,0 -1e-6,2e-6 -1e-6,2e-6 -0.01279,0.26238 -0.11023,0.557789 -0.324913,0.812743 -0.178965,0.212101 -0.429827,0.392082 -0.736333,0.49423 -0.513525,0.165259 -1.138965,0.123685 -1.715133,-0.178861 -0.677971,-0.348337 -1.306194,-1.020172 -1.563055,-1.943904 -0.213685,-0.777392 -0.159409,-1.69211 0.259669,-2.532944 0.517212,-1.024185 1.539526,-1.887966 2.858596,-2.168677 1e-6,2e-6 5e-6,-1e-6 5e-6,-1e-6 1.153351,-0.241016 2.446513,-0.04593 3.568559,0.635828 1.292734,0.787494 2.316669,2.162714 2.634646,3.846026 0.281315,1.520256 -0.0109,3.19559 -0.926621,4.621378 -1.047076,1.615497 -2.81243,2.826526 -4.897568,3.163829 -1.919707,0.303377 -3.984413,-0.11768 -5.720631,-1.264452 -1.962989,-1.29915 -3.430172,-3.450767 -3.828659,-5.981324 -0.362235,-2.371524 0.238014,-4.922412 1.8073,-6.957791 0.976012,-1.242432 2.211974,-2.220268 3.559641,-2.938683 1.304573,-0.70022 2.661242,-1.192387 4.012435,-1.583803 3.078155,-0.920692 6.462498,-1.457211 8.912937,-2.814541 3.21291,-1.698621 5.78271,-5.076919 6.48376,-8.864586 0.683979,-3.580335 -0.31436,-7.667805 -2.739913,-10.617431 -1.014633,-1.236267 -2.287863,-2.297021 -3.713137,-3.08865 -1.308684,-0.726872 -2.726348,-1.216138 -4.162761,-1.413347 -3.063139,-0.433684 -6.314316,0.427738 -8.619751,2.27047 -2.091016,1.654025 -3.526091,4.137548 -3.871191,6.659024 -0.373399,2.629731 0.397226,5.418024 1.987059,7.374557 1.416647,1.758827 3.511659,2.95799 5.62667,3.245225 2.23519,0.315381 4.591586,-0.345714 6.227923,-1.68988 1.461036,-1.189706 2.446156,-2.930333 2.674086,-4.67444 0.254982,-1.872751 -0.322578,-3.828115 -1.455216,-5.157079 -0.985992,-1.167884 -2.398744,-1.93419 -3.797071,-2.100864 -1.533164,-0.190769 -3.104349,0.303716 -4.161148,1.222793 -0.915745,0.793448 -1.506176,1.89314 -1.618402,2.97012 -0.133288,1.214348 0.306305,2.428132 1.060246,3.179752 0,0 3e-6,10e-7 3e-6,10e-7 0.613492,0.619963 1.427278,0.977825 2.19448,1.026144 0.906327,0.0609 1.762743,-0.284791 2.317605,-0.804735 0.464783,-0.444503 0.737622,-0.978889 0.750161,-1.483176 0.0115,-0.299428 -0.05519,-0.581523 -0.179463,-0.809091 -0.147892,-0.272019 -0.370863,-0.470503 -0.601566,-0.578508 0,0 -2e-6,0 -2e-6,0 -0.278609,-0.132521 -0.571869,-0.142431 -0.797057,-0.101228 -0.596153,0.108229 -0.715046,0.437093 -0.790852,0.379105 z"
       inkscape:connector-curvature="0"
       sodipodi:nodetypes="czzzzzzzzzzzzzzzzzzc"
       inkscape:path-effect="#path-effect4256;#path-effect4258"
       inkscape:original-d="m 28.9372,55.572097 c 0.219285,0.375889 1.088274,0.649206 0.657855,1.127666 -0.430419,0.47846 -1.605115,1.559833 -2.417817,0.828732 -0.812702,-0.731101 -2.0451,-2.694155 -0.976396,-3.882141 1.068704,-1.187986 3.87918,-2.548382 5.472128,-1.115378 1.592948,1.433004 3.069248,5.141193 1.250467,7.162975 -1.818781,2.021782 -6.468226,3.606586 -8.939094,1.383811 -2.470868,-2.222775 -2.568575,-7.860775 -1.516529,-10.789613 1.052046,-2.928838 3.819359,-2.640731 6.768009,-3.830217 2.94865,-1.189486 5.840945,-0.824513 9.316181,-2.822358 3.475236,-1.997846 8.381713,-16.721083 4.504512,-22.524873 -3.877201,-5.80379 -14.36359,-5.894968 -19.430952,-2.509735 -5.067362,3.385233 -4.942214,12.497521 -2.034699,16.849786 2.907515,4.352265 10.685164,4.024254 14.345825,1.578763 3.660661,-2.445491 3.145494,-8.931675 1.144476,-11.927003 -2.001018,-2.995328 -7.243487,-2.31189 -9.603484,-0.735302 -2.359997,1.576588 -1.532016,5.628819 -0.35623,7.388854 1.175786,1.760035 4.098383,0.819466 5.302424,0.01511 1.204041,-0.804356 0.199745,-2.665614 -0.273801,-3.374466 -0.473546,-0.708852 -1.108337,0.317337 -1.662505,0.476006" />
    <ellipse
       style="color:#000000;display:inline;overflow:visible;visibility:visible;opacity:1;fill:#ffffff;fill-opacity:1;fill-rule:nonzero;stroke:none;stroke-width:4;stroke-linecap:round;stroke-linejoin:round;stroke-miterlimit:4;stroke-dasharray:none;stroke-dashoffset:0;stroke-opacity:1;marker:none;enable-background:accumulate"
       id="path5184"
       cx="32.133678"
       cy="8.7705994"
       rx="3.0000579"
       ry="2.7499368"
       transform="matrix(0.99988826,0.01494898,-0.01483227,0.99989,0,0)" />
    <path
       style="fill:#ffffff;fill-opacity:1;fill-rule:evenodd;stroke:none;stroke-width:1px;stroke-linecap:butt;stroke-linejoin:miter;stroke-opacity:1"
       d="m 19.800289,16.616156 c -0.120231,0.439021 -1.317761,1.179499 -3.12551,-0.06521 0,0 0,-10e-7 0,-10e-7 -0.769535,-0.532387 -1.543035,-1.425344 -1.945872,-2.697754 -0.326209,-1.040433 -0.380628,-2.262942 0.0062,-3.510671 0.350004,-1.1170641 1.027846,-2.1657033 2.032256,-2.9742868 0.183864,-0.1469238 0.375836,-0.2836291 0.575266,-0.4093665 0.971008,-0.6122041 2.052833,-0.923793 3.129236,-0.9575634 1.439586,-0.03936 2.71603,0.4203396 3.696327,1.1328528 1.191235,0.8726595 1.820397,2.0245885 2.058093,3.0346039 0,0 0,0 0,0 0.553345,2.383626 -0.785754,3.23629 -1.222081,3.158575 -0.604732,-0.107709 -1.062602,-1.120405 -1.843951,-1.760746 0,0 0,-10e-7 0,-10e-7 -0.354469,-0.29418 -0.805687,-0.556109 -1.247696,-0.661098 -0.355535,-0.08883 -0.776649,-0.107572 -1.123526,-0.03139 -0.259583,0.05268 -0.543952,0.16579 -0.782553,0.315259 -0.04953,0.03103 -0.09678,0.06345 -0.141211,0.09703 -0.245273,0.179684 -0.474271,0.442296 -0.626687,0.702395 -0.174911,0.290856 -0.291276,0.665096 -0.332932,1.014037 -0.05523,0.432826 0.0122,0.914524 0.135355,1.334177 0,0 0,0 0,0 0.266034,0.921233 0.915656,1.708295 0.759316,2.279164 z"
       id="path5172"
       inkscape:path-effect="#path-effect5174;#path-effect5176"
       inkscape:original-d="m 19.800289,16.616156 c 0,0 -4.261268,-5.133843 -1.484004,-7.2888484 2.777266,-2.155006 6.687889,4.0000264 6.687889,4.0000264"
       inkscape:connector-curvature="0" />
    <ellipse
       transform="matrix(0.96194881,0.27322973,-0.27311745,0.9619807,0,0)"
       ry="2.2916138"
       rx="2.5000484"
       cy="0.054375902"
       cx="42.133701"
       id="ellipse5216"
       style="color:#000000;display:inline;overflow:visible;visibility:visible;opacity:1;fill:#ffffff;fill-opacity:1;fill-rule:nonzero;stroke:none;stroke-width:4;stroke-linecap:round;stroke-linejoin:round;stroke-miterlimit:4;stroke-dasharray:none;stroke-dashoffset:0;stroke-opacity:1;marker:none;enable-background:accumulate" />
    <ellipse
       style="color:#000000;display:inline;overflow:visible;visibility:visible;opacity:1;fill:#ffffff;fill-opacity:1;fill-rule:nonzero;stroke:none;stroke-width:4;stroke-linecap:round;stroke-linejoin:round;stroke-miterlimit:4;stroke-dasharray:none;stroke-dashoffset:0;stroke-opacity:1;marker:none;enable-background:accumulate"
       id="ellipse5218"
       cx="47.515732"
       cy="-10.067518"
       rx="2.0120895"
       ry="1.8443372"
       transform="matrix(0.85845414,0.51289033,-0.51279012,0.858514,0,0)" />
    <ellipse
       transform="matrix(0.69645724,0.7175983,-0.717517,0.696541,0,0)"
       ry="1.4048469"
       rx="1.5326252"
       cy="-20.769348"
       cx="48.985806"
       id="ellipse5220"
       style="color:#000000;display:inline;overflow:visible;visibility:visible;opacity:1;fill:#ffffff;fill-opacity:1;fill-rule:nonzero;stroke:none;stroke-width:4;stroke-linecap:round;stroke-linejoin:round;stroke-miterlimit:4;stroke-dasharray:none;stroke-dashoffset:0;stroke-opacity:1;marker:none;enable-background:accumulate" />
  </g>
  <g
     style="display:inline"
     inkscape:groupmode="layer"
     inkscape:label="finished copy"
     id="g5222"
     sodipodi:insensitive="true">
    <g
       id="g5244"
       transform="matrix(0.72536098,0,0,0.71756897,8.7201452,8.8669606)">
      <path
         id="path5224"
         style="display:inline;fill:#ffffff;fill-rule:evenodd;stroke:none;stroke-width:1px;stroke-linecap:butt;stroke-linejoin:miter;stroke-opacity:1"
         d="m 17.538759,50.760327 c -0.192183,0.06509 -0.375614,0.147006 -0.548295,0.244735 -0.685972,0.388156 -1.177462,1.005564 -1.408779,1.667713 -0.276152,0.792132 -0.175034,1.617938 0.148973,2.249547 0.275819,0.543924 0.723655,0.931698 1.23665,1.104758 0.308656,0.100401 0.625861,0.108979 0.91723,0.04356 0.351495,-0.07967 0.640248,-0.270638 0.847478,-0.506915 0.248891,-0.28952 0.354475,-0.620523 0.383413,-0.903278 0.07183,-0.731464 -0.25237,-0.996138 -0.146495,-1.083437 -0.02366,0.01951 0.496728,0.133973 0.580289,1.081496 0,1e-6 0,2e-6 0,2e-6 0.02935,0.357031 -0.03187,0.816636 -0.325415,1.26707 -0.246089,0.364096 -0.617722,0.694751 -1.120747,0.866863 -0.413631,0.140036 -0.879192,0.184914 -1.3513,0.0797 -0.771887,-0.195566 -1.500158,-0.667315 -1.939084,-1.412058 -0.522345,-0.842096 -0.782796,-1.97045 -0.459858,-3.156126 0.273039,-0.976437 0.894749,-1.911252 1.872974,-2.54067 1.185178,-0.745625 2.745284,-1.026272 4.283789,-0.502883 1.311297,0.456644 2.486351,1.405684 3.191176,2.761618 -1e-6,2e-6 3e-6,5e-6 3e-6,5e-6 0.787783,1.529407 0.980999,3.429277 0.307542,5.239108 -0.603258,1.59462 -1.791731,3.002703 -3.433294,3.858506 -1.895674,0.979638 -4.245204,1.209019 -6.463624,0.393402 C 13.426513,61.257212 12.772965,60.91352 12.166756,60.487789 11.016362,59.679883 10.034204,58.563348 9.3743251,57.207978 8.2114183,54.79053 8.1279787,51.84591 9.3457926,49.245263 c 1.1448154,-2.410135 3.2708214,-4.289162 5.8554224,-5.129592 1.874988,-0.588173 3.774772,-0.651378 5.562577,-0.460687 0,0 2e-6,0 2e-6,0 1.768128,0.177021 3.419582,0.535345 5.008966,0.784673 4.021395,0.607975 7.949679,0.584418 11.388146,-0.729846 0,0 2e-6,0 2e-6,0 0.05011,-0.01884 0.100084,-0.03794 0.149913,-0.05729 2.28944,-0.889115 5.383831,-2.81146 7.478244,-6.238814 1.661932,-2.712295 2.502329,-6.132285 2.055622,-9.483016 -0.481896,-3.639197 -2.409414,-6.771869 -4.82671,-8.666396 -2.458194,-1.941468 -5.176276,-2.509318 -6.95783,-2.612978 -0.775323,-0.04511 -1.55711,-0.009 -2.326609,0.119206 -2.735275,0.434418 -5.420056,2.025477 -7.12164,4.364137 -1.671534,2.278642 -2.434031,5.328291 -1.989833,8.17483 2e-6,0 0,5e-6 0,5e-6 0.377083,2.390697 1.581697,4.689834 3.406275,6.180816 1.840459,1.516175 4.3606,2.265003 6.618159,1.866541 1.972843,-0.327425 3.812932,-1.5013 4.932959,-3.08943 1.183784,-1.66235 1.625547,-3.830726 1.260854,-5.745593 -0.310246,-1.609956 -1.155472,-3.084439 -2.345697,-4.013596 -1.270542,-1.000496 -2.949334,-1.423977 -4.384243,-1.126028 -1.244927,0.24733 -2.354974,0.999239 -2.99716,1.964202 -0.72372,1.074334 -0.911054,2.436392 -0.601271,3.540578 0.243862,0.872405 0.763367,1.616123 1.41326,2.066526 0.752651,0.526242 1.672584,0.686241 2.419818,0.515649 0.307854,-0.069 0.587207,-0.181783 0.821872,-0.336155 0.258005,-0.169658 0.466219,-0.38253 0.605826,-0.616275 0.15841,-0.264506 0.23763,-0.553335 0.237785,-0.819673 9.78e-4,-0.31844 -0.10121,-0.609086 -0.253412,-0.821994 0,0 -10e-7,0 -10e-7,0 -0.173061,-0.245798 -0.412896,-0.403423 -0.623892,-0.489421 -0.54241,-0.22203 -0.84682,-0.05641 -0.887148,-0.16927 8.39e-4,0.0023 0.245603,-0.355062 0.992131,-0.230607 0.292482,0.04915 0.653728,0.193679 0.960837,0.506259 0,1e-6 1e-6,2e-6 1e-6,2e-6 0.266867,0.27442 0.484546,0.670297 0.542516,1.150587 0.0478,0.400213 -0.01062,0.843067 -0.2076,1.265496 -0.173307,0.371194 -0.440848,0.718381 -0.793999,0.999068 -0.319914,0.254315 -0.69711,0.454212 -1.113267,0.58339 -1.024807,0.314601 -2.287509,0.224541 -3.399335,-0.449077 -0.948521,-0.577907 -1.735964,-1.524998 -2.135647,-2.708073 -0.508508,-1.50855 -0.3879,-3.338173 0.554629,-4.909101 0.847307,-1.400571 2.2859,-2.509161 4.034135,-2.938292 2.027381,-0.485271 4.306874,-0.05273 6.127541,1.282151 1.682924,1.240914 2.896503,3.125864 3.371034,5.26327 0.571938,2.557178 0.105598,5.389471 -1.42939,7.714924 -1.479775,2.226362 -3.859306,3.857651 -6.586382,4.400581 -3.160545,0.60612 -6.50553,-0.260063 -9.053329,-2.27098 -2.517282,-1.997995 -4.160494,-4.918692 -4.703914,-8.029838 -0.664083,-3.774721 0.248899,-7.674475 2.383705,-10.728397 2.263651,-3.218622 5.717607,-5.295334 9.334104,-5.943329 1.047832,-0.181762 2.093334,-0.244265 3.116436,-0.203136 2.830884,0.113802 6.175401,1.120009 9.040778,3.542705 3.119132,2.653282 5.272825,6.64045 5.658205,11.084856 0.348344,4.055797 -0.777907,8.050303 -2.911651,11.252395 -2.361102,3.535129 -5.686346,5.812264 -8.848394,7.03876 -0.05755,0.02232 -0.11515,0.04434 -0.172807,0.06605 -4.259817,1.580177 -8.763957,1.621378 -12.588446,1.185193 -1.783287,-0.193716 -3.31329,-0.45376 -4.870133,-0.517709 -1.568017,-0.05221 -3.043134,0.05539 -4.27419,0.555368 -1.654186,0.643608 -3.050601,1.985094 -3.681347,3.523375 0,0 0,1e-6 0,1e-6 -0.640832,1.524638 -0.619057,3.4215 0.113593,4.860646 0.369984,0.741755 0.933649,1.42265 1.609614,1.9276 0.341558,0.255146 0.705865,0.458955 1.080728,0.602586 1.194155,0.470702 2.575556,0.398225 3.576193,-0.101223 0.875845,-0.429799 1.572911,-1.163425 1.885385,-1.941067 0.359507,-0.866186 0.330322,-1.872163 -0.0112,-2.582673 -0.300516,-0.63832 -0.82079,-1.146326 -1.355998,-1.354277 -0.613734,-0.251458 -1.333672,-0.205949 -1.786719,0.04971 -0.397501,0.211223 -0.702897,0.561474 -0.829656,0.897119 -0.167221,0.417348 -0.132931,0.887275 0.0047,1.188949 0,0 1e-6,1e-6 1e-6,1e-6 0.146916,0.279226 0.27984,0.461925 0.410723,0.513605 0.08494,0.04818 0.166083,0.07738 0.22511,0.08604 0.0772,0.01491 0.244197,0.01144 0.265053,0.01384 0.04684,0.0067 0.08628,0.02202 0.100813,0.07418 0.01704,0.05785 -0.0088,0.218288 -0.233861,0.348014 -0.11547,0.06678 -0.293983,0.112073 -0.512528,0.08724 0,0 -10e-7,0 -10e-7,0 -0.312331,-0.02854 -0.698321,-0.24685 -1.007041,-0.682543 -0.318154,-0.457279 -0.519661,-1.178337 -0.329308,-1.952348 0.150181,-0.613522 0.559007,-1.255623 1.215542,-1.695284 0.161897,-0.108543 0.3376,-0.203221 0.525313,-0.282056 z"
         inkscape:connector-curvature="0"
         sodipodi:nodetypes="czzzzzzzzzzzzzzzzzzc"
         inkscape:path-effect="#path-effect5236;#path-effect5238"
         inkscape:original-d="m 18.384457,54.015144 c 0.0019,0.432374 0.613899,1.099254 0.0058,1.297122 -0.608049,0.197869 -2.156038,0.544774 -2.492134,-0.488047 -0.336095,-1.03282 -0.421304,-3.334186 1.088446,-3.825482 1.50975,-0.491296 4.603873,-0.265655 5.262644,1.75874 0.658769,2.024395 0.08688,5.948543 -2.482492,6.784658 -2.569378,0.836116 -7.70338,-0.01729 -8.725217,-3.157385 -1.021836,-3.140099 0.213963,-9.388267 4.692251,-10.747928 4.478289,-1.359664 6.734873,-0.298338 9.862983,0.143057 3.128111,0.441344 7.872486,-0.975326 11.979098,-0.967704 4.10661,0.0076 11.271882,-9.545607 10.804872,-17.046205 C 47.9137,20.265371 38.656799,14.533808 32.426981,14.962442 c -6.229818,0.428633 -10.786369,8.994545 -10.436158,14.619247 0.350211,5.624702 7.418617,9.506757 11.919035,9.197112 4.500419,-0.309645 7.365774,-6.636345 7.124752,-10.507393 -0.241023,-3.87105 -5.242259,-6.056516 -8.143641,-5.856892 -2.901383,0.199627 -4.242464,4.424754 -4.10084,6.699358 0.141625,2.274603 3.216362,2.971094 4.696612,2.869247 1.480248,-0.101842 1.542621,-2.378514 1.485583,-3.294608 -0.05704,-0.916094 -1.145875,-0.300834 -1.718812,-0.451253" />
      <g
         id="g5509"
         inkscape:transform-center-x="-8.6599795"
         inkscape:transform-center-y="-11.505964"
         transform="matrix(0.97028504,0.06349157,-0.06349157,0.97028504,4.3955898,-3.4356626)">
        <ellipse
           transform="matrix(0.85845414,0.51289033,-0.51279012,0.858514,0,0)"
           ry="2.7499368"
           rx="3.0000579"
           cy="-12.701289"
           cx="43.522457"
           id="ellipse5226"
           style="color:#000000;display:inline;overflow:visible;visibility:visible;opacity:1;fill:#ffffff;fill-opacity:1;fill-rule:nonzero;stroke:none;stroke-width:4;stroke-linecap:round;stroke-linejoin:round;stroke-miterlimit:4;stroke-dasharray:none;stroke-dashoffset:0;stroke-opacity:1;marker:none;enable-background:accumulate" />
        <path
           inkscape:connector-curvature="0"
           inkscape:original-d="m 29.040465,12.045831 c 0,0 -1.255755,-6.552695 2.216596,-7.100441 3.472352,-0.5477457 3.9283,6.730268 3.9283,6.730268"
           inkscape:path-effect="#path-effect5240;#path-effect5242"
           id="path5228"
           d="m 29.040465,12.045831 c -0.317117,0.326544 -1.723305,0.397405 -2.706253,-1.565009 0,0 -1e-6,0 -1e-6,0 -0.417207,-0.8375908 -0.663933,-1.9929263 -0.402919,-3.3018099 0.216217,-1.0687202 0.758345,-2.1658014 1.699112,-3.0721105 0.845501,-0.8096071 1.945151,-1.4011157 3.215038,-1.6248012 0.231933,-0.03999 0.466039,-0.067118 0.701387,-0.08104 1.145885,-0.067787 2.243809,0.1812057 3.20295,0.670931 1.279959,0.6600454 2.17625,1.6785231 2.691168,2.7755713 0.622423,1.3390909 0.617779,2.6516314 0.338706,3.6510049 0,0 0,6e-7 0,6e-7 -0.66528,2.3548378 -2.249595,2.4556658 -2.594292,2.1770898 -0.477736,-0.386096 -0.390226,-1.494039 -0.7657,-2.4318888 0,0 -10e-7,-3e-7 -10e-7,-3e-7 C 34.251097,8.8150769 33.982231,8.367958 33.645715,8.0627508 33.377147,7.813419 33.017326,7.5938347 32.676735,7.4932138 32.423946,7.4141201 32.120288,7.3760063 31.839181,7.3918179 c -0.05835,0.00328 -0.115384,0.00888 -0.170501,0.016862 -0.301528,0.039059 -0.62881,0.1586088 -0.887798,0.3129038 -0.293531,0.1703834 -0.576009,0.4420497 -0.780841,0.7275996 -0.257194,0.3524773 -0.43052,0.8069416 -0.525107,1.233941 0,0 0,3e-7 0,3e-7 -0.211419,0.9352778 -0.02211,1.9380938 -0.434469,2.3627068 z"
           style="fill:#ffffff;fill-opacity:1;fill-rule:evenodd;stroke:none;stroke-width:1px;stroke-linecap:butt;stroke-linejoin:miter;stroke-opacity:1" />
        <ellipse
           style="color:#000000;display:inline;overflow:visible;visibility:visible;opacity:1;fill:#ffffff;fill-opacity:1;fill-rule:nonzero;stroke:none;stroke-width:4;stroke-linecap:round;stroke-linejoin:round;stroke-miterlimit:4;stroke-dasharray:none;stroke-dashoffset:0;stroke-opacity:1;marker:none;enable-background:accumulate"
           id="ellipse5230"
           cx="47.555897"
           cy="-23.883936"
           rx="2.5000484"
           ry="2.2916138"
           transform="matrix(0.69645724,0.71759829,-0.717517,0.696541,0,0)" />
        <ellipse
           transform="matrix(0.48699793,0.87340312,-0.87334627,0.48709987,0,0)"
           ry="1.8443372"
           rx="2.0120895"
           cy="-34.925812"
           cx="47.50909"
           id="ellipse5232"
           style="color:#000000;display:inline;overflow:visible;visibility:visible;opacity:1;fill:#ffffff;fill-opacity:1;fill-rule:nonzero;stroke:none;stroke-width:4;stroke-linecap:round;stroke-linejoin:round;stroke-miterlimit:4;stroke-dasharray:none;stroke-dashoffset:0;stroke-opacity:1;marker:none;enable-background:accumulate" />
        <ellipse
           style="color:#000000;display:inline;overflow:visible;visibility:visible;opacity:1;fill:#ffffff;fill-opacity:1;fill-rule:nonzero;stroke:none;stroke-width:4;stroke-linecap:round;stroke-linejoin:round;stroke-miterlimit:4;stroke-dasharray:none;stroke-dashoffset:0;stroke-opacity:1;marker:none;enable-background:accumulate"
           id="ellipse5234"
           cx="43.0742"
           cy="-44.681129"
           rx="1.5326252"
           ry="1.4048469"
           transform="matrix(0.24435051,0.96968697,-0.96965844,0.2444637,0,0)" />
      </g>
    </g>
    <path
       inkscape:connector-curvature="0"
       id="path5300"
       d="m -19.584077,13.459658 c -0.916959,-1.471535 -0.654737,-3.9408147 1.126583,-4.7059575 0.604659,-0.2597232 1.439138,1.6881645 2.138582,1.6881645 0.511779,0 1.824035,-1.8312353 2.289089,-1.6881645 2.042962,0.6285034 4.7109107,2.4399435 4.7109107,4.6881645 0,2.103746 -2.8697727,3.802036 -4.7109107,4.539858 -0.574335,0.23016 -1.632835,-1.539858 -2.289089,-1.539858 -0.831955,0 -1.448231,1.89981 -2.138582,1.539858 -1.599876,-0.834186 -1.979997,-3.152509 -1.126583,-4.522065 z"
       sodipodi:nodetypes="csssssssc" />
  </g>
  <rect
     y="8.430707"
     x="77.685013"
     height="13.064048"
     width="13.064048"
     id="rect4173"
     style="display:inline;opacity:1;fill:#000000;fill-opacity:1;fill-rule:nonzero;stroke:none;stroke-width:2;stroke-miterlimit:4;stroke-dasharray:none;stroke-opacity:1" />
  <rect
     style="display:inline;opacity:1;fill:#00b8cc;fill-opacity:1;fill-rule:nonzero;stroke:none;stroke-width:2;stroke-miterlimit:4;stroke-dasharray:none;stroke-opacity:1"
     id="rect4167"
     width="13.064048"
     height="13.064048"
     x="77.685013"
     y="21.260817" />
  <rect
     y="34.090923"
     x="77.685013"
     height="13.064048"
     width="13.064048"
     id="rect4169"
     style="display:inline;opacity:1;fill:#cc00b8;fill-opacity:1;fill-rule:nonzero;stroke:none;stroke-width:2;stroke-miterlimit:4;stroke-dasharray:none;stroke-opacity:1" />
  <rect
     style="display:inline;opacity:1;fill:#ffff00;fill-opacity:1;fill-rule:nonzero;stroke:none;stroke-width:2;stroke-miterlimit:4;stroke-dasharray:none;stroke-opacity:1"
     id="rect4171"
     width="13.064048"
     height="13.064048"
     x="77.685013"
     y="46.921032" />
  <circle
     style="display:inline;opacity:1;fill:#006975;fill-opacity:1;fill-rule:nonzero;stroke:none;stroke-width:2;stroke-miterlimit:4;stroke-dasharray:none;stroke-opacity:1"
     id="path4175"
     cx="84.398476"
     cy="21.274168"
     r="4.3546824" />
  <circle
     r="4.3546824"
     cy="34.104275"
     cx="84.398476"
     id="circle4177"
     style="display:inline;opacity:1;fill:#7a4ac0;fill-opacity:1;fill-rule:nonzero;stroke:none;stroke-width:2;stroke-miterlimit:4;stroke-dasharray:none;stroke-opacity:1" />
  <circle
     style="display:inline;opacity:1;fill:#ea974b;fill-opacity:1;fill-rule:nonzero;stroke:none;stroke-width:2;stroke-miterlimit:4;stroke-dasharray:none;stroke-opacity:1"
     id="circle4179"
     cx="84.398476"
     cy="46.934383"
     r="4.3546824" />
  <g
     inkscape:groupmode="layer"
     id="layer3"
     inkscape:label="Guide"
     style="display:none;opacity:0.4"
     sodipodi:insensitive="true">
    <path
       sodipodi:type="spiral"
       style="fill:none;fill-rule:evenodd;stroke:#cc00b8;stroke-width:1.05651665px;stroke-linecap:butt;stroke-linejoin:miter;stroke-opacity:1"
       id="path4207"
       sodipodi:cx="30.780703"
       sodipodi:cy="29.31151"
       sodipodi:expansion="1.25"
       sodipodi:revolution="2.6900001"
       sodipodi:radius="16.864763"
       sodipodi:argument="-15.783574"
       sodipodi:t0="0.062564455"
       d="m 30.487566,28.872714 c 0.08895,-0.782495 1.152186,-0.780451 1.662506,-0.476006 1.198234,0.71484 1.069552,2.415218 0.2738,3.374466 -1.35725,1.636114 -3.874762,1.365075 -5.302424,-0.01511 -2.107006,-2.036943 -1.670961,-5.471252 0.356231,-7.388854 2.754072,-2.605187 7.17522,-1.987298 9.603484,0.735302 3.126343,3.505295 2.313439,8.96895 -1.144476,11.927003 -4.287229,3.667485 -10.840413,2.648681 -14.345825,-1.578763 -4.22643,-5.096973 -2.992387,-12.780815 2.034699,-16.849786 5.932113,-4.801508 14.783404,-3.344 19.430951,2.509735 5.391392,6.79063 3.703035,16.842806 -3.001909,22.082931 -0.602586,0.47094 -1.237594,0.900314 -1.898827,1.284572" />
    <path
       sodipodi:type="spiral"
       style="fill:none;fill-rule:evenodd;stroke:#cc00b8;stroke-width:1px;stroke-linecap:butt;stroke-linejoin:miter;stroke-opacity:1"
       id="path4209"
       sodipodi:cx="28.670757"
       sodipodi:cy="55.868275"
       sodipodi:expansion="1.25"
       sodipodi:revolution="2.0382345"
       sodipodi:radius="9.0006094"
       sodipodi:argument="-14.462026"
       sodipodi:t0="0.082570575"
       d="m 28.937197,55.572097 c 0.589048,-0.08065 0.785556,0.697614 0.657855,1.127666 -0.299844,1.009767 -1.567828,1.232277 -2.417817,0.828732 -1.449759,-0.688295 -1.720292,-2.580616 -0.976396,-3.882141 1.097875,-1.920848 3.691666,-2.241391 5.472128,-1.115378 2.418872,1.529763 2.790151,4.879403 1.250467,7.162975 -1.982314,2.940056 -6.130985,3.362802 -8.939094,1.383811 -3.481579,-2.453613 -3.956585,-7.437742 -1.516529,-10.789613 1.296753,-1.781332 3.280411,-2.990604 5.442184,-3.388275" />
    <circle
       style="color:#000000;display:inline;overflow:visible;visibility:visible;opacity:1;fill:none;fill-opacity:1;fill-rule:nonzero;stroke:#ff3c82;stroke-width:0.98073745;stroke-linecap:round;stroke-linejoin:round;stroke-miterlimit:4;stroke-dasharray:none;stroke-dashoffset:0;stroke-opacity:1;marker:none;enable-background:accumulate"
       id="path4317"
       cx="32.02953"
       cy="29.970486"
       r="17.510525" />
  </g>
</svg>
