<?xml version="1.0" encoding="UTF-8" standalone="no"?>
<!-- Created with Inkscape (http://www.inkscape.org/) -->

<svg
   xmlns:dc="http://purl.org/dc/elements/1.1/"
   xmlns:cc="http://creativecommons.org/ns#"
   xmlns:rdf="http://www.w3.org/1999/02/22-rdf-syntax-ns#"
   xmlns:svg="http://www.w3.org/2000/svg"
   xmlns="http://www.w3.org/2000/svg"
   xmlns:sodipodi="http://sodipodi.sourceforge.net/DTD/sodipodi-0.dtd"
   xmlns:inkscape="http://www.inkscape.org/namespaces/inkscape"
   width="64"
   height="64"
   id="svg4284"
   version="1.1"
   inkscape:version="0.91pre2_64bit r13532"
   viewBox="0 0 64 64"
   sodipodi:docname="icon7.svg">
  <sodipodi:namedview
     id="base"
     pagecolor="#ffffff"
     bordercolor="#666666"
     borderopacity="1.0"
     inkscape:pageopacity="0.0"
     inkscape:pageshadow="2"
     inkscape:zoom="8"
     inkscape:cx="18.635279"
     inkscape:cy="35.263088"
     inkscape:current-layer="g5222"
     showgrid="false"
     inkscape:document-units="px"
     inkscape:grid-bbox="true"
     showguides="false"
     inkscape:window-width="1600"
     inkscape:window-height="838"
     inkscape:window-x="-8"
     inkscape:window-y="-8"
     inkscape:window-maximized="1">
    <sodipodi:guide
       position="0,0"
       orientation="0,64"
       id="guide4953" />
    <sodipodi:guide
       position="64,0"
       orientation="-64,0"
       id="guide4955" />
    <sodipodi:guide
       position="64,64"
       orientation="0,-64"
       id="guide4957" />
    <sodipodi:guide
       position="0,64"
       orientation="64,0"
       id="guide4959" />
    <sodipodi:guide
       orientation="-0.8660254,-0.5"
       position="32,32"
       id="guide4968" />
    <sodipodi:guide
       orientation="-0.850903524534,0.850903524534"
       position="64.0,64.0"
       id="guide4970" />
    <sodipodi:guide
       id="guide5115"
       position="0,64.0"
       orientation="0,64.0" />
    <sodipodi:guide
       id="guide5117"
       position="64.0,0"
       orientation="0,64.0" />
    <sodipodi:guide
       id="guide5119"
       position="0,64.0"
       orientation="64.0,0" />
    <sodipodi:guide
       id="guide5121"
       position="64.0,0"
       orientation="64.0,0" />
    <sodipodi:guide
       id="guide5123"
       position="0,57.6"
       orientation="0,64.0" />
    <sodipodi:guide
       id="guide5125"
       position="0,6.4"
       orientation="0,64.0" />
    <sodipodi:guide
       id="guide5127"
       position="6.4,0"
       orientation="64.0,0" />
    <sodipodi:guide
       id="guide5129"
       position="57.6,0"
       orientation="64.0,0" />
    <sodipodi:guide
       id="guide5131"
       position="0,23.4667"
       orientation="0,51.2" />
    <sodipodi:guide
       id="guide5133"
       position="0,40.5333"
       orientation="0,51.2" />
    <sodipodi:guide
       id="guide5135"
       position="32.0,0"
       orientation="51.2,0" />
    <inkscape:grid
       type="xygrid"
       id="grid5164" />
    <sodipodi:guide
       orientation="-0.96592583,0.25881905"
       position="32,32"
       id="guide4340" />
    <sodipodi:guide
       id="guide4446"
       position="32,32"
       orientation="-0.8660254,0.5" />
    <sodipodi:guide
       orientation="-0.5,0.8660254"
       position="32,32"
       id="guide4554" />
    <sodipodi:guide
       id="guide4664"
       position="32,32"
       orientation="-0.96592583,-0.25881905" />
    <sodipodi:guide
       inkscape:color="rgb(0,0,255)"
       inkscape:label=""
       orientation="-0.92387953,0.38268343"
       position="32,32"
       id="guide4776" />
    <sodipodi:guide
       id="guide4890"
       position="32,32"
       orientation="-0.79335334,0.60876143"
       inkscape:label=""
       inkscape:color="rgb(0,0,255)" />
    <sodipodi:guide
       inkscape:color="rgb(0,0,255)"
       inkscape:label=""
       orientation="-0.60876143,0.79335334"
       position="32,32"
       id="guide5006" />
    <sodipodi:guide
       id="guide5124"
       position="64.0,0"
       orientation="0.525321988818,0.525321988818" />
  </sodipodi:namedview>
  <defs
     id="defs4286">
    <inkscape:path-effect
       effect="skeletal"
       id="path-effect4441"
       is_visible="true"
       pattern="m -0.5,-3.125 16.75,0 c 0,0 -2.77062,2.988581 -5.773918,3.333573 C 7.4727839,0.553565 -0.5,-3.125 -0.5,-3.125 Z"
       copytype="single_stretched"
       prop_scale="1"
       scale_y_rel="false"
       spacing="0"
       normal_offset="0"
       tang_offset="0"
       prop_units="false"
       vertical_pattern="false"
       fuse_tolerance="0"
       pattern-nodetypes="cczc" />
    <inkscape:path-effect
       effect="spiro"
       id="path-effect4439"
       is_visible="true" />
    <inkscape:path-effect
       effect="skeletal"
       id="path-effect4430"
       is_visible="true"
       pattern="m -0.5,-3.125 16.75,0 c 0,0 -2.77062,2.988581 -5.773918,3.333573 C 7.4727839,0.553565 -0.5,-3.125 -0.5,-3.125 Z"
       copytype="single_stretched"
       prop_scale="1"
       scale_y_rel="false"
       spacing="0"
       normal_offset="0"
       tang_offset="0"
       prop_units="false"
       vertical_pattern="false"
       fuse_tolerance="0"
       pattern-nodetypes="cczc" />
    <inkscape:path-effect
       effect="spiro"
       id="path-effect4428"
       is_visible="true" />
    <inkscape:path-effect
       effect="skeletal"
       id="path-effect4419"
       is_visible="true"
       pattern="m -0.5,-3.125 16.75,0 c 0,0 -2.77062,2.988581 -5.773918,3.333573 C 7.4727839,0.553565 -0.5,-3.125 -0.5,-3.125 Z"
       copytype="single_stretched"
       prop_scale="1"
       scale_y_rel="false"
       spacing="0"
       normal_offset="0"
       tang_offset="0"
       prop_units="false"
       vertical_pattern="false"
       fuse_tolerance="0"
       pattern-nodetypes="cczc" />
    <inkscape:path-effect
       effect="spiro"
       id="path-effect4417"
       is_visible="true" />
    <inkscape:path-effect
       effect="skeletal"
       id="path-effect4408"
       is_visible="true"
       pattern="m -0.75,-3.25 16.75,0 c 0,0 -2.77062,2.988581 -5.773918,3.333573 C 7.2227839,0.428565 -0.75,-3.25 -0.75,-3.25 Z"
       copytype="single_stretched"
       prop_scale="1"
       scale_y_rel="false"
       spacing="0"
       normal_offset="0"
       tang_offset="0"
       prop_units="false"
       vertical_pattern="false"
       fuse_tolerance="0"
       pattern-nodetypes="cczc" />
    <inkscape:path-effect
       effect="spiro"
       id="path-effect4406"
       is_visible="true" />
    <inkscape:path-effect
       effect="spiro"
       id="path-effect4402"
       is_visible="true" />
    <inkscape:path-effect
       effect="skeletal"
       id="path-effect4393"
       is_visible="true"
       pattern="M 0,0 16.75,0 10.976082,3.333573 Z"
       copytype="single_stretched"
       prop_scale="1"
       scale_y_rel="false"
       spacing="0"
       normal_offset="0"
       tang_offset="0"
       prop_units="false"
       vertical_pattern="false"
       fuse_tolerance="0" />
    <inkscape:path-effect
       effect="spiro"
       id="path-effect4391"
       is_visible="true" />
    <inkscape:path-effect
       effect="skeletal"
       id="path-effect4382"
       is_visible="true"
       pattern="M 0,0 16.75,0 10.976082,3.333573 Z"
       copytype="single_stretched"
       prop_scale="1"
       scale_y_rel="false"
       spacing="0"
       normal_offset="0"
       tang_offset="0"
       prop_units="false"
       vertical_pattern="false"
       fuse_tolerance="0" />
    <inkscape:path-effect
       effect="spiro"
       id="path-effect4380"
       is_visible="true" />
    <inkscape:path-effect
       effect="skeletal"
       id="path-effect4371"
       is_visible="true"
       pattern="M 0,0 16.75,0 10.976082,3.333573 Z"
       copytype="single_stretched"
       prop_scale="1"
       scale_y_rel="false"
       spacing="0"
       normal_offset="0"
       tang_offset="0"
       prop_units="false"
       vertical_pattern="false"
       fuse_tolerance="0" />
    <inkscape:path-effect
       effect="spiro"
       id="path-effect4369"
       is_visible="true" />
    <inkscape:path-effect
       effect="skeletal"
       id="path-effect4360"
       is_visible="true"
       pattern="M 0,0 16.75,0 10.976082,3.333573 Z"
       copytype="single_stretched"
       prop_scale="1"
       scale_y_rel="false"
       spacing="0"
       normal_offset="0"
       tang_offset="0"
       prop_units="false"
       vertical_pattern="false"
       fuse_tolerance="0" />
    <inkscape:path-effect
       effect="spiro"
       id="path-effect4358"
       is_visible="true" />
    <inkscape:path-effect
       effect="skeletal"
       id="path-effect4349"
       is_visible="true"
       pattern="M 0,0 16.75,0 10.976082,3.333573 Z"
       copytype="single_stretched"
       prop_scale="1"
       scale_y_rel="false"
       spacing="0"
       normal_offset="0"
       tang_offset="0"
       prop_units="false"
       vertical_pattern="false"
       fuse_tolerance="0" />
    <inkscape:path-effect
       effect="spiro"
       id="path-effect4347"
       is_visible="true" />
    <inkscape:path-effect
       effect="skeletal"
       id="path-effect4338"
       is_visible="true"
       pattern="M 0,0 16.75,0 10.976082,3.333573 Z"
       copytype="single_stretched"
       prop_scale="1"
       scale_y_rel="false"
       spacing="0"
       normal_offset="0"
       tang_offset="0"
       prop_units="false"
       vertical_pattern="false"
       fuse_tolerance="0" />
    <inkscape:path-effect
       effect="spiro"
       id="path-effect4336"
       is_visible="true" />
    <inkscape:path-effect
       effect="skeletal"
       id="path-effect4327"
       is_visible="true"
       pattern="M 0,0 16.75,0 10.976082,3.333573 Z"
       copytype="single_stretched"
       prop_scale="1"
       scale_y_rel="false"
       spacing="0"
       normal_offset="0"
       tang_offset="0"
       prop_units="false"
       vertical_pattern="false"
       fuse_tolerance="0" />
    <inkscape:path-effect
       effect="spiro"
       id="path-effect4325"
       is_visible="true" />
    <inkscape:path-effect
       effect="skeletal"
       id="path-effect4321"
       is_visible="true"
       pattern="M 0,5 C 0,2.24 2.24,0 5,0 7.76,0 10,2.24 10,5 10,7.76 7.76,10 5,10 2.24,10 0,7.76 0,5 Z"
       copytype="single_stretched"
       prop_scale="0.5"
       scale_y_rel="false"
       spacing="0"
       normal_offset="0"
       tang_offset="0"
       prop_units="false"
       vertical_pattern="false"
       fuse_tolerance="0" />
    <inkscape:path-effect
       effect="spiro"
       id="path-effect4319"
       is_visible="true" />
    <inkscape:path-effect
       effect="skeletal"
       id="path-effect4315"
       is_visible="true"
       pattern="M 0,5 C 0,2.24 2.24,0 5,0 7.76,0 10,2.24 10,5 10,7.76 7.76,10 5,10 2.24,10 0,7.76 0,5 Z"
       copytype="single_stretched"
       prop_scale="0.5"
       scale_y_rel="false"
       spacing="0"
       normal_offset="0"
       tang_offset="0"
       prop_units="false"
       vertical_pattern="false"
       fuse_tolerance="0" />
    <inkscape:path-effect
       effect="spiro"
       id="path-effect4313"
       is_visible="true" />
    <inkscape:path-effect
       effect="skeletal"
       id="path-effect4309"
       is_visible="true"
       pattern="M 0,5 C 0,2.24 2.24,0 5,0 7.76,0 10,2.24 10,5 10,7.76 7.76,10 5,10 2.24,10 0,7.76 0,5 Z"
       copytype="single_stretched"
       prop_scale="0.5"
       scale_y_rel="false"
       spacing="0"
       normal_offset="0"
       tang_offset="0"
       prop_units="false"
       vertical_pattern="false"
       fuse_tolerance="0" />
    <inkscape:path-effect
       effect="spiro"
       id="path-effect4307"
       is_visible="true" />
    <inkscape:path-effect
       effect="skeletal"
       id="path-effect4303"
       is_visible="true"
       pattern="M 0,5 C 0,2.24 2.24,0 5,0 7.76,0 10,2.24 10,5 10,7.76 7.76,10 5,10 2.24,10 0,7.76 0,5 Z"
       copytype="single_stretched"
       prop_scale="0.5"
       scale_y_rel="false"
       spacing="0"
       normal_offset="0"
       tang_offset="0"
       prop_units="false"
       vertical_pattern="false"
       fuse_tolerance="0" />
    <inkscape:path-effect
       effect="spiro"
       id="path-effect4301"
       is_visible="true" />
    <inkscape:path-effect
       effect="skeletal"
       id="path-effect4297"
       is_visible="true"
       pattern="M 0,5 C 0,2.24 2.24,0 5,0 7.76,0 10,2.24 10,5 10,7.76 7.76,10 5,10 2.24,10 0,7.76 0,5 Z"
       copytype="single_stretched"
       prop_scale="0.5"
       scale_y_rel="false"
       spacing="0"
       normal_offset="0"
       tang_offset="0"
       prop_units="false"
       vertical_pattern="false"
       fuse_tolerance="0" />
    <inkscape:path-effect
       effect="spiro"
       id="path-effect4295"
       is_visible="true" />
    <inkscape:path-effect
       effect="skeletal"
       id="path-effect4245"
       is_visible="true"
       pattern="M 0,0 16.75,0 10.976082,3.333573 Z"
       copytype="single_stretched"
       prop_scale="1"
       scale_y_rel="false"
       spacing="0"
       normal_offset="0"
       tang_offset="0"
       prop_units="false"
       vertical_pattern="false"
       fuse_tolerance="0" />
    <inkscape:path-effect
       effect="spiro"
       id="path-effect4243"
       is_visible="true" />
    <inkscape:path-effect
       effect="skeletal"
       id="path-effect4239"
       is_visible="true"
       pattern="M 0,0 16.75,0 10.976082,3.333573 Z"
       copytype="single_stretched"
       prop_scale="1"
       scale_y_rel="false"
       spacing="0"
       normal_offset="0"
       tang_offset="0"
       prop_units="false"
       vertical_pattern="false"
       fuse_tolerance="0" />
    <inkscape:path-effect
       effect="spiro"
       id="path-effect4237"
       is_visible="true" />
    <inkscape:path-effect
       effect="skeletal"
       id="path-effect4233"
       is_visible="true"
       pattern="M 0,0 16.75,0 10.976082,3.333573 Z"
       copytype="single_stretched"
       prop_scale="2"
       scale_y_rel="false"
       spacing="0"
       normal_offset="0"
       tang_offset="0"
       prop_units="false"
       vertical_pattern="false"
       fuse_tolerance="0" />
    <inkscape:path-effect
       effect="spiro"
       id="path-effect4231"
       is_visible="true" />
    <inkscape:path-effect
       effect="skeletal"
       id="path-effect4227"
       is_visible="true"
       pattern="M 0,0 16.75,0 10.976082,3.333573 Z"
       copytype="single_stretched"
       prop_scale="2"
       scale_y_rel="false"
       spacing="0"
       normal_offset="0"
       tang_offset="0"
       prop_units="false"
       vertical_pattern="false"
       fuse_tolerance="0" />
    <inkscape:path-effect
       effect="spiro"
       id="path-effect4225"
       is_visible="true" />
    <inkscape:path-effect
       effect="skeletal"
       id="path-effect4221"
       is_visible="true"
       pattern="M 0,0 16.75,0 10.976082,3.333573 Z"
       copytype="single_stretched"
       prop_scale="2"
       scale_y_rel="false"
       spacing="0"
       normal_offset="0"
       tang_offset="0"
       prop_units="false"
       vertical_pattern="false"
       fuse_tolerance="0" />
    <inkscape:path-effect
       effect="spiro"
       id="path-effect4219"
       is_visible="true" />
    <inkscape:path-effect
       effect="skeletal"
       id="path-effect4215"
       is_visible="true"
       pattern="m -1.5,-2.25 16.75,0 c 0,0 -2.77062,2.988581 -5.773918,3.333573 C 6.4727839,1.428565 -1.5,-2.25 -1.5,-2.25 Z"
       copytype="single_stretched"
       prop_scale="1"
       scale_y_rel="false"
       spacing="0"
       normal_offset="0"
       tang_offset="0"
       prop_units="false"
       vertical_pattern="false"
       fuse_tolerance="0"
       pattern-nodetypes="cczc" />
    <inkscape:path-effect
       effect="spiro"
       id="path-effect4213"
       is_visible="true" />
    <inkscape:path-effect
       effect="skeletal"
       id="path-effect4209"
       is_visible="true"
       pattern="m -0.125,-3 16.75,0 -5.773918,3.333573 z"
       copytype="single_stretched"
       prop_scale="1"
       scale_y_rel="false"
       spacing="0"
       normal_offset="0"
       tang_offset="0"
       prop_units="false"
       vertical_pattern="false"
       fuse_tolerance="0" />
    <inkscape:path-effect
       effect="spiro"
       id="path-effect4207"
       is_visible="true" />
    <inkscape:path-effect
       effect="skeletal"
       id="path-effect5275"
       is_visible="true"
       pattern="M 0,5 C 0,2.24 2.24,0 5,0 7.76,0 10,2.24 10,5 10,7.76 7.76,10 5,10 2.24,10 0,7.76 0,5 Z"
       copytype="single_stretched"
       prop_scale="1"
       scale_y_rel="false"
       spacing="0"
       normal_offset="0"
       tang_offset="0"
       prop_units="false"
       vertical_pattern="false"
       fuse_tolerance="0" />
    <inkscape:path-effect
       effect="spiro"
       id="path-effect5273"
       is_visible="true" />
    <inkscape:path-effect
       fuse_tolerance="0"
       vertical_pattern="false"
       prop_units="false"
       tang_offset="0"
       normal_offset="0"
       spacing="0"
       scale_y_rel="false"
       prop_scale="0.5"
       copytype="single_stretched"
       pattern="m -3.0670614,7.1705964 c 0,-2.76 2.24000036,-5 5.0000004,-5 2.76,0 5,2.24 5,5 0,2.7599999 -2.24,4.9999986 -5,4.9999986 -2.76000004,0 -5.0000004,-2.2399987 -5.0000004,-4.9999986 z"
       is_visible="true"
       id="path-effect5242"
       effect="skeletal" />
    <inkscape:path-effect
       is_visible="true"
       id="path-effect5240"
       effect="spiro" />
    <inkscape:path-effect
       pattern-nodetypes="csssssssc"
       fuse_tolerance="0"
       vertical_pattern="false"
       prop_units="false"
       tang_offset="0"
       normal_offset="0"
       spacing="0"
       scale_y_rel="false"
       prop_scale="0.4"
       copytype="single_stretched"
       pattern="m 0.51631974,4.7297997 c -0.916959,-1.471535 -0.654737,-3.94081471 1.12658296,-4.70595751 0.604659,-0.2597232 1.439138,1.68816451 2.138582,1.68816451 0.511779,0 1.824035,-1.83123531 2.289089,-1.68816451 2.042962,0.6285034 4.7109103,2.43994351 4.7109103,4.68816451 0,2.103746 -2.8697723,3.802036 -4.7109103,4.539858 -0.574335,0.23016 -1.632835,-1.539858 -2.289089,-1.539858 -0.831955,0 -1.448231,1.89981 -2.138582,1.539858 -1.59987596,-0.834186 -1.97999696,-3.152509 -1.12658296,-4.522065 z"
       is_visible="true"
       id="path-effect5238"
       effect="skeletal" />
    <inkscape:path-effect
       is_visible="true"
       id="path-effect5236"
       effect="spiro" />
    <inkscape:path-effect
       effect="skeletal"
       id="path-effect4258"
       is_visible="true"
       pattern="m 0.38648555,0.79549515 c 0,0.43933985 -0.672738,2.12132045 -1.50260195,2.12132045 -0.8298637,0 -1.5026017,-1.6819806 -1.5026017,-2.12132045 0,-0.43933984 0.672738,-2.12132035 1.5026017,-2.12132035 0.82986395,0 1.50260195,1.68198053 1.50260195,2.12132035 z"
       copytype="single_stretched"
       prop_scale="1"
       scale_y_rel="false"
       spacing="0"
       normal_offset="0"
       tang_offset="0"
       prop_units="false"
       vertical_pattern="false"
       fuse_tolerance="0"
       pattern-nodetypes="sssss" />
    <inkscape:path-effect
       effect="spiro"
       id="path-effect4256"
       is_visible="true" />
    <inkscape:path-effect
       effect="spiro"
       id="path-effect4200"
       is_visible="true" />
    <inkscape:perspective
       sodipodi:type="inkscape:persp3d"
       inkscape:vp_x="0 : 32 : 1"
       inkscape:vp_y="0 : 1000 : 0"
       inkscape:vp_z="64 : 32 : 1"
       inkscape:persp3d-origin="32 : 21.333333 : 1"
       id="perspective4177" />
    <inkscape:path-effect
       effect="skeletal"
       id="path-effect5182"
       is_visible="true"
       pattern="m -1.0746973,5.2149394 c 0,-2.76 2.2399999,-4.99999993 5,-4.99999993 2.76,0 5,2.23999993 5,4.99999993 0,2.76 -2.24,4.9999996 -5,4.9999996 -2.7600001,0 -5,-2.2399996 -5,-4.9999996 z"
       copytype="single_stretched"
       prop_scale="0.8"
       scale_y_rel="false"
       spacing="0"
       normal_offset="0"
       tang_offset="0"
       prop_units="false"
       vertical_pattern="false"
       fuse_tolerance="0" />
    <inkscape:path-effect
       effect="spiro"
       id="path-effect5180"
       is_visible="true" />
    <inkscape:path-effect
       effect="skeletal"
       id="path-effect5176"
       is_visible="true"
       pattern="m -1.4497976,7.8856712 c 0,-2.76 2.24000042,-5 5.0000004,-5 2.76,0 5,2.24 5,5 0,2.7600008 -2.24,4.9999998 -5,4.9999998 -2.75999998,0 -5.0000004,-2.239999 -5.0000004,-4.9999998 z"
       copytype="single_stretched"
       prop_scale="0.5"
       scale_y_rel="false"
       spacing="0"
       normal_offset="0"
       tang_offset="0"
       prop_units="false"
       vertical_pattern="false"
       fuse_tolerance="0" />
    <inkscape:path-effect
       effect="spiro"
       id="path-effect5174"
       is_visible="true" />
    <inkscape:path-effect
       effect="skeletal"
       id="path-effect5170"
       is_visible="true"
       pattern="M 0,5 C 0,2.24 2.24,0 5,0 7.76,0 10,2.24 10,5 10,7.76 7.76,10 5,10 2.24,10 0,7.76 0,5 Z"
       copytype="single_stretched"
       prop_scale="0.5"
       scale_y_rel="false"
       spacing="0"
       normal_offset="0"
       tang_offset="0"
       prop_units="false"
       vertical_pattern="false"
       fuse_tolerance="0" />
    <inkscape:path-effect
       effect="spiro"
       id="path-effect5168"
       is_visible="true" />
  </defs>
  <metadata
     id="metadata4289">
    <rdf:RDF>
      <cc:Work
         rdf:about="">
        <dc:format>image/svg+xml</dc:format>
        <dc:type
           rdf:resource="http://purl.org/dc/dcmitype/StillImage" />
        <dc:title></dc:title>
      </cc:Work>
    </rdf:RDF>
  </metadata>
  <g
     inkscape:groupmode="layer"
     id="layer2"
     inkscape:label="fon"
     style="display:inline"
     sodipodi:insensitive="true">
    <rect
       style="color:#000000;display:inline;overflow:visible;visibility:visible;opacity:1;fill:#006975;fill-opacity:1;fill-rule:nonzero;stroke:none;stroke-width:1;stroke-linecap:round;stroke-linejoin:round;stroke-miterlimit:4;stroke-dasharray:none;stroke-dashoffset:0;stroke-opacity:1;marker:none;enable-background:accumulate"
       id="rect4205"
       width="64"
       height="64"
       x="0"
       y="-5.1070259e-015" />
  </g>
  <g
     style="display:inline"
     inkscape:groupmode="layer"
     inkscape:label="finished copy"
     id="g5222">
    <g
       id="g5244"
       transform="matrix(0.72536098,0,0,0.71756897,-68.779855,-18.008039)"
       style="fill:#000000">
      <path
         id="path5224"
         style="display:inline;fill:#000000;fill-rule:evenodd;stroke:none;stroke-width:1px;stroke-linecap:butt;stroke-linejoin:miter;stroke-opacity:1"
         d="m 17.538759,50.760327 c -0.192183,0.06509 -0.375614,0.147006 -0.548295,0.244735 -0.685972,0.388156 -1.177462,1.005564 -1.408779,1.667713 -0.276152,0.792132 -0.175034,1.617938 0.148973,2.249547 0.275819,0.543924 0.723655,0.931698 1.23665,1.104758 0.308656,0.100401 0.625861,0.108979 0.91723,0.04356 0.351495,-0.07967 0.640248,-0.270638 0.847478,-0.506915 0.248891,-0.28952 0.354475,-0.620523 0.383413,-0.903278 0.07183,-0.731464 -0.25237,-0.996138 -0.146495,-1.083437 -0.02366,0.01951 0.496728,0.133973 0.580289,1.081496 0,1e-6 0,2e-6 0,2e-6 0.02935,0.357031 -0.03187,0.816636 -0.325415,1.26707 -0.246089,0.364096 -0.617722,0.694751 -1.120747,0.866863 -0.413631,0.140036 -0.879192,0.184914 -1.3513,0.0797 -0.771887,-0.195566 -1.500158,-0.667315 -1.939084,-1.412058 -0.522345,-0.842096 -0.782796,-1.97045 -0.459858,-3.156126 0.273039,-0.976437 0.894749,-1.911252 1.872974,-2.54067 1.185178,-0.745625 2.745284,-1.026272 4.283789,-0.502883 1.311297,0.456644 2.486351,1.405684 3.191176,2.761618 -1e-6,2e-6 3e-6,5e-6 3e-6,5e-6 0.787783,1.529407 0.980999,3.429277 0.307542,5.239108 -0.603258,1.59462 -1.791731,3.002703 -3.433294,3.858506 -1.895674,0.979638 -4.245204,1.209019 -6.463624,0.393402 C 13.426513,61.257212 12.772965,60.91352 12.166756,60.487789 11.016362,59.679883 10.034204,58.563348 9.3743251,57.207978 8.2114183,54.79053 8.1279787,51.84591 9.3457926,49.245263 c 1.1448154,-2.410135 3.2708214,-4.289162 5.8554224,-5.129592 1.874988,-0.588173 3.774772,-0.651378 5.562577,-0.460687 0,0 2e-6,0 2e-6,0 1.768128,0.177021 3.419582,0.535345 5.008966,0.784673 4.021395,0.607975 7.949679,0.584418 11.388146,-0.729846 0,0 2e-6,0 2e-6,0 0.05011,-0.01884 0.100084,-0.03794 0.149913,-0.05729 2.28944,-0.889115 5.383831,-2.81146 7.478244,-6.238814 1.661932,-2.712295 2.502329,-6.132285 2.055622,-9.483016 -0.481896,-3.639197 -2.409414,-6.771869 -4.82671,-8.666396 -2.458194,-1.941468 -5.176276,-2.509318 -6.95783,-2.612978 -0.775323,-0.04511 -1.55711,-0.009 -2.326609,0.119206 -2.735275,0.434418 -5.420056,2.025477 -7.12164,4.364137 -1.671534,2.278642 -2.434031,5.328291 -1.989833,8.17483 2e-6,0 0,5e-6 0,5e-6 0.377083,2.390697 1.581697,4.689834 3.406275,6.180816 1.840459,1.516175 4.3606,2.265003 6.618159,1.866541 1.972843,-0.327425 3.812932,-1.5013 4.932959,-3.08943 1.183784,-1.66235 1.625547,-3.830726 1.260854,-5.745593 -0.310246,-1.609956 -1.155472,-3.084439 -2.345697,-4.013596 -1.270542,-1.000496 -2.949334,-1.423977 -4.384243,-1.126028 -1.244927,0.24733 -2.354974,0.999239 -2.99716,1.964202 -0.72372,1.074334 -0.911054,2.436392 -0.601271,3.540578 0.243862,0.872405 0.763367,1.616123 1.41326,2.066526 0.752651,0.526242 1.672584,0.686241 2.419818,0.515649 0.307854,-0.069 0.587207,-0.181783 0.821872,-0.336155 0.258005,-0.169658 0.466219,-0.38253 0.605826,-0.616275 0.15841,-0.264506 0.23763,-0.553335 0.237785,-0.819673 9.78e-4,-0.31844 -0.10121,-0.609086 -0.253412,-0.821994 0,0 -10e-7,0 -10e-7,0 -0.173061,-0.245798 -0.412896,-0.403423 -0.623892,-0.489421 -0.54241,-0.22203 -0.84682,-0.05641 -0.887148,-0.16927 8.39e-4,0.0023 0.245603,-0.355062 0.992131,-0.230607 0.292482,0.04915 0.653728,0.193679 0.960837,0.506259 0,1e-6 1e-6,2e-6 1e-6,2e-6 0.266867,0.27442 0.484546,0.670297 0.542516,1.150587 0.0478,0.400213 -0.01062,0.843067 -0.2076,1.265496 -0.173307,0.371194 -0.440848,0.718381 -0.793999,0.999068 -0.319914,0.254315 -0.69711,0.454212 -1.113267,0.58339 -1.024807,0.314601 -2.287509,0.224541 -3.399335,-0.449077 -0.948521,-0.577907 -1.735964,-1.524998 -2.135647,-2.708073 -0.508508,-1.50855 -0.3879,-3.338173 0.554629,-4.909101 0.847307,-1.400571 2.2859,-2.509161 4.034135,-2.938292 2.027381,-0.485271 4.306874,-0.05273 6.127541,1.282151 1.682924,1.240914 2.896503,3.125864 3.371034,5.26327 0.571938,2.557178 0.105598,5.389471 -1.42939,7.714924 -1.479775,2.226362 -3.859306,3.857651 -6.586382,4.400581 -3.160545,0.60612 -6.50553,-0.260063 -9.053329,-2.27098 -2.517282,-1.997995 -4.160494,-4.918692 -4.703914,-8.029838 -0.664083,-3.774721 0.248899,-7.674475 2.383705,-10.728397 2.263651,-3.218622 5.717607,-5.295334 9.334104,-5.943329 1.047832,-0.181762 2.093334,-0.244265 3.116436,-0.203136 2.830884,0.113802 6.175401,1.120009 9.040778,3.542705 3.119132,2.653282 5.272825,6.64045 5.658205,11.084856 0.348344,4.055797 -0.777907,8.050303 -2.911651,11.252395 -2.361102,3.535129 -5.686346,5.812264 -8.848394,7.03876 -0.05755,0.02232 -0.11515,0.04434 -0.172807,0.06605 -4.259817,1.580177 -8.763957,1.621378 -12.588446,1.185193 -1.783287,-0.193716 -3.31329,-0.45376 -4.870133,-0.517709 -1.568017,-0.05221 -3.043134,0.05539 -4.27419,0.555368 -1.654186,0.643608 -3.050601,1.985094 -3.681347,3.523375 0,0 0,1e-6 0,1e-6 -0.640832,1.524638 -0.619057,3.4215 0.113593,4.860646 0.369984,0.741755 0.933649,1.42265 1.609614,1.9276 0.341558,0.255146 0.705865,0.458955 1.080728,0.602586 1.194155,0.470702 2.575556,0.398225 3.576193,-0.101223 0.875845,-0.429799 1.572911,-1.163425 1.885385,-1.941067 0.359507,-0.866186 0.330322,-1.872163 -0.0112,-2.582673 -0.300516,-0.63832 -0.82079,-1.146326 -1.355998,-1.354277 -0.613734,-0.251458 -1.333672,-0.205949 -1.786719,0.04971 -0.397501,0.211223 -0.702897,0.561474 -0.829656,0.897119 -0.167221,0.417348 -0.132931,0.887275 0.0047,1.188949 0,0 1e-6,1e-6 1e-6,1e-6 0.146916,0.279226 0.27984,0.461925 0.410723,0.513605 0.08494,0.04818 0.166083,0.07738 0.22511,0.08604 0.0772,0.01491 0.244197,0.01144 0.265053,0.01384 0.04684,0.0067 0.08628,0.02202 0.100813,0.07418 0.01704,0.05785 -0.0088,0.218288 -0.233861,0.348014 -0.11547,0.06678 -0.293983,0.112073 -0.512528,0.08724 0,0 -10e-7,0 -10e-7,0 -0.312331,-0.02854 -0.698321,-0.24685 -1.007041,-0.682543 -0.318154,-0.457279 -0.519661,-1.178337 -0.329308,-1.952348 0.150181,-0.613522 0.559007,-1.255623 1.215542,-1.695284 0.161897,-0.108543 0.3376,-0.203221 0.525313,-0.282056 z"
         inkscape:connector-curvature="0"
         sodipodi:nodetypes="czzzzzzzzzzzzzzzzzzc"
         inkscape:path-effect="#path-effect5236;#path-effect5238"
         inkscape:original-d="m 18.384457,54.015144 c 0.0019,0.432374 0.613899,1.099254 0.0058,1.297122 -0.608049,0.197869 -2.156038,0.544774 -2.492134,-0.488047 -0.336095,-1.03282 -0.421304,-3.334186 1.088446,-3.825482 1.50975,-0.491296 4.603873,-0.265655 5.262644,1.75874 0.658769,2.024395 0.08688,5.948543 -2.482492,6.784658 -2.569378,0.836116 -7.70338,-0.01729 -8.725217,-3.157385 -1.021836,-3.140099 0.213963,-9.388267 4.692251,-10.747928 4.478289,-1.359664 6.734873,-0.298338 9.862983,0.143057 3.128111,0.441344 7.872486,-0.975326 11.979098,-0.967704 4.10661,0.0076 11.271882,-9.545607 10.804872,-17.046205 C 47.9137,20.265371 38.656799,14.533808 32.426981,14.962442 c -6.229818,0.428633 -10.786369,8.994545 -10.436158,14.619247 0.350211,5.624702 7.418617,9.506757 11.919035,9.197112 4.500419,-0.309645 7.365774,-6.636345 7.124752,-10.507393 -0.241023,-3.87105 -5.242259,-6.056516 -8.143641,-5.856892 -2.901383,0.199627 -4.242464,4.424754 -4.10084,6.699358 0.141625,2.274603 3.216362,2.971094 4.696612,2.869247 1.480248,-0.101842 1.542621,-2.378514 1.485583,-3.294608 -0.05704,-0.916094 -1.145875,-0.300834 -1.718812,-0.451253" />
      <g
         id="g5509"
         inkscape:transform-center-x="-8.6599795"
         inkscape:transform-center-y="-11.505964"
         transform="matrix(0.97028504,0.06349157,-0.06349157,0.97028504,4.3955898,-3.4356626)"
         style="fill:#000000">
        <ellipse
           transform="matrix(0.85845414,0.51289033,-0.51279012,0.858514,0,0)"
           ry="2.7499368"
           rx="3.0000579"
           cy="-12.701289"
           cx="43.522457"
           id="ellipse5226"
           style="color:#000000;display:inline;overflow:visible;visibility:visible;opacity:1;fill:#000000;fill-opacity:1;fill-rule:nonzero;stroke:none;stroke-width:4;stroke-linecap:round;stroke-linejoin:round;stroke-miterlimit:4;stroke-dasharray:none;stroke-dashoffset:0;stroke-opacity:1;marker:none;enable-background:accumulate"
           d="m 46.522515,-12.701289 a 3.0000579,2.7499368 0 0 1 -3.000058,2.7499366 3.0000579,2.7499368 0 0 1 -3.000058,-2.7499366 3.0000579,2.7499368 0 0 1 3.000058,-2.749937 3.0000579,2.7499368 0 0 1 3.000058,2.749937 z" />
        <path
           inkscape:connector-curvature="0"
           inkscape:original-d="m 29.040465,12.045831 c 0,0 -1.255755,-6.552695 2.216596,-7.100441 3.472352,-0.5477457 3.9283,6.730268 3.9283,6.730268"
           inkscape:path-effect="#path-effect5240;#path-effect5242"
           id="path5228"
           d="m 29.040465,12.045831 c -0.317117,0.326544 -1.723305,0.397405 -2.706253,-1.565009 0,0 -1e-6,0 -1e-6,0 -0.417207,-0.8375908 -0.663933,-1.9929263 -0.402919,-3.3018099 0.216217,-1.0687202 0.758345,-2.1658014 1.699112,-3.0721105 0.845501,-0.8096071 1.945151,-1.4011157 3.215038,-1.6248012 0.231933,-0.03999 0.466039,-0.067118 0.701387,-0.08104 1.145885,-0.067787 2.243809,0.1812057 3.20295,0.670931 1.279959,0.6600454 2.17625,1.6785231 2.691168,2.7755713 0.622423,1.3390909 0.617779,2.6516314 0.338706,3.6510049 0,0 0,6e-7 0,6e-7 -0.66528,2.3548378 -2.249595,2.4556658 -2.594292,2.1770898 -0.477736,-0.386096 -0.390226,-1.494039 -0.7657,-2.4318888 0,0 -10e-7,-3e-7 -10e-7,-3e-7 C 34.251097,8.8150769 33.982231,8.367958 33.645715,8.0627508 33.377147,7.813419 33.017326,7.5938347 32.676735,7.4932138 32.423946,7.4141201 32.120288,7.3760063 31.839181,7.3918179 c -0.05835,0.00328 -0.115384,0.00888 -0.170501,0.016862 -0.301528,0.039059 -0.62881,0.1586088 -0.887798,0.3129038 -0.293531,0.1703834 -0.576009,0.4420497 -0.780841,0.7275996 -0.257194,0.3524773 -0.43052,0.8069416 -0.525107,1.233941 0,0 0,3e-7 0,3e-7 -0.211419,0.9352778 -0.02211,1.9380938 -0.434469,2.3627068 z"
           style="fill:#000000;fill-opacity:1;fill-rule:evenodd;stroke:none;stroke-width:1px;stroke-linecap:butt;stroke-linejoin:miter;stroke-opacity:1" />
        <ellipse
           style="color:#000000;display:inline;overflow:visible;visibility:visible;opacity:1;fill:#000000;fill-opacity:1;fill-rule:nonzero;stroke:none;stroke-width:4;stroke-linecap:round;stroke-linejoin:round;stroke-miterlimit:4;stroke-dasharray:none;stroke-dashoffset:0;stroke-opacity:1;marker:none;enable-background:accumulate"
           id="ellipse5230"
           cx="47.555897"
           cy="-23.883936"
           rx="2.5000484"
           ry="2.2916138"
           transform="matrix(0.69645724,0.71759829,-0.717517,0.696541,0,0)"
           d="m 50.055945,-23.883936 a 2.5000484,2.2916138 0 0 1 -2.500048,2.291614 2.5000484,2.2916138 0 0 1 -2.500049,-2.291614 2.5000484,2.2916138 0 0 1 2.500049,-2.291614 2.5000484,2.2916138 0 0 1 2.500048,2.291614 z" />
        <ellipse
           transform="matrix(0.48699793,0.87340312,-0.87334627,0.48709987,0,0)"
           ry="1.8443372"
           rx="2.0120895"
           cy="-34.925812"
           cx="47.50909"
           id="ellipse5232"
           style="color:#000000;display:inline;overflow:visible;visibility:visible;opacity:1;fill:#000000;fill-opacity:1;fill-rule:nonzero;stroke:none;stroke-width:4;stroke-linecap:round;stroke-linejoin:round;stroke-miterlimit:4;stroke-dasharray:none;stroke-dashoffset:0;stroke-opacity:1;marker:none;enable-background:accumulate"
           d="m 49.52118,-34.925812 a 2.0120895,1.8443372 0 0 1 -2.01209,1.844337 2.0120895,1.8443372 0 0 1 -2.012089,-1.844337 2.0120895,1.8443372 0 0 1 2.012089,-1.844337 2.0120895,1.8443372 0 0 1 2.01209,1.844337 z" />
        <ellipse
           style="color:#000000;display:inline;overflow:visible;visibility:visible;opacity:1;fill:#000000;fill-opacity:1;fill-rule:nonzero;stroke:none;stroke-width:4;stroke-linecap:round;stroke-linejoin:round;stroke-miterlimit:4;stroke-dasharray:none;stroke-dashoffset:0;stroke-opacity:1;marker:none;enable-background:accumulate"
           id="ellipse5234"
           cx="43.0742"
           cy="-44.681129"
           rx="1.5326252"
           ry="1.4048469"
           transform="matrix(0.24435051,0.96968697,-0.96965844,0.2444637,0,0)"
           d="m 44.606825,-44.681129 a 1.5326252,1.4048469 0 0 1 -1.532625,1.404846 1.5326252,1.4048469 0 0 1 -1.532626,-1.404846 1.5326252,1.4048469 0 0 1 1.532626,-1.404847 1.5326252,1.4048469 0 0 1 1.532625,1.404847 z" />
      </g>
    </g>
    <path
       inkscape:connector-curvature="0"
       id="path5300"
       d="m -19.584077,13.459658 c -0.916959,-1.471535 -0.654737,-3.9408147 1.126583,-4.7059575 0.604659,-0.2597232 1.439138,1.6881645 2.138582,1.6881645 0.511779,0 1.824035,-1.8312353 2.289089,-1.6881645 2.042962,0.6285034 4.7109107,2.4399435 4.7109107,4.6881645 0,2.103746 -2.8697727,3.802036 -4.7109107,4.539858 -0.574335,0.23016 -1.632835,-1.539858 -2.289089,-1.539858 -0.831955,0 -1.448231,1.89981 -2.138582,1.539858 -1.599876,-0.834186 -1.979997,-3.152509 -1.126583,-4.522065 z"
       sodipodi:nodetypes="csssssssc" />
    <path
       style="fill:#ffffff;fill-rule:evenodd;stroke:none;stroke-width:1px;stroke-linecap:butt;stroke-linejoin:miter;stroke-opacity:1"
       d="m 16.324569,43.62184 c 0.354292,-0.517805 0.843271,-0.907632 1.427001,-1.137642 0.585053,-0.226624 1.208791,-0.271527 1.820272,-0.131041 0.658145,0.161704 1.220029,0.501577 1.642049,0.980504 l 0,10e-7 c 0.416535,0.476615 0.683618,1.028873 0.791829,1.612008 0.106242,0.579342 0.07717,1.148831 -0.07443,1.676135 -0.151141,0.524338 -0.393412,0.992436 -0.7062,1.388858 -0.732507,0.916944 -1.747974,1.493378 -2.854678,1.659623 -1.096574,0.158745 -2.176293,-0.04525 -3.099559,-0.550113 -0.96016,-0.5194 -1.730994,-1.319145 -2.214705,-2.29777 l -1e-6,-1e-6 c -0.48003,-0.980436 -0.643127,-2.079152 -0.468597,-3.156753 0.178579,-1.076937 0.683861,-2.066113 1.45174,-2.842028 0.77079,-0.773024 1.756583,-1.284875 2.832308,-1.470614 -1.01081,0.56596 -1.688943,1.415145 -2.011348,2.28613 0,0 0,1e-6 0,1e-6 -0.321515,0.871869 -0.273441,1.747544 0.01117,2.400816 0.2493,0.575173 0.677109,0.994643 1.119643,1.185371 -0.0052,0.05195 -0.0082,0.10457 -0.0088,0.157605 -0.0086,0.446643 0.178106,0.974753 0.546161,1.402043 0,0 1e-6,0 1e-6,0 0.352872,0.406848 0.890256,0.7467 1.523679,0.842332 0.630807,0.09743 1.381291,-0.04864 2.002149,-0.526961 0.268838,-0.207387 0.510956,-0.476701 0.692985,-0.80954 0,0 0,-1e-6 0,-1e-6 0.182145,-0.333611 0.295426,-0.727604 0.300345,-1.16021 0.0041,-0.434168 -0.110841,-0.890323 -0.372398,-1.315916 0,0 -1e-6,0 -1e-6,0 -0.264662,-0.42689 -0.671619,-0.786977 -1.209587,-1.00511 0,10e-7 -1e-6,0 -1e-6,0 -0.499491,-0.19513 -1.0604,-0.24365 -1.628755,-0.107127 -0.567217,0.139433 -1.093388,0.445511 -1.512266,0.9194 z"
       id="path4205"
       inkscape:path-effect="#path-effect4207;#path-effect4209"
       inkscape:original-d="m 17.702896,44.559066 c 0,0 -1.015545,-1.741026 1.491026,-0.582532 2.506569,1.158494 1.311297,1.478765 0.715303,3.011057 -0.595994,1.532292 -2.549038,1.415064 -3.848076,0.665064 -1.299038,-0.750001 1.090959,-6.656635 1.090959,-6.656635"
       inkscape:connector-curvature="0"
       sodipodi:nodetypes="csssc" />
    <path
       style="fill:#ffffff;fill-rule:evenodd;stroke:none;stroke-width:1px;stroke-linecap:butt;stroke-linejoin:miter;stroke-opacity:1"
       d="m 12.967009,40.470694 c 1.182488,-2.76741 3.117792,-5.186539 5.558134,-6.947667 3.495081,-2.459638 7.538617,-3.505188 11.307263,-4.354495 l 1e-6,0 c 3.743235,-0.907743 7.409219,-1.716312 10.236387,-3.675933 l 2e-6,-2e-6 c 2.116551,-1.424182 3.84191,-3.464319 4.894913,-5.787952 1.055356,-2.322566 1.454617,-4.964462 1.13272,-7.495167 0,0 0.482571,0.729521 0.897933,2.18419 0.412277,1.443867 0.728287,3.672362 0.09611,6.276064 -0.622857,2.561591 -2.139167,5.269407 -4.691059,7.260448 -0.145616,0.113612 -0.298829,0.227205 -0.459567,0.340052 -3.035313,2.080645 -6.680792,2.866213 -11.508664,3.453457 0,-1e-6 -3e-6,0 -3e-6,0 -4.245749,0.555661 -7.780419,0.952042 -11.206811,2.769058 -4.439465,2.375272 -6.257362,5.977947 -6.257362,5.977947 z"
       id="path4211"
       inkscape:path-effect="#path-effect4213;#path-effect4215"
       inkscape:original-d="m 14.5,41.125 c 0,0 2,-5.25 5,-6.25 3,-1 15.25,-6.5 21.5,-8 C 47.25,25.375 47.75,12 47.75,12"
       inkscape:connector-curvature="0"
       sodipodi:nodetypes="cssc" />
    <path
       style="fill:#000000;fill-rule:evenodd;stroke:none;stroke-width:1px;stroke-linecap:butt;stroke-linejoin:miter;stroke-opacity:1"
       d="m 1.5,-4.75 16.75,0 -5.773918,3.333573 z"
       id="path4247"
       inkscape:connector-curvature="0" />
    <path
       style="fill:#ffffff;fill-rule:evenodd;stroke:none;stroke-width:1px;stroke-linecap:butt;stroke-linejoin:miter;stroke-opacity:1"
       d="m 35.093392,33.197095 c 3.175571,-0.05774 6.358004,-1.145404 8.904639,-3.043358 3.104264,-2.304628 5.310625,-5.88476 5.973998,-9.693658 0,0 0.631962,0.969007 0.91227,2.640158 0.283284,1.688891 0.138477,3.990742 -1.162438,6.009573 -0.723874,1.123347 -2.151361,2.392144 -4.028034,3.322428 -2.478394,1.224832 -5.078237,1.564292 -7.243928,1.420555 -2.068068,-0.137258 -3.356507,-0.655698 -3.356507,-0.655698 z"
       id="path4404"
       inkscape:path-effect="#path-effect4406;#path-effect4408"
       inkscape:original-d="M 35.125,34.875 C 41.197738,35.080604 42.321656,32.807596 45,31.5 47.678344,30.192404 51.625,20.75 51.625,20.75"
       inkscape:connector-curvature="0"
       sodipodi:nodetypes="czc" />
    <path
       style="fill:#ffffff;fill-rule:evenodd;stroke:none;stroke-width:1px;stroke-linecap:butt;stroke-linejoin:miter;stroke-opacity:1"
       d="m 13.105331,40.41298 c 1.69388,-3.586484 5.1186,-6.188606 9.027837,-6.8594 3.394879,-0.514729 6.641049,0.260972 9.520032,1.225184 l 2e-6,0 c 2.885421,0.904061 5.56723,1.946079 8.182186,2.045207 l 2e-6,-10e-7 c 2.389961,0.123306 4.83892,-0.468554 6.90879,-1.6697 2.071417,-1.198478 3.80274,-3.028839 4.884257,-5.163655 0,0 0.02487,0.839431 -0.401434,2.22251 -0.423028,1.372455 -1.355028,3.320578 -3.279509,5.01783 0,0 -10e-7,10e-7 -10e-7,10e-7 -1.766657,1.556664 -4.234094,2.751222 -7.077364,2.936707 -0.375372,0.02449 -0.77882,0.02906 -1.205514,0.0083 -2.987659,-0.177631 -5.530065,-1.286221 -8.84822,-2.783968 0,0 -2e-6,-1e-6 -2e-6,-1e-6 -2.781642,-1.214181 -5.444049,-2.331087 -8.41735,-2.259818 -2.958993,0.07418 -5.429045,1.39852 -7.029341,2.745677 -1.587453,1.336345 -2.264371,2.535127 -2.264371,2.535127 z"
       id="path4415"
       inkscape:path-effect="#path-effect4417;#path-effect4419"
       inkscape:original-d="m 14.625,41.125 c 0,0 5.108078,-5.753384 7.786894,-5.916525 C 26.09585,34.98412 37.714785,38.228638 39.75,38.5 43.5,39 53.125,30.75 53.125,30.75"
       inkscape:connector-curvature="0"
       sodipodi:nodetypes="cssc" />
    <path
       style="fill:#ffffff;fill-rule:evenodd;stroke:none;stroke-width:1px;stroke-linecap:butt;stroke-linejoin:miter;stroke-opacity:1"
       d="m 32.022555,40.510193 c 2.467109,1.280012 5.240842,1.993257 8.019386,2.062128 1.694931,0.04245 3.398568,-0.151141 5.040757,-0.572813 0,0 -0.333995,0.87026 -1.113525,1.812358 -0.785493,0.949305 -2.009073,1.922647 -3.471593,2.099737 -0.1647,0.01994 -0.34558,0.02454 -0.539475,0.01421 -1.709463,-0.09135 -3.853764,-1.209531 -5.501465,-2.638521 -1.587431,-1.376721 -2.434085,-2.777101 -2.434085,-2.777101 z"
       id="path4426"
       inkscape:path-effect="#path-effect4428;#path-effect4430"
       inkscape:original-d="m 31.25,42 c 3.161844,2.860911 5.718533,2.197715 8.75,2.25 3.031467,0.05228 5.5,-0.625 5.5,-0.625"
       inkscape:connector-curvature="0"
       sodipodi:nodetypes="czc" />
    <path
       style="fill:#ffffff;fill-rule:evenodd;stroke:none;stroke-width:1px;stroke-linecap:butt;stroke-linejoin:miter;stroke-opacity:1"
       d="m 12.977313,40.544459 c 0.621453,-1.33769 1.615234,-2.473084 2.858837,-3.266223 1.245193,-0.790641 2.694622,-1.210016 4.169615,-1.206429 1.552084,0.02204 3.007658,0.460955 4.261264,1.149579 l 10e-7,0 c 1.249397,0.681054 2.320105,1.536777 3.259242,2.432574 l 0,1e-6 c 1.879883,1.773956 3.362818,3.671079 5.047606,5.056407 1.027953,0.85606 2.169687,1.579158 3.38299,2.14256 0,0 -2.084272,0.596451 -4.842943,-0.389287 -1.418543,-0.509506 -2.817404,-1.379682 -3.996422,-2.462674 -0.578128,-0.531041 -1.131272,-1.205463 -1.797081,-2.007481 -0.66747,-0.795233 -1.413228,-1.708266 -2.296704,-2.45629 -0.861688,-0.727293 -1.858211,-1.345305 -3.024247,-1.633236 -1.232814,-0.306315 -2.51758,-0.205053 -3.646802,0.185949 -2.298318,0.798202 -3.375356,2.45455 -3.375356,2.45455 z"
       id="path4437"
       inkscape:path-effect="#path-effect4439;#path-effect4441"
       inkscape:original-d="m 14.5,41.25 c 0,0 2.75,-4 5.5,-3.5 2.75,0.5 5.375,1.5 6.375,3.125 1,1.625 4.125,3.375 5.125,5.125 1,1.75 3.75,2.375 3.75,2.375"
       inkscape:connector-curvature="0"
       sodipodi:nodetypes="csssc" />
  </g>
  <rect
     y="8.430707"
     x="77.685013"
     height="13.064048"
     width="13.064048"
     id="rect4173"
     style="display:inline;opacity:1;fill:#000000;fill-opacity:1;fill-rule:nonzero;stroke:none;stroke-width:2;stroke-miterlimit:4;stroke-dasharray:none;stroke-opacity:1" />
  <rect
     style="display:inline;opacity:1;fill:#00b8cc;fill-opacity:1;fill-rule:nonzero;stroke:none;stroke-width:2;stroke-miterlimit:4;stroke-dasharray:none;stroke-opacity:1"
     id="rect4167"
     width="13.064048"
     height="13.064048"
     x="77.685013"
     y="21.260817" />
  <rect
     y="34.090923"
     x="77.685013"
     height="13.064048"
     width="13.064048"
     id="rect4169"
     style="display:inline;opacity:1;fill:#cc00b8;fill-opacity:1;fill-rule:nonzero;stroke:none;stroke-width:2;stroke-miterlimit:4;stroke-dasharray:none;stroke-opacity:1" />
  <rect
     style="display:inline;opacity:1;fill:#ffff00;fill-opacity:1;fill-rule:nonzero;stroke:none;stroke-width:2;stroke-miterlimit:4;stroke-dasharray:none;stroke-opacity:1"
     id="rect4171"
     width="13.064048"
     height="13.064048"
     x="77.685013"
     y="46.921032" />
  <circle
     style="display:inline;opacity:1;fill:#006975;fill-opacity:1;fill-rule:nonzero;stroke:none;stroke-width:2;stroke-miterlimit:4;stroke-dasharray:none;stroke-opacity:1"
     id="path4175"
     cx="84.398476"
     cy="21.274168"
     r="4.3546824" />
  <circle
     r="4.3546824"
     cy="34.104275"
     cx="84.398476"
     id="circle4177"
     style="display:inline;opacity:1;fill:#7a4ac0;fill-opacity:1;fill-rule:nonzero;stroke:none;stroke-width:2;stroke-miterlimit:4;stroke-dasharray:none;stroke-opacity:1" />
  <circle
     style="display:inline;opacity:1;fill:#ea974b;fill-opacity:1;fill-rule:nonzero;stroke:none;stroke-width:2;stroke-miterlimit:4;stroke-dasharray:none;stroke-opacity:1"
     id="circle4179"
     cx="84.398476"
     cy="46.934383"
     r="4.3546824" />
</svg>
